<svg width="666" height="438" viewBox="0 0 666 438" fill="none" xmlns="http://www.w3.org/2000/svg">
<path d="M333 438C450.817 438 546.328 339.949 546.328 219C546.328 98.0495 450.817 0 333 0C215.182 0 119.672 98.0495 119.672 219C119.672 339.949 215.182 438 333 438Z" fill="#DDEFFD"/>
<path d="M443.434 255.952C442.963 255.952 441.36 256.048 438.91 256.387C440.465 256.29 442.021 256.193 443.621 256.193C468.404 256.193 493.704 275.104 502.279 295.853H560.65H560.84C560.84 295.661 560.887 295.466 560.887 295.273V229.447C560.887 159.946 518.343 103.987 437.734 103.019H371.162C367.016 103.019 363.152 104.277 359.903 106.405V294.355H384.589C393.682 270.462 418.558 256 443.434 255.952ZM534.408 236.46C534.408 230.56 539.119 225.723 544.869 225.723C550.616 225.723 555.327 230.56 555.327 236.46V265.044C555.327 270.946 550.616 275.783 544.869 275.783C539.119 275.783 534.408 270.946 534.408 265.044V236.46ZM446.306 128.701C446.306 123.478 450.5 119.173 455.588 119.173C455.825 119.173 456.012 119.222 456.2 119.222C457.945 119.222 459.639 119.318 461.335 119.464C461.478 119.464 461.666 119.464 461.809 119.512C465.198 119.802 468.544 120.334 471.796 121.108C471.983 121.156 472.126 121.205 472.314 121.253C475.563 122.027 478.721 123.043 481.783 124.3C481.971 124.349 482.114 124.445 482.254 124.494C485.316 125.751 488.238 127.202 491.113 128.847C491.253 128.943 491.394 128.992 491.537 129.088C492.949 129.911 494.315 130.781 495.634 131.7C515.234 145.097 528.19 167.926 528.19 193.753V207.054C528.19 212.277 523.996 216.582 518.908 216.582H513.538H477.309H455.588C450.5 216.582 446.306 212.326 446.306 207.054V128.701ZM380.302 205.555V130.201C380.302 125.848 382.846 122.075 386.473 120.334V120.286C386.756 120.141 387.087 119.996 387.368 119.899C387.792 119.754 388.265 119.609 388.689 119.464C388.876 119.415 389.017 119.415 389.207 119.367C389.818 119.27 390.432 119.173 391.044 119.173H418.745C424.635 119.173 429.487 124.155 429.487 130.201V205.555C429.487 210.053 426.802 213.922 423.032 215.615V215.663C422.939 215.711 422.798 215.76 422.705 215.808C422.137 216.05 421.573 216.243 420.962 216.34C420.912 216.34 420.865 216.34 420.772 216.388C420.113 216.534 419.453 216.582 418.745 216.582H407.392H391.044C385.107 216.582 380.302 211.6 380.302 205.555Z" fill="#D66E0F"/>
<path d="M559.801 301.996C559.661 302.092 559.521 302.188 559.377 302.287C559.521 302.188 559.661 302.14 559.801 301.996Z" fill="#CF5346"/>
<path d="M555.798 304.124C556.976 303.641 558.155 303.059 559.19 302.383C558.155 303.059 557.023 303.641 555.798 304.124Z" fill="#CF5346"/>
<path d="M559.802 301.996C560.179 300.786 560.462 299.528 560.65 298.222C560.746 297.45 560.793 296.676 560.84 295.901H560.65H502.279C493.704 275.104 468.404 256.241 443.621 256.241C442.021 256.241 440.465 256.338 438.91 256.435C441.36 256.096 442.963 256 443.434 256C418.558 256.048 393.728 270.51 384.589 294.451H359.903V304.172H388.028C396.79 282.892 417.239 267.995 441.077 267.85C441.267 267.85 441.36 267.85 441.36 267.85C441.267 267.85 441.173 267.85 441.077 267.85C440.559 267.85 439.287 267.946 437.591 268.187C438.863 268.091 440.135 268.043 441.454 268.043C465.342 268.043 485.787 282.94 494.552 304.172H555.845C557.023 303.689 558.202 303.107 559.284 302.431C559.331 302.383 559.378 302.383 559.424 302.335C559.521 302.188 559.661 302.092 559.802 301.996Z" fill="#FCA200"/>
<path d="M359.903 106.453C363.152 104.325 367.016 103.067 371.162 103.067H437.734C518.296 103.986 560.887 159.946 560.887 229.495V295.37C560.887 295.562 560.84 295.757 560.84 295.949C560.793 296.724 560.793 297.498 560.65 298.273C560.462 299.579 560.179 300.834 559.802 302.044C559.802 302.044 559.802 302.044 559.802 302.092C559.945 301.996 560.038 301.899 560.179 301.803C560.322 301.704 560.509 301.56 560.65 301.416C561.688 300.642 562.676 299.771 563.571 298.804C563.665 298.708 563.761 298.609 563.855 298.465C564.326 297.933 564.75 297.402 565.127 296.868C565.221 296.724 565.314 296.627 565.408 296.481C565.879 295.853 566.303 295.177 566.68 294.451L566.727 294.403C567.104 293.676 567.482 292.902 567.765 292.13C567.812 291.983 567.906 291.791 567.952 291.647C568.189 291.064 568.376 290.437 568.566 289.806C568.613 289.566 568.707 289.323 568.754 289.035C568.897 288.452 568.99 287.873 569.084 287.293C569.131 287.05 569.178 286.81 569.178 286.567C569.271 285.744 569.318 284.874 569.318 284.003V218.129C569.318 181.275 553.771 147.999 529.085 124.832C528.801 124.59 528.567 124.348 528.284 124.106C524.09 120.237 519.615 116.61 514.904 113.369C513.255 112.208 511.605 111.144 509.909 110.08C503.127 105.824 495.965 102.245 488.425 99.3915C475.235 94.4098 461.007 91.7014 446.212 91.7014H379.641C378.983 91.7014 378.322 91.7498 377.711 91.7981C377.523 91.7981 377.286 91.8464 377.099 91.8948C376.675 91.9431 376.202 92.0401 375.778 92.0884C375.543 92.1367 375.307 92.1851 375.119 92.2334C374.695 92.3301 374.318 92.4268 373.894 92.5721C373.707 92.6204 373.47 92.6688 373.283 92.7654C372.762 92.9105 372.291 93.1041 371.821 93.2974C371.68 93.3458 371.54 93.3941 371.397 93.4908C370.879 93.7328 370.408 93.9745 369.89 94.2164C369.653 94.3615 369.466 94.4581 369.229 94.6034C368.902 94.7968 368.618 94.9901 368.334 95.1838C368.1 95.3288 367.864 95.5222 367.629 95.6675C367.346 95.8608 367.109 96.0544 366.875 96.2478C366.638 96.4412 366.404 96.6348 366.167 96.8281C365.933 97.0215 365.743 97.2635 365.509 97.4568C365.038 97.8922 364.614 98.3275 364.19 98.8112C364.047 99.0045 363.86 99.1498 363.717 99.3432C363.483 99.6335 363.246 99.9235 363.012 100.262C362.869 100.456 362.728 100.649 362.588 100.843C362.351 101.181 362.164 101.471 361.974 101.81C361.88 102.003 361.74 102.197 361.646 102.342C361.456 102.681 361.222 103.019 361.079 103.406C361.032 103.551 360.938 103.696 360.891 103.841C360.561 104.567 360.231 105.292 359.996 106.066V106.453H359.903Z" fill="#FDC652"/>
<path d="M407.392 216.582L386.473 120.334C382.846 122.123 380.302 125.847 380.302 130.2V205.554C380.302 211.6 385.154 216.582 391.044 216.582H407.392Z" fill="#C4E7FD"/>
<path d="M402.774 119.173L423.032 215.566C426.802 213.873 429.487 210.004 429.487 205.506V130.201C429.487 124.155 424.635 119.173 418.745 119.173H391.043H402.774Z" fill="#C4E7FD"/>
<path d="M461.806 119.512C465.199 119.802 468.544 120.382 471.796 121.108C468.544 120.334 465.199 119.802 461.806 119.512Z" fill="#C2E1E8"/>
<path d="M518.908 216.582C523.997 216.582 528.19 212.326 528.19 207.054V193.753C528.19 167.926 515.188 145.049 495.634 131.7L513.585 216.582H518.908Z" fill="#C4E7FD"/>
<path d="M455.588 216.582H477.355L456.199 119.222C455.965 119.222 455.775 119.173 455.588 119.173C450.499 119.173 446.306 123.478 446.306 128.701V207.054C446.306 212.277 450.453 216.582 455.588 216.582Z" fill="#C4E7FD"/>
<path d="M544.869 275.782C550.615 275.782 555.327 270.946 555.327 265.044V236.46C555.327 230.559 550.615 225.723 544.869 225.723C539.119 225.723 534.408 230.559 534.408 236.46V265.044C534.408 270.946 539.119 275.782 544.869 275.782Z" fill="#97000D"/>
<path d="M560.603 304.124H555.845H494.505C495.777 307.172 496.766 310.315 497.52 313.603H551.51C556.552 313.603 560.65 317.812 560.65 322.988V330.484C560.65 335.658 556.552 339.867 551.51 339.867H560.603C565.645 339.867 569.745 335.658 569.745 330.484V313.507C569.745 308.331 565.598 304.124 560.603 304.124Z" fill="#BDC7DC"/>
<path d="M359.9 304.947H350.808H243.014C244.097 307.751 244.992 310.603 245.699 313.603H385.06C385.814 310.315 386.803 307.172 388.028 304.124H359.9V304.947Z" fill="#BDC7DC"/>
<path d="M560.603 330.482V322.985C560.603 317.812 556.505 313.603 551.463 313.603H497.52C498.509 317.956 499.073 322.501 499.073 327.146C499.073 331.499 498.602 335.754 497.707 339.867H551.51C556.505 339.867 560.603 335.609 560.603 330.482Z" fill="#8598BE"/>
<path d="M385.06 313.603H245.699C246.689 317.956 247.254 322.501 247.254 327.146C247.254 331.499 246.783 335.754 245.888 339.867H384.823C383.975 335.804 383.504 331.547 383.504 327.194C383.504 322.501 384.022 317.956 385.06 313.603Z" fill="#8598BE"/>
<path d="M350.808 94.6518V304.947H359.9V304.124V294.403V106.453V106.018V79.6586C359.9 63.6977 347.181 50.5906 331.587 50.5906H196.655C189.87 56.3946 183.416 62.682 177.385 69.3081H326.075C339.689 69.2598 350.808 80.6742 350.808 94.6518Z" fill="#BDC7DC"/>
<path d="M190.294 256.193C191.896 256.193 193.451 256.29 195.006 256.387C193.404 256.145 192.179 256.048 191.378 256C191.095 256 190.813 255.951 190.483 255.951C190.624 255.951 190.954 255.951 191.378 256C214.511 256.677 240.328 270.751 249.327 294.403H350.808V304.947V94.6517C350.808 80.6739 339.691 69.2598 326.075 69.2598H177.385C141.626 108.436 119.672 161.058 119.672 219C119.672 245.359 124.195 270.606 132.534 294.015C141.815 273.993 166.314 256.193 190.294 256.193Z" fill="#8598BE"/>
<path d="M497.52 313.603C496.766 310.315 495.777 307.172 494.505 304.124C485.74 282.892 465.295 267.995 441.407 267.995C440.135 267.995 438.816 268.043 437.544 268.139C431.657 268.961 420.017 271.768 410.266 281.247C390.573 300.351 384.449 329.95 399.996 353.458C424.778 390.843 472.831 380.59 493.751 351.813C495.447 348.039 496.766 344.025 497.661 339.867C498.556 335.754 499.027 331.547 499.027 327.146C499.027 322.502 498.509 317.956 497.52 313.603ZM466.424 338.414C466 339.431 465.482 340.446 464.918 341.413C464.728 341.704 464.587 341.995 464.4 342.284C464.163 342.671 463.929 343.01 463.692 343.397C463.505 343.686 463.268 343.977 463.081 344.268C462.75 344.703 462.42 345.091 462.09 345.526C461.712 345.961 461.338 346.397 460.961 346.832C460.677 347.12 460.44 347.363 460.159 347.604C459.876 347.895 459.545 348.186 459.264 348.474C458.981 348.718 458.697 348.958 458.416 349.201C458.039 349.492 457.662 349.78 457.238 350.072C457.001 350.216 456.767 350.411 456.53 350.555C455.919 350.99 455.307 351.378 454.647 351.717C454.41 351.861 454.129 352.005 453.892 352.101C453.421 352.344 452.95 352.587 452.479 352.828C452.243 352.924 451.962 353.071 451.678 353.167C451.067 353.407 450.406 353.65 449.795 353.893C449.698 353.941 449.558 353.99 449.464 353.99C448.71 354.23 447.955 354.425 447.157 354.617C446.92 354.665 446.683 354.713 446.449 354.761C445.838 354.86 445.224 354.956 444.659 355.052C444.422 355.101 444.188 355.101 443.951 355.149C443.103 355.247 442.302 355.296 441.454 355.296C439.57 355.296 437.734 355.101 435.944 354.713C435.848 354.713 435.754 354.665 435.66 354.617C434.859 354.425 434.105 354.23 433.35 353.99C433.116 353.893 432.926 353.795 432.692 353.746C432.031 353.506 431.373 353.311 430.759 353.023C428.829 352.152 426.992 351.086 425.296 349.78C418.558 344.655 414.13 336.48 414.13 327.194C414.13 317.908 418.511 309.735 425.296 304.608C426.992 303.35 428.782 302.239 430.759 301.368C430.949 301.269 431.136 301.221 431.326 301.125C432.832 300.497 434.341 300.011 435.944 299.675C437.734 299.288 439.57 299.093 441.454 299.093C456.53 299.093 468.781 311.669 468.781 327.146C468.781 331.16 467.933 334.982 466.424 338.465C466.424 338.414 466.424 338.414 466.424 338.414Z" fill="#212026"/>
<path d="M430.665 352.972C428.735 352.101 426.895 351.038 425.199 349.732C426.895 350.99 428.735 352.101 430.665 352.972Z" fill="#85859F"/>
<path d="M425.246 304.56C426.942 303.302 428.735 302.188 430.712 301.317C428.735 302.188 426.895 303.302 425.246 304.56Z" fill="#85859F"/>
<path d="M441.407 299.093C441.407 299.093 434.292 299.915 429.206 305.235C423.362 311.33 418.745 323.276 425.717 334.595C436.084 351.474 456.86 348.862 466.377 338.464C467.886 335.03 468.731 331.208 468.731 327.146C468.731 311.669 456.53 299.093 441.407 299.093Z" fill="#8598BE"/>
<path d="M425.72 334.595C418.745 323.228 423.363 311.282 429.206 305.235C434.292 299.915 441.407 299.093 441.407 299.093C439.524 299.093 437.684 299.287 435.894 299.675C434.292 300.011 432.739 300.497 431.277 301.125C431.089 301.221 430.902 301.269 430.712 301.368C428.782 302.236 426.942 303.302 425.246 304.608C418.511 309.733 414.083 317.908 414.083 327.194C414.083 336.48 418.464 344.655 425.246 349.78C426.942 351.038 428.735 352.152 430.712 353.023C431.326 353.311 431.984 353.506 432.645 353.746C432.879 353.843 433.069 353.941 433.303 353.989C434.058 354.23 434.859 354.425 435.614 354.617C435.707 354.617 435.801 354.665 435.894 354.713C437.684 355.1 439.524 355.295 441.407 355.295C442.255 355.295 443.103 355.247 443.905 355.149C444.139 355.149 444.376 355.1 444.61 355.052C445.224 354.956 445.835 354.86 446.402 354.761C446.636 354.713 446.873 354.665 447.107 354.617C447.908 354.425 448.663 354.23 449.417 353.989C449.511 353.941 449.652 353.891 449.745 353.891C450.406 353.698 451.017 353.458 451.631 353.167C451.912 353.071 452.149 352.924 452.433 352.828C452.904 352.587 453.374 352.392 453.845 352.101C454.079 351.957 454.363 351.861 454.6 351.717C455.258 351.329 455.872 350.942 456.483 350.555C456.72 350.411 456.954 350.216 457.191 350.071C457.568 349.78 457.992 349.492 458.367 349.201C458.65 348.958 458.934 348.717 459.215 348.474C459.545 348.186 459.829 347.895 460.112 347.604C460.393 347.363 460.677 347.072 460.911 346.829C461.288 346.397 461.666 345.961 462.043 345.526C462.373 345.139 462.704 344.703 463.031 344.268C463.268 343.977 463.455 343.686 463.645 343.397C463.88 343.01 464.116 342.671 464.35 342.284C464.54 341.995 464.681 341.704 464.871 341.413C465.435 340.446 465.953 339.431 466.377 338.414L466.33 338.464C456.86 348.862 436.131 351.474 425.72 334.595Z" fill="#4D618D"/>
<path d="M399.996 353.458C384.449 329.95 390.573 300.35 410.267 281.247C420.017 271.768 431.654 268.961 437.544 268.139C439.287 267.898 440.512 267.802 441.03 267.802C417.192 267.946 396.744 282.844 387.982 304.124C386.756 307.172 385.721 310.315 385.013 313.603C384.025 317.956 383.458 322.501 383.458 327.194C383.458 331.547 383.928 335.754 384.776 339.867C390.43 366.611 413.61 386.636 441.314 386.636C465.011 386.636 485.363 371.979 494.315 351.038C494.128 351.329 493.891 351.57 493.704 351.861C472.832 380.542 424.822 390.795 399.996 353.458Z" fill="black"/>
<path d="M191.378 256C191.002 255.951 190.672 255.951 190.483 255.951C190.813 255.951 191.096 256 191.378 256Z" fill="#5C5C7F"/>
<path d="M189.258 267.8C189.447 267.8 189.588 267.8 189.588 267.8C189.446 267.8 189.352 267.8 189.258 267.8C188.74 267.85 187.468 267.898 185.772 268.139C187.044 268.043 188.316 267.995 189.635 267.995C213.804 267.995 234.487 283.279 243.061 304.947H350.855V294.403H249.327C240.329 270.751 214.51 256.628 191.378 256C192.179 256.048 193.404 256.145 195.006 256.386C193.451 256.29 191.896 256.193 190.294 256.193C166.267 256.193 141.768 273.993 132.534 294.015C133.712 297.351 134.984 300.69 136.35 303.977C145.113 282.793 165.466 267.898 189.258 267.8Z" fill="#4D618D"/>
<path d="M245.699 313.603C245.04 310.654 244.144 307.751 243.014 304.947C234.439 283.279 213.757 267.995 189.588 267.995C188.315 267.995 186.996 268.043 185.724 268.139C179.835 268.961 168.198 271.768 158.446 281.247C149.165 290.242 142.946 301.608 140.543 313.555C151.756 337.543 167.115 359.067 185.63 377.203C206.925 379.671 229.351 369.079 241.977 351.765C243.673 347.991 244.993 343.977 245.888 339.819C246.783 335.706 247.254 331.499 247.254 327.098C247.254 322.502 246.689 317.956 245.699 313.603ZM214.652 338.414C214.228 339.431 213.71 340.446 213.144 341.413C212.956 341.704 212.814 341.995 212.626 342.284C212.39 342.671 212.155 343.01 211.919 343.397C211.731 343.686 211.495 343.977 211.307 344.268C210.977 344.703 210.694 345.091 210.317 345.526C209.94 345.961 209.563 346.397 209.187 346.832C208.904 347.12 208.669 347.363 208.386 347.604C208.103 347.895 207.773 348.186 207.491 348.474C207.208 348.718 206.925 348.958 206.642 349.201C206.266 349.492 205.889 349.829 205.465 350.12C205.229 350.264 204.994 350.459 204.758 350.603C204.145 351.038 203.533 351.426 202.874 351.765C202.638 351.909 202.355 352.053 202.12 352.152C201.648 352.392 201.177 352.635 200.706 352.876C200.471 352.972 200.188 353.119 199.905 353.215C199.293 353.458 198.633 353.698 198.021 353.941C197.927 353.99 197.785 354.038 197.691 354.038C196.937 354.278 196.136 354.473 195.383 354.665C195.147 354.713 194.911 354.761 194.676 354.812C194.063 354.908 193.451 355.004 192.886 355.101C192.65 355.149 192.414 355.149 192.179 355.197C191.331 355.296 190.53 355.344 189.682 355.344C187.797 355.344 185.96 355.149 184.17 354.761C184.075 354.761 183.981 354.713 183.887 354.665C183.086 354.473 182.332 354.278 181.578 354.038C181.343 353.941 181.154 353.843 180.919 353.795C180.259 353.554 179.6 353.359 178.987 353.071C177.056 352.2 175.218 351.134 173.522 349.828C166.785 344.703 162.356 336.528 162.356 327.242C162.356 317.956 166.738 309.784 173.522 304.656C175.218 303.398 177.008 302.287 178.987 301.416C179.176 301.317 179.364 301.269 179.553 301.173C181.06 300.545 182.568 300.062 184.17 299.723C185.96 299.336 187.797 299.143 189.682 299.143C204.758 299.143 217.007 311.717 217.007 327.194C217.007 331.208 216.159 335.03 214.652 338.513C214.605 338.414 214.605 338.414 214.652 338.414Z" fill="#212026"/>
<path d="M189.588 299.093C189.588 299.093 182.474 299.915 177.386 305.235C171.543 311.33 166.927 323.276 173.899 334.595C184.264 351.474 205.041 348.862 214.558 338.464C216.065 335.03 216.913 331.208 216.913 327.146C216.961 311.669 204.711 299.093 189.588 299.093Z" fill="#8598BE"/>
<path d="M173.899 334.595C166.926 323.228 171.544 311.282 177.386 305.235C182.474 299.915 189.588 299.093 189.588 299.093C187.703 299.093 185.866 299.287 184.076 299.675C182.474 300.011 180.919 300.497 179.459 301.125C179.27 301.221 179.082 301.269 178.893 301.368C176.962 302.236 175.124 303.302 173.428 304.608C166.691 309.733 162.262 317.908 162.262 327.194C162.262 336.48 166.644 344.655 173.428 349.78C175.124 351.038 176.914 352.152 178.893 353.023C179.506 353.311 180.165 353.506 180.825 353.746C181.06 353.843 181.249 353.941 181.484 353.989C182.238 354.23 183.039 354.425 183.793 354.617C183.887 354.617 183.981 354.665 184.076 354.713C185.866 355.1 187.703 355.295 189.588 355.295C190.436 355.295 191.284 355.247 192.085 355.149C192.32 355.149 192.556 355.1 192.792 355.052C193.404 354.956 194.016 354.86 194.582 354.761C194.817 354.713 195.053 354.665 195.289 354.617C196.089 354.425 196.843 354.23 197.597 353.989C197.691 353.941 197.833 353.891 197.927 353.891C198.587 353.698 199.199 353.458 199.811 353.167C200.094 353.071 200.33 352.924 200.612 352.828C201.083 352.587 201.555 352.392 202.026 352.101C202.261 351.957 202.544 351.861 202.779 351.717C203.439 351.329 204.052 350.942 204.664 350.555C204.899 350.411 205.135 350.216 205.371 350.071C205.748 349.78 206.172 349.492 206.549 349.153C206.831 348.91 207.114 348.669 207.396 348.426C207.726 348.135 208.009 347.847 208.292 347.556C208.574 347.315 208.857 347.024 209.093 346.781C209.47 346.346 209.846 345.91 210.223 345.475C210.553 345.091 210.883 344.655 211.213 344.22C211.401 343.929 211.637 343.638 211.825 343.349C212.061 342.962 212.296 342.623 212.532 342.236C212.72 341.944 212.862 341.656 213.05 341.365C213.615 340.398 214.134 339.383 214.558 338.366L214.511 338.414C205.041 348.862 184.311 351.474 173.899 334.595Z" fill="#4D618D"/>
<path d="M185.771 268.139C187.515 267.898 188.74 267.802 189.258 267.802C165.466 267.946 145.113 282.793 136.35 303.977C137.669 307.22 139.082 310.411 140.59 313.603C142.993 301.656 149.211 290.29 158.493 281.295C168.245 271.766 179.882 268.961 185.771 268.139Z" fill="black"/>
<path d="M185.63 377.252C188.786 380.347 192.037 383.394 195.382 386.297C216.536 384.121 234.345 370.241 242.542 351.038C242.354 351.329 242.118 351.57 241.93 351.861C229.351 369.127 206.925 379.719 185.63 377.252Z" fill="black"/>
<path d="M477.356 216.582H513.585L495.634 131.7C494.315 130.781 492.903 129.91 491.537 129.088C491.394 128.991 491.253 128.943 491.113 128.846C488.285 127.202 485.316 125.751 482.254 124.493C482.114 124.445 481.924 124.348 481.783 124.3C478.721 123.091 475.563 122.075 472.314 121.253C472.124 121.204 471.983 121.156 471.796 121.108C468.544 120.334 465.199 119.802 461.806 119.512C461.666 119.512 461.478 119.512 461.335 119.463C459.639 119.318 457.943 119.221 456.2 119.221L477.356 216.582Z" fill="white"/>
<path d="M407.392 216.582H418.745C419.453 216.582 420.111 216.485 420.772 216.388C420.819 216.388 420.865 216.388 420.959 216.34C421.573 216.195 422.137 216.001 422.702 215.808C422.798 215.76 422.939 215.711 423.032 215.663V215.614L402.774 119.221H391.044C390.43 119.221 389.818 119.318 389.207 119.415C389.017 119.463 388.876 119.463 388.687 119.512C388.216 119.608 387.792 119.753 387.368 119.947C387.087 120.044 386.756 120.189 386.473 120.334V120.382L407.392 216.582Z" fill="white"/>
</svg>
