<svg width="256" height="164" viewBox="0 0 256 164" fill="none" xmlns="http://www.w3.org/2000/svg">
<g clip-path="url(#clip0_865_8574)">
<path d="M128 164C172.182 164 208 128.181 208 84.0025C208 39.824 172.182 4 128 4C83.8182 4 48 39.8189 48 84.0025C48 128.186 83.8182 164 128 164Z" fill="#DDEFFD"/>
<path d="M158.612 12.9646C158.608 11.6584 158.087 10.4069 157.162 9.48414C156.238 8.56141 154.985 8.04258 153.679 8.04126H101.01C99.7062 8.04656 98.4571 8.56701 97.535 9.48918C96.6128 10.4113 96.0922 11.6605 96.0869 12.9646V47.3478C96.1271 56.0983 96.0869 75.3592 96.0869 75.3592V131.181C96.0922 132.485 96.6128 133.734 97.535 134.656C98.4571 135.579 99.7062 136.099 101.01 136.104H153.679C154.983 136.099 156.232 135.579 157.154 134.656C158.077 133.734 158.597 132.485 158.602 131.181L158.612 12.9646Z" fill="#ECEFF5"/>
<path d="M156.324 8.85094C155.531 8.33703 154.604 8.06609 153.659 8.07143H152.351L146.553 12.0946L143.757 8.07143H140.176L144.149 13.7492L124.42 27.4582L117.234 17.2443L130.194 8.07143H126.955L116.163 15.7054L110.792 8.07143H107.236L122.027 29.1228L101.961 43.0631L96.0016 34.3579V39.5176L99.5822 44.7277L96.0016 47.207V47.3629C97.5618 47.0842 99.162 47.1183 100.709 47.4635L101.212 47.1014L101.634 47.6998C104.05 48.4591 106.143 50.0058 107.578 52.0932C109.012 54.1805 109.707 56.6881 109.55 59.2161L113.548 65.0246L107.981 64.3458C107.392 65.3404 106.652 66.2377 105.788 67.006L107.588 67.2123L96.9018 74.5595L95.9866 75.3441V78.7286L111.954 67.7855L115.715 68.2281L128.65 87.0667L109.625 100.142L96.0168 80.3882V83.6973L108.086 101.228L101.735 105.578L95.9866 96.8782V102.169L99.3308 107.248L95.9866 109.541V113.061L100.95 109.652L117.702 135.496L95.9866 122.471V125.855L112.969 136.069H121.544L112.265 121.53L124.808 113.117L134.363 125.569C135.17 126.623 136.354 127.323 137.667 127.523C138.98 127.723 140.319 127.406 141.403 126.64L151.074 119.835L157.501 129.189L147.026 136.044H152.029L158.567 131.588C158.587 131.442 158.596 131.294 158.592 131.146V125.614L132.673 87.8613L153.317 73.6644L155.746 77.1042C156.058 76.7371 156.37 76.4001 156.711 76.0632C156.708 76.0633 156.704 76.0625 156.7 76.061C156.697 76.0594 156.694 76.0571 156.692 76.0542C156.689 76.0513 156.688 76.0479 156.687 76.0443C156.686 76.0406 156.685 76.0368 156.686 76.0331C156.602 75.9329 156.56 75.8039 156.57 75.6734C156.579 75.5428 156.639 75.4211 156.737 75.334C157.023 75.0976 157.31 74.8864 157.602 74.6802L156.344 72.885C155.128 71.7798 154.172 70.4174 153.548 68.8969L150.883 65.0951C151.765 64.1776 152.411 63.0591 152.764 61.8363V58.658C152.764 58.2577 152.791 57.8578 152.844 57.461C152.62 56.6041 152.249 55.7925 151.748 55.0622C150.687 53.4936 149.11 52.3459 147.291 51.8178C145.473 51.2896 143.527 51.4144 141.791 52.1705L126.115 29.8671L145.839 16.1631L158.617 34.4032V29.3189L148.228 14.5085L156.324 8.85094ZM149.284 117.185L139.563 124.01C139.152 124.296 138.648 124.416 138.153 124.344C137.658 124.272 137.209 124.014 136.897 123.622L127.438 111.321L139.638 103.169L149.284 117.185ZM138.592 101.631L111.24 119.971L103.319 107.987L130.259 89.4907L138.592 101.631ZM131.033 85.4171L119.562 68.6907L150.003 72.3871L131.033 85.4171ZM150.144 56.078C151.06 57.4489 151.398 59.1262 151.084 60.7449C150.872 61.7677 150.414 62.7237 149.751 63.531L142.867 53.7346C144.17 53.2531 145.597 53.2234 146.92 53.6502C148.242 54.077 149.383 54.9355 150.159 56.0881L150.144 56.078ZM150.405 69.4954L117.35 65.4723L103.58 45.4116L123.696 31.4763L150.405 69.4954Z" fill="#BDC7DC"/>
<path d="M95.9915 12.9999V13.6789L103.962 8.07655H100.945C99.6357 8.07387 98.3787 8.59076 97.4501 9.51379C96.5214 10.4368 95.9968 11.6906 95.9915 12.9999Z" fill="#BDC7DC"/>
<path d="M127.633 57.9362C130.714 57.9232 133.722 56.9979 136.277 55.277C138.832 53.5562 140.82 51.1169 141.99 48.2672C143.16 45.4174 143.459 42.2848 142.85 39.265C142.241 36.2452 140.751 33.4735 138.568 31.2998C136.386 29.126 133.608 27.6477 130.585 27.0514C127.563 26.4551 124.432 26.7677 121.587 27.9495C118.742 29.1314 116.311 31.1295 114.601 33.6918C112.891 36.2541 111.978 39.2657 111.978 42.3463C111.989 46.4891 113.644 50.4581 116.579 53.3813C119.515 56.3046 123.491 57.9428 127.633 57.9362Z" fill="white"/>
<path d="M127.342 22.4517C122.202 22.4477 117.27 24.484 113.631 28.1133C109.991 31.7427 107.941 36.6682 107.93 41.8082C107.93 42.5625 108.036 43.9959 108.036 43.9959C108.036 43.9959 108.634 58.0116 126.432 71.615C126.694 71.8144 127.015 71.9224 127.344 71.9224C127.674 71.9224 127.995 71.8144 128.257 71.615C146.055 58.0116 146.628 43.9959 146.628 43.9959C146.712 43.2696 146.755 42.5393 146.759 41.8082C146.748 36.6673 144.697 31.741 141.056 28.1115C137.416 24.482 132.483 22.4463 127.342 22.4517ZM127.342 56.7342C124.432 56.7252 121.591 55.8543 119.176 54.2315C116.762 52.6086 114.882 50.3066 113.775 47.6161C112.668 44.9256 112.383 41.9674 112.956 39.1151C113.529 36.2627 114.934 33.6441 116.995 31.59C119.055 29.5359 121.678 28.1385 124.532 27.5742C127.386 27.0099 130.344 27.304 133.031 28.4194C135.718 29.5348 138.014 31.4216 139.629 33.8413C141.245 36.2609 142.107 39.105 142.107 42.0143C142.104 43.9504 141.72 45.8671 140.977 47.6548C140.233 49.4424 139.145 51.0661 137.774 52.433C136.403 53.8 134.776 54.8833 132.986 55.6213C131.196 56.3593 129.278 56.7375 127.342 56.7342Z" fill="#E54062"/>
<path d="M116.686 112L108.77 108.224V79.327L116.686 83.1038V112Z" fill="#FCA200"/>
<path d="M147.885 83.134H116.555V112.025H147.885V83.134Z" fill="#FDC652"/>
<path d="M135.187 83.1592L128.051 83.134V93.4233L128.967 94.7812L129.857 93.4233L130.742 94.7812L131.657 93.4233L132.547 94.7812L133.437 93.4233L134.323 94.7812L135.213 93.4233L135.187 83.1592Z" fill="#FEE5AE"/>
<path d="M131.788 102.933H118.386V108.118H131.788V102.933Z" fill="#ECEFF5"/>
<path d="M108.821 79.302H140.503L147.871 83.134H116.646L108.821 79.302Z" fill="#FDC652"/>
<path d="M116.61 111.975C116.57 111.975 116.53 111.962 116.497 111.939C116.464 111.915 116.439 111.882 116.424 111.844L108.72 79.659C108.714 79.6369 108.714 79.614 108.717 79.5915C108.721 79.569 108.729 79.5475 108.741 79.5281C108.753 79.5088 108.768 79.4919 108.787 79.4785C108.805 79.4652 108.826 79.4556 108.848 79.4503C108.87 79.445 108.893 79.4441 108.916 79.4477C108.938 79.4513 108.96 79.4593 108.979 79.4712C108.998 79.4831 109.015 79.4987 109.028 79.5171C109.042 79.5355 109.051 79.5564 109.057 79.5785L116.766 111.764C116.774 111.786 116.776 111.81 116.774 111.834C116.771 111.858 116.763 111.88 116.751 111.9C116.738 111.921 116.721 111.938 116.701 111.951C116.681 111.964 116.659 111.972 116.635 111.975H116.61Z" fill="#FDC652"/>
<path d="M108.981 108.168H108.926C108.902 108.163 108.879 108.152 108.859 108.137C108.839 108.122 108.822 108.103 108.81 108.081C108.798 108.059 108.79 108.035 108.788 108.011C108.785 107.986 108.788 107.961 108.795 107.937L116.087 83.0032C116.091 82.9757 116.1 82.9493 116.114 82.9258C116.129 82.9022 116.149 82.8821 116.172 82.8668C116.195 82.8516 116.221 82.8416 116.249 82.8375C116.276 82.8334 116.304 82.8351 116.331 82.8429C116.357 82.8507 116.382 82.8642 116.402 82.8824C116.423 82.9006 116.44 82.9231 116.451 82.9484C116.463 82.9737 116.468 83.0012 116.468 83.0289C116.468 83.0566 116.461 83.0838 116.449 83.1088L109.162 108.048C109.147 108.083 109.122 108.114 109.09 108.135C109.058 108.157 109.02 108.168 108.981 108.168Z" fill="#FDC652"/>
<path d="M135.187 83.1592L128.549 79.2769H121.232L128.051 83.134L135.187 83.1592Z" fill="#FEE5AE"/>
<path d="M147.503 83.315H116.198C116.15 83.315 116.104 83.2959 116.07 83.262C116.036 83.228 116.017 83.1819 116.017 83.1339C116.017 83.0859 116.036 83.0398 116.07 83.0059C116.104 82.9719 116.15 82.953 116.198 82.953H147.478C147.502 82.9523 147.526 82.9564 147.548 82.9652C147.571 82.9741 147.591 82.9874 147.608 83.0044C147.625 83.0214 147.638 83.0415 147.647 83.0638C147.656 83.0861 147.66 83.11 147.659 83.1339C147.649 83.2395 147.599 83.315 147.503 83.315Z" fill="#FCA200"/>
<path d="M181.263 32.3011C180.266 29.5763 178.232 27.3563 175.604 26.125C172.977 24.8938 169.969 24.7512 167.237 25.7283L164.265 27.0257L164.195 48.424C165.2 48.6252 166.795 48.4542 167.715 48.9269L174.68 46.332C177.406 45.3378 179.629 43.3055 180.862 40.6787C182.095 38.0519 182.239 35.0439 181.263 32.3112V32.3011Z" fill="#A6587A"/>
<path d="M158.602 116.235V131.181C158.597 132.485 158.076 133.734 157.154 134.656C156.232 135.579 154.983 136.099 153.679 136.104H101.01C99.7061 136.099 98.4571 135.579 97.5349 134.656C96.6127 133.734 96.0922 132.485 96.0869 131.181V70.9287L89.7002 76.3651L88.9761 82.0629L88.7649 100.323V135.204C88.7715 137.578 89.7173 139.852 91.3955 141.53C93.0738 143.208 95.3479 144.154 97.7213 144.161H156.963C159.337 144.154 161.611 143.208 163.291 141.53C164.97 139.852 165.916 137.578 165.924 135.204V117.487C163.41 117.96 160.82 116.793 158.602 115.516V116.235Z" fill="#353535"/>
<path d="M96.0869 48.9219V12.9647C96.0922 11.6605 96.6127 10.4114 97.5349 9.48919C98.4571 8.56703 99.7061 8.04657 101.01 8.04128H153.679C154.983 8.04657 156.232 8.56703 157.154 9.48919C158.076 10.4114 158.597 11.6605 158.602 12.9647V50.9989C160.19 50.1988 161.944 49.7819 163.722 49.7818C164.461 49.7807 165.199 49.8533 165.924 49.9981V8.97672C165.916 6.60286 164.97 4.32858 163.291 2.65047C161.611 0.97236 159.337 0.00662872 156.963 0H97.7164C95.3443 0.00927878 93.0719 0.976206 91.395 2.65403C89.7182 4.33186 88.7728 6.60459 88.7649 8.97672V53.2066L90.6807 51.5369C92.2146 50.1946 94.0823 49.2912 96.0869 48.9219Z" fill="#353535"/>
<path d="M169.389 97.3661C167.575 96.2932 165.492 95.761 163.385 95.8322C161.343 95.8674 158.828 97.1046 158.708 97.0845C158.238 97.3667 157.804 97.7044 157.415 98.0902C156.057 99.1057 154.954 100.423 154.192 101.938C153.43 103.453 153.03 105.125 153.025 106.821V108.832C153.031 110.77 153.55 112.672 154.53 114.344C155.509 116.017 156.914 117.399 158.602 118.352C160.815 119.625 163.41 120.066 165.92 119.594C168.442 119.134 170.723 117.806 172.369 115.841C174.015 113.875 174.921 111.396 174.931 108.832V106.821C174.929 105.059 174.5 103.325 173.683 101.765C172.867 100.205 171.685 98.8646 170.239 97.8589C170.169 97.9897 169.495 97.4315 169.389 97.3661Z" fill="#A6587A"/>
<path d="M170.134 74.9267C169.483 74.5168 168.812 74.1408 168.122 73.8002C165.869 72.553 163.138 73.3627 161.313 73.589C159.487 73.8153 156.611 76.1035 156.611 76.1035C155.521 77.1026 154.656 78.3213 154.071 79.6792C153.462 81.0648 153.146 82.561 153.141 84.0745V87.5948C153.145 89.4564 153.625 91.2859 154.534 92.9103C155.586 94.6305 157.028 96.0794 158.743 97.1398C160.478 96.134 161.881 95.9982 163.878 96.0133C165.787 95.9952 167.663 96.5069 169.299 97.4918C171.069 96.3362 172.547 94.7872 173.619 92.9657C174.554 91.3224 175.047 89.4652 175.052 87.5746V84.0544C175.047 82.3027 174.621 80.5781 173.81 79.0254C172.976 77.4568 171.78 76.1102 170.32 75.0977L170.134 74.9267Z" fill="#A6587A"/>
<path d="M168.841 48.5648C167.333 47.6948 165.708 47.5138 163.948 47.4736C162.188 47.4334 158.281 49.3192 158.22 49.2086C156.566 50.1697 155.191 51.5471 154.234 53.204C153.277 54.8609 152.77 56.7395 152.764 58.653V64.7984C152.767 66.7189 153.277 68.6045 154.242 70.265C155.32 72.0653 156.816 73.5797 158.602 74.6803C160.304 73.6543 162.243 73.0908 164.23 73.0459C165.937 72.9522 167.632 73.3822 169.088 74.2781C170.8 73.2154 172.245 71.7735 173.312 70.0637C174.197 68.4498 174.66 66.6389 174.66 64.7984V58.6379C174.655 56.8004 174.189 54.9936 173.303 53.3836C172.417 51.7737 171.14 50.4123 169.591 49.4248C169.565 49.5153 168.917 48.6101 168.841 48.5648Z" fill="#A6587A"/>
<path d="M158.366 96.8783C158.079 97.0392 157.798 97.2102 157.521 97.3812C157.467 97.4173 157.421 97.4634 157.385 97.517C157.35 97.5725 157.324 97.6337 157.31 97.6979C157.3 97.7629 157.3 97.8292 157.31 97.8941C157.325 97.9565 157.351 98.0158 157.385 98.0701C157.461 98.1677 157.57 98.234 157.692 98.2562C157.816 98.2767 157.944 98.2497 158.049 98.1807C159.731 97.02 161.718 96.3815 163.761 96.3448C165.804 96.3081 167.813 96.875 169.535 97.9746C169.644 98.0443 169.775 98.0696 169.902 98.045C170.026 98.019 170.136 97.9471 170.209 97.8438C170.278 97.733 170.302 97.5995 170.274 97.4717C170.245 97.3427 170.165 97.2307 170.053 97.1599C169.937 97.0845 169.817 97.019 169.701 96.9486C167.98 95.9335 166.021 95.3906 164.023 95.3747C162.025 95.3589 160.058 95.8705 158.32 96.8581L158.366 96.8783Z" fill="#61354A"/>
<path d="M158.26 74.2881C157.73 74.5971 157.225 74.9485 156.752 75.3391C156.653 75.4249 156.592 75.5457 156.581 75.676C156.569 75.8065 156.609 75.9365 156.691 76.0382C156.779 76.1308 156.897 76.1869 157.024 76.1953C157.151 76.2037 157.277 76.1637 157.375 76.0834C159.074 74.649 161.188 73.7961 163.407 73.6495C165.626 73.503 167.833 74.0704 169.706 75.2687C169.813 75.3342 169.94 75.3575 170.063 75.3341C170.187 75.3093 170.296 75.2394 170.37 75.138C170.404 75.0821 170.428 75.0208 170.441 74.9569C170.453 74.8921 170.453 74.8256 170.441 74.7608C170.425 74.6975 170.398 74.6377 170.36 74.5847C170.326 74.53 170.279 74.4836 170.224 74.449C169.998 74.3081 169.767 74.1673 169.53 74.0416C167.786 73.0887 165.822 72.6101 163.835 72.6533C161.848 72.6966 159.906 73.2603 158.205 74.2881H158.26Z" fill="#61354A"/>
<path d="M163.722 47.1969C161.944 47.2012 160.191 47.6196 158.602 48.4189L158.411 48.5095C158.354 48.5394 158.304 48.5807 158.263 48.6309C158.222 48.681 158.192 48.739 158.175 48.8011C158.137 48.9245 158.148 49.0577 158.205 49.1733C158.268 49.2839 158.37 49.3665 158.492 49.4046C158.615 49.4382 158.746 49.4239 158.859 49.3644C160.421 48.5604 162.158 48.1586 163.915 48.1955C165.671 48.2324 167.39 48.7067 168.917 49.5756C168.992 49.6172 169.077 49.6397 169.163 49.6411C169.246 49.6393 169.326 49.6172 169.398 49.5769C169.47 49.5365 169.531 49.479 169.576 49.4096C169.64 49.2952 169.657 49.1602 169.623 49.0333C169.59 48.9065 169.507 48.7979 169.394 48.7308C169.193 48.6151 168.992 48.5094 168.786 48.4038C167.198 47.6082 165.447 47.1933 163.672 47.1919L163.722 47.1969Z" fill="#61354A"/>
<path d="M127.805 164C128.864 164 129.919 163.98 130.968 163.94L143.5 144.151H97.7365C95.3622 144.148 93.0856 143.205 91.4044 141.529C89.7231 139.852 88.7742 137.578 88.7649 135.204V100.333L88.9761 82.0729L89.695 80.8107L96.0819 75.3743L105.712 67.1821C107.599 65.5336 108.891 63.3103 109.389 60.8549C109.887 58.3994 109.564 55.8483 108.469 53.5949C107.374 51.3415 105.568 49.511 103.329 48.3857C101.091 47.2603 98.5438 46.9028 96.0819 47.368C94.0815 47.7299 92.2155 48.6246 90.6807 49.9578L88.7649 51.6275L85.8229 54.1972C82.5742 57.0336 79.6423 62.9325 79.4613 67.8861C78.2443 77.597 83.2983 93.6194 86.4012 102.269L67.7939 136.808C75.2777 145.36 84.5049 152.211 94.8556 156.901C105.206 161.591 116.441 164.011 127.805 164Z" fill="#A6587A"/>
</g>
<defs>
<clipPath id="clip0_865_8574">
<rect width="256" height="164" fill="white"/>
</clipPath>
</defs>
</svg>
