<svg width="256" height="164" viewBox="0 0 256 164" fill="none" xmlns="http://www.w3.org/2000/svg">
<circle cx="128" cy="82" r="82" fill="#ECEFF5"/>
<path fill-rule="evenodd" clip-rule="evenodd" d="M209.976 84C208.914 128.363 172.619 164 128 164C83.3812 164 47.0858 128.363 46.0239 84H209.976Z" fill="#4D618D"/>
<path fill-rule="evenodd" clip-rule="evenodd" d="M181.936 143.767L110 114V1.98183C115.792 0.684488 121.816 0 128 0C173.287 0 210 36.7127 210 82C210 106.636 199.135 128.735 181.936 143.767Z" fill="#A2B6DF"/>
<path d="M109.526 93.5079C103.181 93.68 93.4426 95.4242 86.7043 103.578L85.5951 104.939L87.4087 105.784L84.131 112.833L80.5705 111.199C73.0003 120.476 64.2599 129.63 51.8981 129.63H50.9774C43.0856 129.341 37 123.589 37 116.999C37 109.999 42.2759 102.179 55.3865 100.407C62.9384 99.4354 70.6084 100.002 77.9362 102.073C78.8568 100.929 79.7885 99.7624 80.7091 98.6515C89.4551 88.031 101.678 85.8757 109.548 85.7202H110V93.4967L109.526 93.5079ZM62.4298 107.689C60.4249 107.687 58.4221 107.819 56.4347 108.083C48.1768 109.194 44.5996 113.488 44.7882 116.999C44.9268 119.831 47.417 121.681 51.288 121.826C59.6069 122.12 66.3174 116.032 72.5233 108.739C69.2031 108.046 65.8212 107.694 62.4298 107.689Z" fill="#8598BE"/>
<path d="M106.925 145.205C106.925 145.205 103.181 145.205 101.723 141.872C100.264 138.54 97.9957 136.24 94.6681 133.735C91.3406 131.23 85.0903 127.48 86.3493 121.642C87.6082 115.804 97.1749 111.644 102.377 110.8C107.579 109.955 111.334 112.049 115.499 113.927C119.664 115.804 122.991 118.926 125.071 119.348C127.151 119.77 127.156 118.932 131.942 121.431C136.728 123.931 134.649 128.73 134.649 130.607C134.649 132.485 132.358 134.779 127.572 136.029C122.786 137.279 115.704 141.867 113.624 142.911C111.544 143.955 109.426 145.622 106.925 145.205Z" fill="#212026"/>
<path d="M135.032 129.047C135.032 129.047 135.658 125.603 134.516 124.875C133.373 124.147 130.872 123.831 126.291 125.292C121.71 126.753 111.716 131.024 109.01 132.379C106.304 133.735 103.802 134.573 103.597 137.701C103.392 140.828 102.66 143.644 104.95 145C107.241 146.355 109.115 145.938 112.859 143.744C116.602 141.55 120.878 138.745 125.975 137.079C131.072 135.412 135.154 134.257 135.032 129.047Z" fill="#353535"/>
<path d="M99.5321 135.923C99.4309 135.923 99.3333 135.885 99.2578 135.818C99.1822 135.75 99.1339 135.657 99.1217 135.557C98.789 132.541 99.6763 130.863 102.743 128.891C105.1 127.375 123.075 119.798 123.818 119.448C123.869 119.423 123.924 119.408 123.981 119.405C124.038 119.402 124.095 119.411 124.148 119.431C124.201 119.45 124.25 119.481 124.291 119.52C124.332 119.56 124.364 119.607 124.386 119.66C124.409 119.712 124.42 119.769 124.419 119.826C124.418 119.883 124.406 119.939 124.383 119.991C124.36 120.043 124.326 120.09 124.284 120.128C124.242 120.167 124.193 120.196 124.139 120.215C123.951 120.292 105.472 128.086 103.176 129.563C100.403 131.335 99.6319 132.763 99.9258 135.423C99.9383 135.533 99.9068 135.643 99.8382 135.73C99.7695 135.816 99.6694 135.872 99.5598 135.884L99.5321 135.923Z" fill="#5E646D"/>
<path d="M99.0164 130.818C98.9223 130.817 98.8312 130.786 98.7557 130.73C97.9238 130.069 96.6593 129.185 95.3283 128.252C93.5203 126.986 91.6514 125.68 90.6198 124.769C88.7453 123.103 88.8008 121.848 88.8174 121.709C88.8216 121.654 88.8366 121.601 88.8615 121.552C88.8865 121.504 88.9209 121.461 88.9627 121.425C89.0046 121.39 89.053 121.364 89.1052 121.348C89.1574 121.331 89.2123 121.326 89.2667 121.331C89.3751 121.341 89.4753 121.393 89.5458 121.476C89.6163 121.559 89.6514 121.667 89.6437 121.775C89.6437 121.814 89.6437 122.792 91.1689 124.147C92.1671 125.025 94.014 126.319 95.8053 127.569C97.1474 128.508 98.4175 129.396 99.2715 130.074C99.3395 130.128 99.3892 130.201 99.4136 130.284C99.4381 130.367 99.4362 130.455 99.4082 130.537C99.3801 130.619 99.3273 130.69 99.2571 130.74C99.1869 130.791 99.1028 130.818 99.0164 130.818Z" fill="#5E646D"/>
<path d="M111.112 143.766C107.508 141.035 112.088 136.171 115.554 137.906C116.386 138.323 128.986 148.021 128.986 148.021C130.132 149.045 130.358 150.808 129.508 152.087C128.049 154.487 125.343 154.07 123.673 153.132C122.365 152.387 114.367 146.266 111.112 143.766Z" fill="#ECEFF5"/>
<path d="M127.45 135.129C123.706 132.559 128.609 128.073 131.881 129.624C132.713 130.019 145.253 139.134 145.253 139.134C146.387 140.061 146.618 141.758 145.774 142.955C144.321 145.211 141.626 144.816 139.967 143.933C138.659 143.233 130.717 137.484 127.45 135.129Z" fill="#ECEFF5"/>
<path d="M81.0497 112.054C80.9944 112.054 80.9396 112.043 80.8889 112.02C76.918 110.354 71.0449 109.293 70.9839 109.282C70.926 109.277 70.8697 109.261 70.8186 109.233C70.7675 109.206 70.7227 109.168 70.6871 109.122C70.6516 109.076 70.6261 109.023 70.6121 108.966C70.5982 108.91 70.5962 108.851 70.6063 108.794C70.6164 108.737 70.6384 108.682 70.6708 108.634C70.7032 108.586 70.7454 108.545 70.7945 108.514C70.8437 108.483 70.8987 108.463 70.9561 108.454C71.0136 108.446 71.0722 108.45 71.1281 108.465C71.3721 108.504 77.1565 109.532 81.2105 111.243C81.2986 111.28 81.371 111.347 81.4156 111.432C81.4602 111.517 81.4742 111.614 81.4553 111.708C81.4364 111.802 81.3858 111.887 81.3119 111.948C81.238 112.009 81.1454 112.042 81.0497 112.043V112.054Z" fill="#4D618D"/>
<path d="M85.6894 105.167C85.6173 105.168 85.5462 105.149 85.4842 105.112C81.9792 103.129 76.4776 101.623 76.4222 101.607C76.3646 101.597 76.3097 101.576 76.261 101.544C76.2122 101.512 76.1707 101.47 76.1391 101.421C76.1075 101.372 76.0865 101.317 76.0776 101.259C76.0686 101.202 76.0719 101.143 76.0871 101.086C76.1023 101.03 76.1292 100.978 76.166 100.932C76.2028 100.887 76.2487 100.85 76.3006 100.824C76.3526 100.797 76.4095 100.782 76.4677 100.779C76.5259 100.776 76.5841 100.786 76.6385 100.807C76.8658 100.868 82.3009 102.351 85.8946 104.389C85.9739 104.435 86.0358 104.506 86.071 104.59C86.1062 104.675 86.1126 104.768 86.0893 104.857C86.0659 104.945 86.0141 105.024 85.9418 105.08C85.8696 105.136 85.7809 105.167 85.6894 105.167Z" fill="#4D618D"/>
<path d="M178.218 118.009L138.914 104.267C138.175 104.009 137.535 103.527 137.081 102.888C136.628 102.249 136.385 101.485 136.385 100.701V18.3699C136.388 17.7814 136.529 17.2017 136.795 16.6771C137.061 16.1525 137.446 15.6973 137.919 15.3479C138.392 14.9984 138.939 14.7642 139.518 14.664C140.097 14.5637 140.692 14.6002 141.254 14.7705L180.553 26.513C181.332 26.7452 182.015 27.2232 182.5 27.8758C182.986 28.5284 183.248 29.3207 183.248 30.1347V114.443C183.249 115.048 183.105 115.645 182.827 116.182C182.55 116.72 182.148 117.183 181.655 117.532C181.162 117.881 180.593 118.107 179.995 118.19C179.396 118.273 178.787 118.211 178.218 118.009Z" fill="#ECEFF5"/>
<path d="M100.132 111.5C100.132 111.5 91.1021 105.584 88.3957 104.75C85.6893 103.917 81.9403 106.839 81.7406 108.922C81.541 111.005 80.9087 112.677 81.7406 113.716C82.5725 114.754 87.7893 117.967 88 119L100.132 111.5Z" fill="#212026"/>
<path d="M93.8086 112.049C93.7253 112.05 93.6439 112.025 93.5757 111.977C90.9079 110.233 88.1434 108.642 85.2956 107.211C85.1963 107.162 85.1207 107.075 85.0853 106.97C85.05 106.865 85.0578 106.75 85.107 106.65C85.1563 106.551 85.243 106.475 85.3481 106.44C85.4531 106.404 85.5679 106.412 85.6672 106.461C88.5473 107.914 91.3449 109.526 94.0471 111.288C94.1312 111.351 94.1887 111.442 94.2083 111.545C94.2278 111.648 94.2078 111.755 94.1524 111.844C94.1178 111.905 94.068 111.956 94.0077 111.992C93.9474 112.028 93.8788 112.048 93.8086 112.049Z" fill="#5E646D"/>
<path d="M178.628 92.0303C178.518 92.0303 178.412 91.9864 178.334 91.9083C178.256 91.8302 178.212 91.7242 178.212 91.6137L178.035 32.6342C178.044 31.9971 177.852 31.3733 177.487 30.8516C177.121 30.33 176.601 29.9372 175.999 29.7292L142.069 19.0142C141.664 18.8854 141.233 18.8555 140.813 18.927C140.394 18.9985 139.997 19.1693 139.657 19.4253C139.271 19.7164 138.958 20.0942 138.744 20.5283C138.531 20.9625 138.421 21.4408 138.426 21.9248V32.3898C138.426 32.5003 138.382 32.6063 138.304 32.6844C138.226 32.7626 138.12 32.8064 138.01 32.8064C137.899 32.8064 137.794 32.7626 137.716 32.6844C137.638 32.6063 137.594 32.5003 137.594 32.3898V21.9248C137.59 21.3102 137.73 20.7032 138.003 20.1524C138.275 19.6017 138.673 19.1225 139.163 18.7531C139.608 18.4168 140.126 18.1911 140.674 18.0945C141.223 17.9979 141.787 18.0333 142.319 18.1977L176.249 28.9071C177.023 29.1633 177.695 29.6614 178.166 30.3282C178.637 30.9949 178.883 31.7954 178.867 32.612L179.044 91.5915C179.044 91.701 179.001 91.8061 178.924 91.8841C178.847 91.9621 178.743 92.0066 178.634 92.0081L178.628 92.0303Z" fill="#8598BE"/>
<path d="M176.57 114.049C175.731 114.01 174.909 113.794 174.158 113.416L140.062 102.018C139.33 101.731 138.702 101.229 138.262 100.577C137.821 99.9253 137.588 99.1551 137.594 98.3681C137.594 98.2576 137.638 98.1517 137.716 98.0736C137.794 97.9954 137.899 97.9515 138.01 97.9515C138.12 97.9515 138.226 97.9954 138.304 98.0736C138.382 98.1517 138.426 98.2576 138.426 98.3681C138.415 98.9835 138.592 99.5874 138.933 100.1C139.274 100.612 139.762 101.007 140.333 101.234L174.463 112.644C175.872 113.282 176.87 113.388 177.469 112.971C178.068 112.555 178.362 111.444 178.251 109.811L178.223 100.162C178.223 100.053 178.266 99.9476 178.343 99.8697C178.42 99.7917 178.524 99.7472 178.634 99.7457C178.743 99.7471 178.848 99.7915 178.926 99.8693C179.004 99.9471 179.048 100.052 179.049 100.162V109.783C179.188 111.722 178.805 113.032 177.94 113.671C177.534 113.938 177.055 114.07 176.57 114.049Z" fill="#8598BE"/>
<path d="M156.372 87.8587C162.869 87.8587 168.135 78.4283 168.135 66.7954C168.135 55.1625 162.869 45.7321 156.372 45.7321C149.876 45.7321 144.609 55.1625 144.609 66.7954C144.609 78.4283 149.876 87.8587 156.372 87.8587Z" fill="#FDC652"/>
<path d="M155.579 84.8592C150.122 84.8592 145.68 76.7606 145.68 66.801C145.68 56.8415 150.117 48.7372 155.579 48.7372C161.042 48.7372 165.484 56.8415 165.484 66.801C165.484 76.7606 161.042 84.8592 155.579 84.8592ZM155.579 49.5704C150.588 49.5704 146.512 57.297 146.512 66.7899C146.512 76.2828 150.577 84.0094 155.579 84.0094C160.582 84.0094 164.652 76.2828 164.652 66.7899C164.652 57.297 160.582 49.5704 155.579 49.5704Z" fill="#FCA200"/>
<path d="M158.744 104.23C159.752 103.673 159.949 102.097 159.185 100.712C158.421 99.3261 156.984 98.6551 155.976 99.2129C154.968 99.7707 154.77 101.346 155.534 102.732C156.299 104.117 157.735 104.788 158.744 104.23Z" fill="#BDC7DC"/>
<path d="M157.21 103.556C157.099 103.556 156.993 103.512 156.915 103.434C156.837 103.356 156.794 103.25 156.794 103.14V100.312C156.794 100.202 156.837 100.096 156.915 100.018C156.993 99.9396 157.099 99.8958 157.21 99.8958C157.32 99.8958 157.426 99.9396 157.504 100.018C157.582 100.096 157.626 100.202 157.626 100.312V103.129C157.626 103.184 157.616 103.239 157.596 103.291C157.575 103.342 157.545 103.389 157.506 103.429C157.467 103.468 157.421 103.5 157.371 103.522C157.32 103.544 157.265 103.556 157.21 103.556Z" fill="#8598BE"/>
<path d="M158.119 102.429C158.079 102.434 158.038 102.434 157.997 102.429L156.173 101.873C156.117 101.86 156.064 101.836 156.019 101.802C155.973 101.768 155.934 101.725 155.906 101.675C155.877 101.626 155.859 101.571 155.853 101.514C155.846 101.457 155.852 101.399 155.869 101.345C155.885 101.29 155.913 101.239 155.95 101.196C155.988 101.153 156.033 101.117 156.085 101.092C156.136 101.067 156.192 101.053 156.249 101.051C156.306 101.049 156.363 101.058 156.417 101.079L158.241 101.634C158.334 101.666 158.412 101.729 158.463 101.812C158.514 101.896 158.533 101.994 158.519 102.091C158.504 102.188 158.456 102.276 158.383 102.341C158.31 102.406 158.217 102.443 158.119 102.445V102.429Z" fill="#8598BE"/>
<path d="M158.702 33.1924C159.741 32.646 159.999 31.0891 159.278 29.7148C158.557 28.3406 157.131 27.6694 156.093 28.2157C155.054 28.7621 154.796 30.3191 155.517 31.6933C156.238 33.0676 157.664 33.7387 158.702 33.1924Z" fill="#BDC7DC"/>
<path d="M87.5638 119.137C87.4845 119.136 87.4071 119.113 87.3407 119.069C87.2743 119.026 87.2217 118.964 87.1891 118.892C87.1564 118.82 87.1451 118.739 87.1565 118.661C87.1679 118.582 87.2014 118.509 87.2533 118.448C89.9537 115.693 93.2548 113.602 96.8976 112.338C96.9501 112.315 97.0068 112.304 97.0641 112.304C97.1214 112.304 97.178 112.317 97.2302 112.34C97.2825 112.364 97.3292 112.398 97.3675 112.441C97.4057 112.483 97.4346 112.534 97.4522 112.588C97.4742 112.641 97.485 112.698 97.4839 112.756C97.4828 112.813 97.4698 112.87 97.4458 112.922C97.4218 112.974 97.3874 113.021 97.3446 113.059C97.3018 113.097 97.2516 113.126 97.1971 113.144C93.6958 114.379 90.517 116.387 87.8966 119.021C87.8535 119.064 87.8012 119.097 87.7435 119.117C87.6859 119.137 87.6245 119.144 87.5638 119.137Z" fill="#5E646D"/>
<path d="M157.21 32.451C157.155 32.4517 157.1 32.4415 157.05 32.4208C156.999 32.4001 156.953 32.3695 156.914 32.3306C156.875 32.2918 156.845 32.2456 156.824 32.1947C156.803 32.1438 156.793 32.0893 156.794 32.0344V29.2126C156.794 29.1021 156.838 28.9962 156.916 28.918C156.994 28.8399 157.099 28.796 157.21 28.796C157.32 28.796 157.426 28.8399 157.504 28.918C157.582 28.9962 157.626 29.1021 157.626 29.2126V32.0233C157.627 32.0789 157.617 32.1343 157.597 32.1861C157.577 32.238 157.547 32.2852 157.508 32.3251C157.469 32.3649 157.423 32.3966 157.371 32.4182C157.32 32.4399 157.265 32.451 157.21 32.451Z" fill="#8598BE"/>
<path d="M158.119 31.2844C158.084 31.2899 158.049 31.2899 158.014 31.2844L156.189 30.8012C156.135 30.789 156.083 30.7659 156.038 30.7333C155.992 30.7007 155.954 30.6593 155.925 30.6115C155.895 30.5637 155.876 30.5105 155.868 30.455C155.86 30.3996 155.863 30.3431 155.877 30.289C155.892 30.2348 155.916 30.184 155.951 30.1397C155.985 30.0954 156.028 30.0585 156.076 30.0311C156.125 30.0037 156.179 29.9865 156.235 29.9804C156.29 29.9743 156.347 29.9796 156.4 29.9958L158.225 30.479C158.32 30.5067 158.402 30.5677 158.457 30.6509C158.511 30.734 158.534 30.8339 158.521 30.9325C158.508 31.0311 158.461 31.1219 158.387 31.1885C158.314 31.255 158.218 31.293 158.119 31.2956V31.2844Z" fill="#8598BE"/>
<path d="M150.455 71.4336C151.413 71.4336 152.191 69.2874 152.191 66.6399C152.191 63.9925 151.413 61.8463 150.455 61.8463C149.496 61.8463 148.719 63.9925 148.719 66.6399C148.719 69.2874 149.496 71.4336 150.455 71.4336Z" fill="#9E4E0C"/>
<path d="M159.794 73.2778C160.78 73.2778 161.58 71.0868 161.58 68.3841C161.58 65.6814 160.78 63.4905 159.794 63.4905C158.808 63.4905 158.008 65.6814 158.008 68.3841C158.008 71.0868 158.808 73.2778 159.794 73.2778Z" fill="#9E4E0C"/>
</svg>
