<svg width="20" height="12" viewBox="0 0 20 12" fill="none" xmlns="http://www.w3.org/2000/svg">
<path d="M10 8.60864L17.35 1.25864C17.6 1.00864 17.896 0.887636 18.238 0.895636C18.58 0.903636 18.8757 1.03297 19.125 1.28364C19.3743 1.5343 19.4993 1.8303 19.5 2.17164C19.5007 2.51297 19.3757 2.80864 19.125 3.05864L11.425 10.7336C11.225 10.9336 11 11.0836 10.75 11.1836C10.5 11.2836 10.25 11.3336 10 11.3336C9.75 11.3336 9.5 11.2836 9.25 11.1836C9 11.0836 8.775 10.9336 8.575 10.7336L0.874998 3.03363C0.624998 2.78363 0.503998 2.49197 0.511997 2.15863C0.519997 1.8253 0.64933 1.53363 0.899998 1.28363C1.15067 1.03363 1.44666 0.908635 1.788 0.908635C2.12933 0.908635 2.425 1.03364 2.675 1.28364L10 8.60864Z" fill="#004620"/>
</svg>
