<svg width="25" height="24" viewBox="0 0 25 24" fill="none" xmlns="http://www.w3.org/2000/svg">
<path d="M14.2857 0C8.36905 0 3.57143 5.37333 3.57143 12H0L4.63095 17.1867L4.71429 17.3733L9.52381 12H5.95238C5.95238 6.84 9.67857 2.66667 14.2857 2.66667C18.8929 2.66667 22.619 6.84 22.619 12C22.619 17.16 18.8929 21.3333 14.2857 21.3333C11.9881 21.3333 9.90476 20.28 8.40476 18.5867L6.71429 20.48C8.65476 22.6533 11.3214 24 14.2857 24C20.2024 24 25 18.6267 25 12C25 5.37333 20.2024 0 14.2857 0ZM13.0952 6.66667V13.3333L18.1905 16.72L19.0476 15.1067L14.881 12.3333V6.66667H13.0952Z" fill="#0F8143"/>
</svg>
