<svg width="256" height="164" viewBox="0 0 256 164" fill="none" xmlns="http://www.w3.org/2000/svg">
<g clip-path="url(#clip0_865_1993)">
<path d="M161.687 24.0404C234.026 25.7614 254.81 105.964 255.745 145.667L256 156H-3.05176e-05C-3.05176e-05 156 1.43333 103.46 27.8067 82.363C54.1801 61.2657 78.0856 76.1984 78.0856 76.1984C78.0856 76.1984 89.3529 22.3193 161.687 24.0404Z" fill="#DDEFFD"/>
<path d="M125.806 90.4935L126.189 89.0146C127.121 85.4178 129.441 82.3377 132.637 80.4519C135.834 78.5662 139.645 78.0293 143.234 78.9593L193.574 92.0063C197.164 92.9367 200.067 95.2586 201.946 98.4611C204.196 102.295 204.193 106.299 203.117 110.452C202.184 114.049 199.958 117.239 196.762 119.124C193.565 121.01 189.754 121.547 186.165 120.617L135.85 107.577C134.07 107.119 132.397 106.313 130.928 105.207C129.46 104.1 128.223 102.713 127.29 101.127C126.357 99.5398 125.746 97.784 125.491 95.9595C125.236 94.1349 125.343 92.2775 125.806 90.4935Z" fill="#EE8387"/>
<path d="M133.915 59.0792C133.915 59.0792 130.066 73.1088 134.565 86.4687C139.063 99.8287 115.328 84.8824 115.328 84.8824L125.755 59.7293L133.915 59.0792Z" fill="#FDC652"/>
<path d="M120.899 7.12157C120.899 7.12157 118.864 -2.38317 102.351 0.568371C85.8381 3.51992 83.5691 24.3368 81.7553 39.2765C79.9414 54.2163 74.0579 81.5994 70.6643 87.2554C67.2706 92.9115 100.089 97.6573 106.2 96.084C112.311 94.5107 112.766 55.7766 112.994 43.5738C113.221 31.3711 120.899 7.12157 120.899 7.12157Z" fill="#FDC652"/>
<path d="M110.244 5.72386C110.244 5.72386 107.851 3.15588 102.442 6.95908C97.0331 10.7623 94.3286 16.5159 94.2051 21.1317C94.0816 25.7476 97.4557 28.8291 98.2683 28.6991C99.081 28.5691 110.244 5.72386 110.244 5.72386Z" fill="#E54062"/>
<path d="M145.225 96.5914C145.225 96.5914 150.465 109.126 147.884 117.213C137.254 150.506 139.081 144.479 137.976 151.767L77.9504 153.639C77.9504 153.639 76 121.374 76 105.413C76 89.453 145.225 96.5914 145.225 96.5914Z" fill="#E54062"/>
<path d="M128.5 61C128.5 61 125.543 68.4601 124.695 73.6678C124.695 73.6678 99.538 72.0105 103.03 69C106.523 65.9895 112.214 45.8037 112.214 45.8037L128.5 61Z" fill="#EE8387"/>
<path d="M124.969 72.1856C124.969 72.1856 110.829 71.2299 105.225 66.6466C105.225 66.6466 101.168 71.49 92.2808 72.4196C76.5283 74.0645 65.6258 74.37 62.9343 89.1277C62.9343 89.1277 65.6453 104.08 70.3977 111.537L88.7571 115.705L146.221 110.179L148.555 110.322C148.555 110.322 146.904 79.9805 146.234 79.7335C135.104 75.5597 126.139 80.5786 124.969 72.1856Z" fill="#E54062"/>
<path d="M142.828 108.638C142.992 106.401 143.157 104.169 143.322 101.942C143.367 101.292 142.34 101.292 142.288 101.942L141.8 108.638C141.748 109.301 142.782 109.294 142.828 108.638Z" fill="#F68DB7"/>
<path d="M135.41 103.482C134.047 104.899 132.519 106.147 130.859 107.201C130.3 107.559 130.82 108.449 131.379 108.092C133.12 106.985 134.724 105.675 136.157 104.191C136.6 103.736 135.871 103.008 135.41 103.482Z" fill="#F68DB7"/>
<path d="M122.765 117.59C122.699 117.57 122.629 117.564 122.561 117.571C122.492 117.578 122.425 117.599 122.365 117.632C122.304 117.666 122.251 117.711 122.208 117.765C122.165 117.819 122.134 117.881 122.115 117.948C122.096 118.014 122.09 118.084 122.099 118.153C122.107 118.221 122.128 118.288 122.162 118.348C122.196 118.408 122.241 118.462 122.296 118.504C122.35 118.547 122.412 118.579 122.479 118.598C124.379 119.371 126.192 120.343 127.888 121.497C128.434 121.868 128.948 120.977 128.408 120.607C126.64 119.403 124.748 118.391 122.765 117.59Z" fill="#F68DB7"/>
<path d="M118.52 123.968L113.429 127.381C112.883 127.745 113.429 128.636 113.949 128.265L119.04 124.852C119.586 124.488 119.072 123.597 118.52 123.968Z" fill="#F68DB7"/>
<path d="M135.988 113.189C135.866 113.144 135.73 113.148 135.61 113.198C135.49 113.249 135.393 113.343 135.338 113.462C134.774 115.143 134.056 116.769 133.193 118.318C133.146 118.44 133.148 118.575 133.198 118.696C133.247 118.817 133.341 118.914 133.459 118.968C133.581 119.013 133.716 119.011 133.836 118.961C133.957 118.912 134.054 118.819 134.11 118.702C134.974 117.15 135.695 115.522 136.261 113.839C136.303 113.716 136.298 113.582 136.248 113.462C136.197 113.342 136.105 113.245 135.988 113.189Z" fill="#F68DB7"/>
<path d="M132.907 125.964C132.772 125.968 132.644 126.024 132.549 126.119C132.454 126.215 132.398 126.342 132.393 126.477C132.393 126.724 132.634 127.03 132.907 126.991C134.043 126.837 135.197 126.877 136.32 127.108C136.454 127.146 136.597 127.13 136.719 127.063C136.84 126.996 136.931 126.884 136.97 126.75C136.99 126.684 136.996 126.614 136.988 126.545C136.981 126.476 136.959 126.409 136.925 126.348C136.891 126.288 136.846 126.235 136.791 126.192C136.736 126.149 136.673 126.118 136.606 126.1C135.39 125.842 134.139 125.796 132.907 125.964Z" fill="#F68DB7"/>
<path d="M148.224 116.595C148.224 116.407 148.289 116.218 148.315 116.03C148.243 116.103 148.196 116.197 148.18 116.298C148.164 116.399 148.179 116.503 148.224 116.595Z" fill="#F68DB7"/>
<path d="M139.278 117.402C139.258 117.468 139.252 117.537 139.259 117.606C139.266 117.674 139.287 117.741 139.321 117.802C139.354 117.862 139.399 117.915 139.453 117.958C139.507 118.001 139.569 118.033 139.636 118.052C141.534 118.824 143.351 119.784 145.058 120.919C145.61 121.289 146.124 120.399 145.571 120.035C143.788 118.855 141.891 117.858 139.909 117.057C139.779 117.022 139.642 117.039 139.524 117.103C139.407 117.167 139.319 117.274 139.278 117.402Z" fill="#F68DB7"/>
<path d="M119.781 102.254L113.832 106.551C113.718 106.622 113.635 106.735 113.601 106.866C113.567 106.996 113.585 107.135 113.65 107.253C113.72 107.369 113.833 107.453 113.964 107.487C114.095 107.521 114.235 107.502 114.352 107.435L120.301 103.144C120.416 103.072 120.499 102.958 120.533 102.826C120.567 102.694 120.549 102.555 120.483 102.436C120.413 102.32 120.3 102.236 120.169 102.202C120.038 102.168 119.899 102.187 119.781 102.254Z" fill="#F68DB7"/>
<path d="M111.875 101.831L109.275 100.108C109.157 100.039 109.016 100.02 108.884 100.055C108.752 100.09 108.638 100.175 108.569 100.294C108.501 100.412 108.481 100.552 108.516 100.685C108.551 100.817 108.637 100.93 108.755 100.999L111.355 102.722C111.473 102.791 111.614 102.81 111.746 102.775C111.879 102.74 111.992 102.655 112.061 102.536C112.13 102.418 112.149 102.278 112.114 102.145C112.079 102.013 111.994 101.9 111.875 101.831Z" fill="#F68DB7"/>
<path d="M109.171 112.604C109.039 112.567 108.898 112.585 108.779 112.653C108.66 112.72 108.573 112.832 108.537 112.964C108.501 113.096 108.519 113.237 108.586 113.356C108.654 113.475 108.766 113.562 108.898 113.598C109.063 113.636 109.226 113.684 109.385 113.741L109.516 113.793L109.743 113.904C109.896 113.98 110.044 114.067 110.185 114.164L110.4 114.313L110.51 114.404C110.64 114.515 110.764 114.632 110.881 114.755L111.037 114.931L111.128 115.035C111.327 115.314 111.497 115.612 111.635 115.926C111.704 116.043 111.817 116.128 111.948 116.162C112.08 116.196 112.22 116.176 112.337 116.108C112.451 116.036 112.535 115.924 112.57 115.794C112.605 115.663 112.589 115.525 112.526 115.406C112.208 114.72 111.743 114.113 111.162 113.628C110.582 113.144 109.902 112.794 109.171 112.604Z" fill="#F68DB7"/>
<path d="M125.346 110.088L118.396 113.91C118.286 113.989 118.21 114.107 118.184 114.241C118.159 114.374 118.186 114.512 118.26 114.626C118.339 114.735 118.457 114.81 118.59 114.835C118.723 114.86 118.86 114.834 118.975 114.762L125.931 110.939C125.987 110.901 126.034 110.852 126.071 110.795C126.107 110.739 126.132 110.675 126.144 110.609C126.156 110.542 126.155 110.474 126.141 110.408C126.127 110.342 126.1 110.28 126.061 110.224C125.982 110.114 125.864 110.038 125.731 110.012C125.598 109.987 125.46 110.014 125.346 110.088Z" fill="#F68DB7"/>
<path d="M108.241 124.982L109.314 131.88C109.332 131.947 109.363 132.009 109.406 132.064C109.449 132.118 109.502 132.164 109.563 132.197C109.623 132.231 109.69 132.251 109.759 132.258C109.828 132.265 109.898 132.258 109.964 132.237C110.031 132.219 110.094 132.188 110.149 132.145C110.204 132.103 110.249 132.05 110.283 131.989C110.317 131.928 110.339 131.862 110.346 131.793C110.354 131.724 110.348 131.654 110.328 131.587L109.236 124.741C109.217 124.675 109.186 124.613 109.143 124.559C109.1 124.505 109.046 124.46 108.986 124.426C108.925 124.393 108.859 124.372 108.79 124.365C108.721 124.357 108.652 124.364 108.586 124.384C108.467 124.426 108.367 124.51 108.304 124.62C108.241 124.729 108.218 124.858 108.241 124.982Z" fill="#F68DB7"/>
<path d="M143.634 129.942C143.739 129.857 143.807 129.733 143.823 129.599C143.839 129.464 143.801 129.328 143.718 129.221C142.992 128.196 142.102 127.298 141.085 126.562C140.974 126.483 140.837 126.451 140.702 126.472C140.568 126.492 140.446 126.564 140.364 126.672C140.285 126.783 140.253 126.921 140.274 127.055C140.294 127.19 140.366 127.311 140.474 127.394C141.415 128.077 142.239 128.909 142.912 129.858C142.954 129.911 143.006 129.955 143.065 129.988C143.124 130.021 143.188 130.042 143.255 130.05C143.322 130.057 143.39 130.052 143.455 130.034C143.52 130.015 143.581 129.984 143.634 129.942Z" fill="#F68DB7"/>
<path d="M124.546 128.102C126.767 129.201 128.853 130.554 130.761 132.133C131.268 132.549 131.997 131.828 131.49 131.405C129.517 129.764 127.362 128.357 125.066 127.212C124.455 126.919 123.955 127.803 124.546 128.102Z" fill="#F68DB7"/>
<path d="M139.076 132.66C139.226 132.198 139.128 131.815 138.738 131.938C138.505 132.036 138.294 132.181 138.119 132.365C137.945 132.548 137.81 132.766 137.724 133.004C137.152 134.786 136.584 136.567 136.021 138.348C135.871 138.803 135.969 139.193 136.359 139.07C136.592 138.971 136.802 138.826 136.977 138.642C137.151 138.459 137.286 138.242 137.373 138.004C137.939 136.222 138.511 134.441 139.076 132.66Z" fill="#F68DB7"/>
<path d="M120.554 97.2087C120.69 97.2141 120.823 97.1661 120.924 97.0749C121.025 96.9838 121.086 96.8568 121.094 96.7212C121.099 96.6059 121.062 96.4929 120.99 96.4026C119.807 96.4026 118.611 96.3441 117.395 96.3246C118.405 96.7556 119.467 97.0529 120.554 97.2087Z" fill="#F68DB7"/>
<path d="M128.2 102.059C128.777 100.336 129.099 98.5374 129.156 96.7211L128.128 96.6691C128.072 98.4105 127.761 100.134 127.205 101.786C126.997 102.416 127.992 102.689 128.2 102.059Z" fill="#F68DB7"/>
<path d="M138.296 149.894C138.355 149.459 138.413 149.056 138.498 148.594C137.37 147.427 136.305 146.201 135.306 144.921C135.209 144.826 135.078 144.772 134.942 144.772C134.806 144.772 134.675 144.826 134.578 144.921C134.485 145.02 134.434 145.15 134.434 145.285C134.434 145.42 134.485 145.55 134.578 145.649C135.731 147.138 136.972 148.556 138.296 149.894Z" fill="#F68DB7"/>
<path d="M101.76 117.44C101.721 117.574 101.737 117.717 101.804 117.839C101.871 117.961 101.984 118.051 102.117 118.091C103.975 118.38 105.797 118.866 107.552 119.54C107.618 119.56 107.688 119.567 107.756 119.559C107.825 119.552 107.892 119.531 107.952 119.498C108.013 119.465 108.066 119.42 108.109 119.365C108.152 119.311 108.184 119.249 108.202 119.183C108.241 119.049 108.224 118.906 108.157 118.784C108.09 118.662 107.978 118.572 107.845 118.533C106.08 117.862 104.25 117.378 102.384 117.089C102.255 117.058 102.119 117.077 102.003 117.143C101.887 117.208 101.8 117.314 101.76 117.44Z" fill="#F68DB7"/>
<path d="M93.3275 106.98C93.2601 107.099 93.2414 107.239 93.2754 107.371C93.3093 107.503 93.3933 107.617 93.5095 107.689C95.1606 108.481 96.7417 109.412 98.2359 110.471C98.354 110.539 98.4943 110.558 98.626 110.522C98.7577 110.487 98.8699 110.401 98.938 110.283C99.0061 110.165 99.0246 110.024 98.9892 109.893C98.9539 109.761 98.8676 109.649 98.7495 109.581C97.2544 108.526 95.6758 107.596 94.0296 106.798C93.9119 106.731 93.7727 106.713 93.6416 106.747C93.5105 106.78 93.3978 106.864 93.3275 106.98Z" fill="#F68DB7"/>
<path d="M105.355 125.242C104.48 126.346 103.401 127.271 102.176 127.966C102.06 128.024 101.969 128.121 101.92 128.241C101.871 128.36 101.867 128.494 101.909 128.616C101.963 128.735 102.06 128.829 102.181 128.88C102.301 128.93 102.436 128.934 102.559 128.889C103.945 128.111 105.166 127.071 106.154 125.827C106.59 125.333 105.764 124.741 105.355 125.242Z" fill="#F68DB7"/>
<path d="M99.38 115.334C99.3393 115.202 99.2487 115.09 99.1274 115.024C99.006 114.957 98.8635 114.94 98.7299 114.977C97.0851 115.204 95.4793 115.516 93.828 115.906C93.1779 116.062 93.4574 117.057 94.1011 116.901C95.7199 116.511 97.3516 116.199 99.0029 115.965C99.0695 115.949 99.1323 115.92 99.1874 115.879C99.2426 115.839 99.2891 115.788 99.3242 115.729C99.3594 115.67 99.3824 115.605 99.3919 115.537C99.4015 115.469 99.3975 115.4 99.38 115.334Z" fill="#F68DB7"/>
<path d="M84.5833 117.401C84.5635 117.468 84.557 117.537 84.5643 117.606C84.5716 117.674 84.5925 117.741 84.6258 117.802C84.6591 117.862 84.7041 117.915 84.7582 117.958C84.8123 118.001 84.8744 118.033 84.9409 118.052C86.838 118.822 88.6525 119.783 90.3564 120.919C90.9155 121.289 91.4291 120.399 90.8765 120.034C89.0932 118.855 87.1962 117.858 85.2139 117.057C85.0847 117.02 84.9462 117.036 84.8283 117.101C84.7104 117.165 84.6225 117.273 84.5833 117.401Z" fill="#F68DB7"/>
<path d="M95.1283 127.647C95.5363 126.547 96.1871 125.553 97.0324 124.739C97.8778 123.925 98.8958 123.313 100.011 122.947C100.661 122.739 100.225 121.796 99.6012 122.004C98.3602 122.424 97.2285 123.115 96.2883 124.027C95.3481 124.939 94.6231 126.049 94.1662 127.277C94.117 127.404 94.1206 127.546 94.176 127.671C94.2315 127.796 94.3344 127.894 94.462 127.943C94.5896 127.992 94.7314 127.989 94.8564 127.933C94.9814 127.878 95.0792 127.775 95.1283 127.647Z" fill="#F68DB7"/>
<path d="M86.3906 126.588C86.2794 126.509 86.1421 126.477 86.0076 126.498C85.873 126.518 85.7517 126.59 85.669 126.698C85.5906 126.809 85.5583 126.947 85.5789 127.081C85.5996 127.216 85.6715 127.337 85.7796 127.42C86.7208 128.103 87.5443 128.935 88.2175 129.884C88.2593 129.937 88.3111 129.981 88.3701 130.014C88.429 130.047 88.4938 130.068 88.5608 130.076C88.6279 130.083 88.6957 130.078 88.7607 130.06C88.8256 130.041 88.8862 130.01 88.9391 129.968C89.0432 129.882 89.1101 129.759 89.1258 129.624C89.1415 129.49 89.105 129.355 89.0237 129.247C88.2972 128.222 87.4077 127.324 86.3906 126.588Z" fill="#F68DB7"/>
<path d="M147.125 92.2353C147.085 92.1018 146.995 91.9889 146.874 91.9209C146.752 91.8528 146.609 91.835 146.475 91.8713L141.54 92.8269C141.473 92.8449 141.41 92.8762 141.356 92.9188C141.301 92.9614 141.255 93.0146 141.221 93.0752C141.187 93.1358 141.166 93.2026 141.158 93.2716C141.15 93.3406 141.156 93.4105 141.176 93.4771C141.217 93.6094 141.308 93.7208 141.429 93.7875C141.55 93.8543 141.693 93.8712 141.826 93.8347L146.761 92.8855C146.827 92.8667 146.89 92.835 146.944 92.7922C146.998 92.7493 147.044 92.6963 147.077 92.6359C147.111 92.5755 147.133 92.509 147.141 92.4403C147.149 92.3716 147.144 92.3019 147.125 92.2353Z" fill="#F68DB7"/>
<path d="M134.903 95.5639C134.131 94.2675 133.246 93.0425 132.257 91.9037C132.16 91.8072 132.029 91.753 131.893 91.753C131.756 91.753 131.625 91.8072 131.529 91.9037C131.432 92.0003 131.378 92.1313 131.378 92.2678C131.378 92.4044 131.432 92.5353 131.529 92.6319C132.455 93.706 133.286 94.8589 134.012 96.0775C134.08 96.1956 134.192 96.2819 134.324 96.3172C134.456 96.3526 134.596 96.3342 134.714 96.2661C134.832 96.198 134.919 96.0857 134.954 95.954C134.989 95.8223 134.971 95.682 134.903 95.5639Z" fill="#F68DB7"/>
<path d="M142.288 101.942L141.8 108.638C141.748 109.288 142.782 109.288 142.828 108.638C142.992 106.401 143.157 104.169 143.322 101.942C143.367 101.278 142.34 101.278 142.288 101.942Z" fill="#F68DB7"/>
<path d="M148.211 107.689L148.412 107.793C148.412 107.468 148.373 107.143 148.354 106.746C148.285 106.76 148.221 106.788 148.163 106.828C148.106 106.869 148.058 106.92 148.022 106.98C147.955 107.099 147.938 107.24 147.973 107.373C148.008 107.505 148.093 107.618 148.211 107.689Z" fill="#F68DB7"/>
<path d="M131.36 108.092C133.101 106.985 134.705 105.675 136.138 104.191C136.6 103.716 135.871 102.988 135.41 103.463C134.047 104.879 132.519 106.128 130.859 107.182C130.306 107.559 130.8 108.449 131.36 108.092Z" fill="#F68DB7"/>
<path d="M140.058 87.73C140.546 88.1721 141.274 87.4504 140.786 87.0019C138.786 85.1834 136.943 83.1976 135.28 81.0663C135.232 81.0183 135.175 80.9803 135.113 80.9543C135.05 80.9283 134.983 80.9149 134.916 80.9149C134.848 80.9149 134.781 80.9283 134.719 80.9543C134.656 80.9803 134.599 81.0183 134.552 81.0663C134.459 81.165 134.408 81.2951 134.408 81.4303C134.408 81.5655 134.459 81.6956 134.552 81.7944C136.215 83.9258 138.057 85.9115 140.058 87.73Z" fill="#F68DB7"/>
<path d="M130.189 86.3453C130.119 86.2296 130.007 86.1455 129.876 86.1104C129.745 86.0753 129.606 86.0919 129.487 86.1567C127.871 86.8589 126.287 87.6346 124.735 88.4841C124.156 88.8027 124.676 89.6869 125.255 89.3683C126.802 88.5015 128.386 87.7279 130.007 87.0474C130.124 86.9783 130.209 86.8656 130.243 86.734C130.278 86.6023 130.258 86.4625 130.189 86.3453Z" fill="#F68DB7"/>
<path d="M120.327 83.7837C117.509 84.7667 114.606 85.4849 111.654 85.9291C111.004 86.0461 111.277 87.0343 111.927 86.9238C114.879 86.4804 117.782 85.7621 120.6 84.7784C121.205 84.5444 120.945 83.5497 120.327 83.7837Z" fill="#F68DB7"/>
<path d="M113.735 78.2642C113.805 78.3802 113.918 78.4638 114.05 78.4967C114.181 78.5296 114.32 78.5091 114.437 78.4398C114.552 78.3672 114.635 78.2529 114.667 78.1208C114.7 77.9887 114.68 77.849 114.612 77.7311C113.765 75.913 112.578 74.2735 111.115 72.9007C111.016 72.8068 110.883 72.756 110.747 72.7597C110.61 72.7633 110.481 72.8211 110.387 72.9202C110.293 73.0194 110.242 73.1518 110.246 73.2883C110.249 73.4249 110.307 73.5544 110.406 73.6484C111.8 74.9608 112.929 76.5275 113.735 78.2642Z" fill="#F68DB7"/>
<path d="M114.352 107.435L120.301 103.144C120.416 103.072 120.499 102.958 120.533 102.826C120.567 102.694 120.549 102.555 120.483 102.436C120.413 102.32 120.3 102.236 120.169 102.202C120.038 102.168 119.899 102.187 119.781 102.254L113.832 106.551C113.718 106.622 113.635 106.735 113.601 106.866C113.567 106.996 113.585 107.135 113.65 107.253C113.72 107.369 113.833 107.453 113.964 107.487C114.095 107.521 114.235 107.502 114.352 107.435Z" fill="#F68DB7"/>
<path d="M108.755 100.999L111.355 102.722C111.473 102.791 111.614 102.81 111.746 102.775C111.879 102.74 111.992 102.655 112.061 102.536C112.13 102.418 112.149 102.278 112.114 102.145C112.079 102.013 111.994 101.9 111.875 101.831L109.275 100.108C109.157 100.039 109.016 100.02 108.884 100.055C108.752 100.09 108.638 100.175 108.569 100.294C108.501 100.412 108.481 100.552 108.516 100.685C108.551 100.817 108.637 100.93 108.755 100.999Z" fill="#F68DB7"/>
<path d="M108.54 112.961C108.502 113.095 108.518 113.238 108.585 113.36C108.652 113.482 108.765 113.572 108.898 113.611C109.046 113.645 109.191 113.688 109.333 113.741L111.102 113.572C110.528 113.117 109.863 112.791 109.151 112.617C109.025 112.587 108.892 112.607 108.779 112.67C108.666 112.734 108.581 112.838 108.54 112.961Z" fill="#F68DB7"/>
<path d="M126.061 110.224C125.982 110.114 125.864 110.038 125.731 110.012C125.598 109.987 125.46 110.014 125.346 110.088L120.724 112.63L123.324 112.383L125.924 110.939C125.981 110.901 126.029 110.853 126.066 110.796C126.103 110.74 126.129 110.677 126.141 110.61C126.154 110.544 126.153 110.475 126.14 110.409C126.126 110.343 126.099 110.28 126.061 110.224Z" fill="#F68DB7"/>
<path d="M121.107 96.7212C121.111 96.5858 121.062 96.4541 120.971 96.3536C120.881 96.2532 120.755 96.1915 120.619 96.1816C118.613 95.8818 116.723 95.0514 115.146 93.7761C115.031 93.7011 114.891 93.6747 114.757 93.7028C114.623 93.7308 114.505 93.811 114.43 93.9256C114.355 94.0403 114.329 94.1801 114.357 94.3142C114.385 94.4483 114.465 94.5658 114.58 94.6408C116.313 96.0128 118.379 96.8991 120.568 97.2088C120.703 97.2141 120.836 97.1661 120.937 97.075C121.038 96.9838 121.099 96.8568 121.107 96.7212Z" fill="#F68DB7"/>
<path d="M128.2 102.059C128.937 99.8661 129.258 97.5557 129.149 95.2453C129.149 94.5952 128.089 94.5952 128.122 95.2453C128.228 97.4636 127.917 99.6821 127.205 101.786C126.997 102.416 127.992 102.689 128.2 102.059Z" fill="#F68DB7"/>
<path d="M125.105 75.9108C125.45 76.5609 125.756 77.2111 126.055 77.8612C126.568 78.9729 127.036 80.1106 127.511 81.2353C127.552 81.3679 127.642 81.4797 127.763 81.5475C127.884 81.6153 128.027 81.6339 128.161 81.5994C128.228 81.5807 128.29 81.5489 128.344 81.506C128.398 81.4631 128.443 81.4098 128.476 81.3493C128.509 81.2887 128.53 81.2222 128.538 81.1535C128.545 81.0848 128.538 81.0154 128.519 80.9492C128.005 79.74 127.504 78.5243 126.958 77.3281C126.646 76.6454 126.308 75.9758 125.97 75.3192C125.728 74.8193 125.417 74.3555 125.047 73.9409C124.585 73.4598 123.857 74.188 124.319 74.6626C124.631 75.0448 124.895 75.464 125.105 75.9108Z" fill="#F68DB7"/>
<path d="M93.5095 107.689C95.1606 108.481 96.7417 109.412 98.2359 110.471C98.354 110.539 98.4943 110.558 98.626 110.522C98.7577 110.487 98.8699 110.401 98.938 110.283C99.0061 110.165 99.0246 110.024 98.9892 109.893C98.9539 109.761 98.8676 109.649 98.7495 109.581C97.2544 108.526 95.6758 107.596 94.0296 106.798C93.9119 106.731 93.7727 106.713 93.6416 106.747C93.5105 106.78 93.3978 106.864 93.3275 106.98C93.2601 107.099 93.2414 107.239 93.2754 107.371C93.3093 107.503 93.3933 107.617 93.5095 107.689Z" fill="#F68DB7"/>
<path d="M111.758 82.9126C111.881 82.9729 112.022 82.9822 112.152 82.9383C112.281 82.8944 112.387 82.8009 112.448 82.6785C112.508 82.5561 112.517 82.4147 112.473 82.2855C112.429 82.1563 112.336 82.0497 112.214 81.9894C110.495 81.1083 108.685 80.4152 106.818 79.922C106.751 79.9088 106.683 79.9087 106.617 79.9218C106.551 79.9349 106.488 79.9609 106.432 79.9983C106.376 80.0358 106.327 80.0839 106.29 80.1399C106.252 80.196 106.226 80.2589 106.213 80.3251C106.2 80.3913 106.2 80.4594 106.213 80.5256C106.226 80.5918 106.252 80.6547 106.289 80.7109C106.327 80.767 106.375 80.8153 106.431 80.8528C106.487 80.8903 106.55 80.9165 106.616 80.9297C108.396 81.4063 110.12 82.071 111.758 82.9126Z" fill="#F68DB7"/>
<path d="M93.425 81.6709C93.4904 81.5528 93.508 81.4142 93.4741 81.2835C93.4402 81.1528 93.3575 81.0402 93.2429 80.9687L89.6868 78.4138C89.5691 78.3467 89.4298 78.3282 89.2987 78.3622C89.1676 78.3962 89.0549 78.48 88.9846 78.5958C88.9172 78.7145 88.8985 78.8547 88.9325 78.9869C88.9664 79.1191 89.0504 79.2329 89.1666 79.3044L92.7228 81.8594C92.7813 81.8932 92.8458 81.9151 92.9128 81.9239C92.9797 81.9327 93.0478 81.9283 93.113 81.9108C93.1782 81.8932 93.2393 81.863 93.2928 81.8219C93.3464 81.7807 93.3913 81.7294 93.425 81.6709Z" fill="#F68DB7"/>
<path d="M121.322 75.6768C116.202 75.5922 111.148 74.5032 106.447 72.4717C106.343 72.4272 106.261 72.3436 106.218 72.2389C106.176 72.1342 106.176 72.017 106.219 71.9126C106.24 71.86 106.271 71.8121 106.311 71.7717C106.35 71.7313 106.397 71.6993 106.45 71.6774C106.502 71.6556 106.558 71.6445 106.614 71.6447C106.671 71.6448 106.727 71.6564 106.779 71.6785C117.441 76.0994 124.982 74.5326 125.04 74.5131C125.152 74.4896 125.267 74.5105 125.363 74.5712C125.459 74.6319 125.528 74.7277 125.554 74.8381C125.566 74.8932 125.568 74.9502 125.558 75.0058C125.549 75.0615 125.528 75.1147 125.498 75.1624C125.468 75.2101 125.429 75.2514 125.382 75.2839C125.336 75.3164 125.284 75.3394 125.229 75.3517C123.94 75.5889 122.632 75.6978 121.322 75.6768Z" fill="#84052F"/>
<path d="M132.146 8.00575C132.146 8.00575 123.09 -0.536835 108.469 6.57548C89.1146 16.0022 95.4663 45.7972 108.397 51.3818C121.328 56.9663 98.7298 27.3273 112.031 17.9071C125.333 8.48685 132.146 8.00575 132.146 8.00575Z" fill="#FDC652"/>
<path d="M126.341 8.8769C123.82 8.77216 121.317 9.33581 119.085 10.5107C116.853 11.6855 114.971 13.4298 113.631 15.5666C110.53 20.5986 108.813 27.7954 108.917 35.7594C109.106 50.7446 116.972 62.7458 126.471 62.5638C135.969 62.3818 143.53 50.0945 143.374 35.1093C143.257 26.0726 140.585 18.2061 136.365 13.4407C135.094 12.0424 133.551 10.9178 131.831 10.1353C130.111 9.35292 128.249 8.92915 126.36 8.8899L126.341 8.8769Z" fill="#EE8387"/>
<path d="M131.477 45.8687C131.06 45.8687 130.599 45.8687 130.092 45.8362C129.978 45.8311 129.871 45.7809 129.794 45.6968C129.717 45.6126 129.677 45.5014 129.682 45.3876C129.687 45.2738 129.738 45.1668 129.822 45.0899C129.906 45.0131 130.017 44.9729 130.131 44.9781C132.172 45.0626 133.609 44.9781 133.986 44.445C134.363 43.9119 134.051 42.8717 133.154 40.9083C132.023 38.4444 132.107 32.5478 132.107 32.2942C132.109 32.1815 132.155 32.0741 132.235 31.995C132.315 31.9159 132.424 31.8716 132.536 31.8716C132.593 31.8725 132.648 31.8844 132.7 31.9068C132.752 31.9291 132.798 31.9615 132.838 32.0019C132.877 32.0424 132.908 32.0901 132.929 32.1425C132.949 32.1949 132.96 32.2509 132.959 32.3072C132.959 32.3657 132.874 38.2623 133.921 40.5508C134.851 42.5726 135.306 44.0094 134.695 44.9261C134.207 45.6542 133.193 45.8687 131.477 45.8687Z" fill="#B9555F"/>
<path d="M110.406 46.4669C109.336 47.0028 108.151 47.2685 106.954 47.2405C103.541 47.1235 100.856 44.51 100.966 41.3894C101.077 38.2688 103.925 35.8569 107.344 35.9739C107.762 35.9926 108.177 36.0448 108.586 36.1299L109.093 36.2665C109.155 38.6661 109.405 41.0572 109.841 43.4178L110.406 46.4669Z" fill="#EE8387"/>
<path d="M108.059 43.6843C107.988 43.6846 107.918 43.6668 107.855 43.6327C107.793 43.5986 107.74 43.5493 107.702 43.4893C107.282 42.7603 106.67 42.1603 105.933 41.7546C105.196 41.3488 104.362 41.1528 103.521 41.1879C103.409 41.199 103.296 41.1658 103.208 41.0954C103.119 41.0251 103.061 40.923 103.047 40.8108C103.04 40.7552 103.043 40.6988 103.058 40.6447C103.073 40.5907 103.098 40.5401 103.133 40.4959C103.167 40.4518 103.21 40.4149 103.259 40.3875C103.308 40.3601 103.362 40.3426 103.417 40.3362C104.417 40.2805 105.413 40.5017 106.295 40.9754C107.177 41.4491 107.911 42.157 108.417 43.0212C108.478 43.1162 108.5 43.2316 108.477 43.3425C108.454 43.4533 108.388 43.5504 108.293 43.6128C108.223 43.6579 108.142 43.6827 108.059 43.6843Z" fill="#B9555F"/>
<path d="M133.193 49.1388C133.193 49.1388 131.242 51.9344 129.065 52.0449C126.724 52.1619 125.417 51.4728 124.826 49.3404C124.026 46.4798 133.193 49.1388 133.193 49.1388Z" fill="#E54062"/>
<path d="M132.861 49.1324C132.861 49.1324 132.738 47.104 129.76 46.6619C126.783 46.2198 124.891 48.7098 124.891 48.7098C124.891 48.7098 127.758 50.7447 132.861 49.1324Z" fill="#E54062"/>
<path d="M134.499 50.6276C134.411 50.6269 134.325 50.5997 134.252 50.5496C134.2 50.5171 129.013 46.9934 123.265 50.1335C123.217 50.1609 123.163 50.1783 123.107 50.1846C123.051 50.1909 122.995 50.186 122.941 50.1703C122.887 50.1546 122.837 50.1283 122.793 50.0929C122.749 50.0576 122.713 50.0139 122.687 49.9645C122.659 49.915 122.642 49.8606 122.635 49.8043C122.629 49.7481 122.634 49.6911 122.65 49.6367C122.665 49.5823 122.692 49.5316 122.727 49.4874C122.762 49.4433 122.806 49.4065 122.856 49.3794C129.078 45.9857 134.688 49.8084 134.747 49.8475C134.821 49.8999 134.877 49.9748 134.906 50.0612C134.936 50.1476 134.936 50.2411 134.909 50.3281C134.881 50.415 134.827 50.4909 134.753 50.5448C134.68 50.5987 134.591 50.6277 134.499 50.6276Z" fill="#9E2757"/>
<path d="M127.524 63.2205C126.659 63.2205 122.043 63.1099 118.968 60.8215L118.663 60.594C116.797 59.2352 112.928 56.4072 110.035 47.7086C110.015 47.6545 110.005 47.5968 110.007 47.5389C110.009 47.4809 110.023 47.424 110.047 47.3715C110.072 47.3191 110.107 47.2721 110.15 47.2336C110.193 47.195 110.244 47.1656 110.299 47.1471C110.354 47.1286 110.412 47.1215 110.47 47.1261C110.528 47.1307 110.584 47.147 110.635 47.174C110.687 47.2009 110.732 47.238 110.768 47.283C110.805 47.3279 110.832 47.3798 110.848 47.4355C113.65 55.8871 117.349 58.5916 119.17 59.8984L119.482 60.1324C122.57 62.4338 127.582 62.3623 127.641 62.3623C127.753 62.3654 127.86 62.4105 127.941 62.4888C128.021 62.567 128.07 62.6727 128.076 62.7849C128.078 62.8976 128.035 63.0065 127.958 63.088C127.88 63.1695 127.773 63.2171 127.66 63.2205H127.524Z" fill="#B9555F"/>
<path d="M106.408 23.7061C108.04 10.3786 122.277 1.563 134.877 6.19836C141.469 8.62331 150.59 14.4094 151 31.7351C151.559 55.5035 144.772 69.6436 140.955 72.8292C137.139 76.0148 135.611 76.5869 136.157 74.4285C136.704 72.2701 141.794 51.4142 142.659 40.4662C143.523 29.5182 141.944 28.0619 141.944 28.0619L117.701 26.4626C117.701 26.4626 114.71 40.0696 119.358 66.9976C119.475 67.6477 120.607 73.6093 120.249 74.1489C119.644 75.1111 116.998 74.838 113.988 68.6944C106.551 53.4881 104.887 40.5182 106.304 24.6618C106.33 24.3497 106.369 24.0246 106.408 23.7061Z" fill="#FDC652"/>
<path d="M109.834 59.6253C109.748 59.6274 109.663 59.603 109.591 59.5553C109.519 59.5076 109.463 59.439 109.431 59.3587C108.57 56.7262 107.864 54.0452 107.318 51.3297L107.24 51.2972C100.401 47.6176 95.59 37.4562 95.798 27.1258C95.9865 17.595 100.537 9.96259 108.28 6.19189C116.504 2.19365 122.999 3.10383 127.004 4.57961C127.102 4.61514 127.184 4.68604 127.233 4.77854C127.283 4.87105 127.296 4.97855 127.27 5.08019C127.244 5.18156 127.183 5.27021 127.097 5.3299C127.011 5.38959 126.906 5.41633 126.802 5.40525C126.692 5.40525 115.711 4.20253 108.989 13.9413C104.718 20.1305 105.979 35.6228 105.992 35.7789C106.005 35.9349 107.045 46.4993 107.695 48.9633C107.695 49.0608 109.236 56.5242 110.231 59.0402C110.258 59.1049 110.268 59.1753 110.261 59.2451C110.254 59.3148 110.23 59.3818 110.19 59.4398C110.151 59.4979 110.098 59.5452 110.036 59.5776C109.973 59.61 109.904 59.6264 109.834 59.6253ZM119.839 4.18302C115.948 4.24349 112.123 5.19538 108.657 6.96554C98.4699 11.926 96.7666 21.7363 96.6561 27.1193C96.4611 36.689 100.908 46.4473 107.058 50.192L106.837 49.1323C106.187 46.6229 105.16 36.2729 105.121 35.8309C105.062 35.1807 103.82 19.8704 108.267 13.4277C110.023 10.8746 112.332 8.7503 115.022 7.21276C117.712 5.67523 120.714 4.76407 123.805 4.54709C122.498 4.2951 121.17 4.17315 119.839 4.18302Z" fill="#FCA200"/>
<path d="M141.944 28.5236C141.887 28.5203 141.832 28.5058 141.781 28.4811C141.73 28.4565 141.685 28.422 141.648 28.3797C141.61 28.3374 141.581 28.2882 141.563 28.2348C141.545 28.1814 141.537 28.1248 141.54 28.0685C142.074 19.6169 137.302 13.0182 137.25 12.9532C137.184 12.8611 137.157 12.7473 137.174 12.6358C137.191 12.5242 137.251 12.4236 137.341 12.3551C137.385 12.3208 137.436 12.2957 137.491 12.2814C137.545 12.267 137.602 12.2637 137.658 12.2716C137.713 12.2794 137.767 12.2983 137.815 12.3272C137.863 12.3561 137.905 12.3943 137.939 12.4396C141.082 17.0466 142.647 22.5487 142.399 28.1205C142.395 28.1769 142.381 28.232 142.356 28.2828C142.332 28.3336 142.297 28.3791 142.255 28.4165C142.213 28.454 142.163 28.4827 142.11 28.5011C142.056 28.5194 142 28.5271 141.944 28.5236Z" fill="#FCA200"/>
<path d="M131.659 27.7239C131.602 27.723 131.547 27.7111 131.495 27.6887C131.443 27.6664 131.396 27.6341 131.357 27.5936C131.318 27.5532 131.287 27.5054 131.266 27.453C131.245 27.4006 131.235 27.3446 131.236 27.2883C131.236 27.2168 131.295 19.9224 128.636 15.2156C128.581 15.1161 128.568 14.9993 128.598 14.89C128.628 14.7808 128.7 14.6876 128.798 14.6305C128.847 14.6027 128.901 14.5848 128.957 14.578C129.013 14.5711 129.07 14.5753 129.124 14.5904C129.179 14.6055 129.23 14.6312 129.274 14.6659C129.318 14.7007 129.355 14.7439 129.383 14.793C132.146 19.7079 132.081 26.9892 132.075 27.3013C132.075 27.4123 132.031 27.5188 131.953 27.5978C131.875 27.6769 131.77 27.7222 131.659 27.7239Z" fill="#FCA200"/>
<path d="M117.954 26.7032H117.908C117.852 26.6983 117.798 26.6823 117.748 26.656C117.698 26.6297 117.654 26.5936 117.618 26.55C117.582 26.5064 117.556 26.456 117.54 26.4019C117.524 26.3479 117.519 26.2911 117.525 26.2351C118.129 19.9809 119.202 16.9774 119.248 16.8538C119.292 16.7554 119.371 16.6772 119.47 16.6348C119.57 16.5924 119.681 16.5889 119.783 16.6249C119.884 16.661 119.969 16.734 120.019 16.8294C120.069 16.9248 120.082 17.0357 120.054 17.1399C120.054 17.1399 118.975 20.1825 118.377 26.3196C118.365 26.4242 118.316 26.5211 118.238 26.5918C118.16 26.6625 118.059 26.7022 117.954 26.7032Z" fill="#FCA200"/>
<path d="M147.86 117.531H147.788C147.676 117.512 147.575 117.45 147.508 117.357C147.442 117.265 147.414 117.15 147.431 117.037C148.802 108.82 147.379 103.06 145.942 99.6727C145.148 97.6532 143.969 95.8073 142.47 94.2377C142.39 94.1573 142.346 94.0486 142.346 93.9354C142.346 93.8221 142.39 93.7134 142.47 93.6331C142.509 93.5928 142.557 93.5607 142.608 93.5389C142.66 93.517 142.716 93.5057 142.772 93.5057C142.829 93.5057 142.885 93.517 142.936 93.5389C142.988 93.5607 143.035 93.5928 143.075 93.6331C143.4 93.9256 151.013 100.999 148.315 117.2C148.292 117.301 148.233 117.39 148.149 117.451C148.066 117.512 147.963 117.54 147.86 117.531Z" fill="#84052F"/>
<path d="M82.6654 74.7536C78.6942 73.7083 74.4707 74.2762 70.9167 76.3333C67.3626 78.3905 64.7666 81.7699 63.695 85.7341L49.5093 139.142C48.4665 143.117 49.0386 147.344 51.1006 150.899C53.1627 154.454 56.5473 157.05 60.5159 158.119C64.4918 159.15 68.7143 158.573 72.2671 156.511C75.8198 154.449 78.4162 151.07 79.4928 147.105L93.6785 93.6981C94.7149 89.7261 94.1387 85.5055 92.0756 81.9566C90.0125 78.4077 86.6299 75.8185 82.6654 74.7536Z" fill="#EE8387"/>
<path d="M202.035 97.8878L174.973 28.2512C172.21 21.9059 167.008 30.6323 159.165 34.0994L156.953 31.3781C149.111 34.8451 154.891 46.3321 157.654 52.6774L173.5 110.5C176.263 116.845 187.285 123.139 195.36 118.847C202.902 114.839 206.114 107.245 202.035 97.8878Z" fill="#EE8387"/>
<path d="M170.477 53.2281C165.231 56.4007 158.125 53.2281 154.003 50.7836C149.881 48.3392 146.683 50.6666 144.856 47.6111C143.029 44.5555 146.559 42.2411 150.954 42.1241C153.318 42.0315 155.668 42.5345 157.787 43.5868" fill="#EE8387"/>
<path d="M164.113 54.8989C160.062 54.8989 157.339 53.2996 153.75 51.1867C152.259 50.3552 150.581 49.9188 148.874 49.919C147.158 49.8085 145.545 49.7045 144.427 47.8451C144.095 47.3678 143.901 46.8077 143.868 46.227C143.835 45.6462 143.963 45.0677 144.239 44.5555C145.168 42.8587 147.801 41.7015 150.935 41.617C153.388 41.5171 155.827 42.0428 158.021 43.1447C158.123 43.2134 158.196 43.3181 158.224 43.4379C158.252 43.5577 158.234 43.6837 158.173 43.7906C158.112 43.8976 158.013 43.9775 157.896 44.0145C157.778 44.0514 157.651 44.0427 157.54 43.9899C155.496 42.9875 153.236 42.5073 150.961 42.5921C148.211 42.6637 145.851 43.6453 145.11 45.0236C144.91 45.39 144.818 45.8054 144.844 46.2219C144.871 46.6384 145.015 47.0389 145.259 47.377C146.111 48.7943 147.21 48.8658 148.932 48.9763C150.791 48.991 152.615 49.4739 154.237 50.3806C158.197 52.708 161.064 54.3918 165.901 53.8522C166.026 53.8443 166.15 53.885 166.246 53.966C166.342 54.047 166.403 54.1619 166.416 54.2868C166.43 54.4117 166.394 54.5369 166.318 54.6365C166.241 54.736 166.129 54.802 166.005 54.8209C165.376 54.8838 164.744 54.9098 164.113 54.8989Z" fill="#B9555F"/>
<path d="M177.33 20.7806C177.196 20.7831 177.067 20.7369 176.966 20.6506C176.908 20.6024 176.86 20.5432 176.825 20.4766C176.791 20.41 176.769 20.3372 176.763 20.2623C176.756 20.1874 176.764 20.112 176.787 20.0403C176.809 19.9686 176.846 19.902 176.894 19.8444L183.395 12.0885C183.443 12.0306 183.503 11.9828 183.569 11.9481C183.636 11.9134 183.709 11.8924 183.785 11.8864C183.86 11.8803 183.935 11.8893 184.007 11.9129C184.078 11.9364 184.145 11.974 184.201 12.0235C184.259 12.0711 184.307 12.1298 184.341 12.1961C184.376 12.2624 184.397 12.335 184.403 12.4096C184.409 12.4841 184.4 12.5591 184.377 12.6302C184.353 12.7012 184.316 12.7668 184.266 12.8231L177.765 20.5791C177.711 20.6419 177.644 20.6924 177.569 20.7271C177.494 20.7619 177.412 20.7801 177.33 20.7806Z" fill="#E54062"/>
<path d="M181.438 24.8049C181.308 24.8054 181.181 24.7611 181.079 24.6794C180.977 24.5977 180.906 24.4835 180.877 24.3558C180.849 24.2282 180.866 24.0947 180.924 23.9777C180.982 23.8607 181.079 23.7671 181.198 23.7127L190.377 19.4219C190.515 19.3581 190.673 19.3517 190.816 19.4041C190.958 19.4566 191.074 19.5635 191.138 19.7014C191.202 19.8394 191.208 19.997 191.156 20.1397C191.103 20.2823 190.997 20.3983 190.859 20.4621L181.666 24.7529C181.594 24.7838 181.517 24.8014 181.438 24.8049Z" fill="#E54062"/>
<path d="M192.386 31.8391H192.321L182.257 30.7664C182.181 30.7609 182.107 30.74 182.038 30.7051C181.97 30.6703 181.91 30.6221 181.861 30.5634C181.811 30.5047 181.775 30.4368 181.752 30.3636C181.73 30.2904 181.722 30.2135 181.73 30.1373C181.738 30.0612 181.761 29.9874 181.798 29.9203C181.835 29.8532 181.885 29.7942 181.945 29.7468C182.005 29.6993 182.074 29.6644 182.148 29.6442C182.221 29.6239 182.298 29.6187 182.374 29.6287L192.445 30.7014C192.596 30.7092 192.739 30.7769 192.841 30.8897C192.943 31.0024 192.995 31.151 192.988 31.3028C192.98 31.4545 192.912 31.5969 192.799 31.6987C192.687 31.8006 192.538 31.8534 192.386 31.8456V31.8391Z" fill="#E54062"/>
<path d="M136.431 133.446L65.3463 128.174C61.2587 127.997 57.2674 129.445 54.244 132.202C51.2206 134.959 49.411 138.8 49.2104 142.886C48.9992 146.969 50.412 150.97 53.1405 154.015C55.8689 157.061 59.6913 158.903 63.7731 159.139L110.582 157.67C113.26 157.572 133.889 156.09 136.509 156.636C141.631 157.709 145.74 159.276 150.161 156.877C152.28 155.733 149.875 155.258 150.434 152.677C151.89 146.195 149.16 134.682 136.431 133.446Z" fill="#EE8387"/>
<path d="M84.4209 129.773L73.1088 129.37C73.0527 129.369 72.9975 129.356 72.9465 129.333C72.8954 129.309 72.8494 129.276 72.8113 129.235C72.7732 129.194 72.7437 129.146 72.7244 129.093C72.7052 129.04 72.6966 128.984 72.6992 128.928C72.7009 128.872 72.7136 128.816 72.7367 128.765C72.7599 128.713 72.793 128.667 72.834 128.628C72.8751 128.59 72.9234 128.56 72.9761 128.54C73.0288 128.52 73.0849 128.51 73.1412 128.512L84.4533 128.915C84.5671 128.915 84.6763 128.96 84.7567 129.041C84.8372 129.121 84.8824 129.23 84.8824 129.344C84.8824 129.458 84.8372 129.567 84.7567 129.648C84.6763 129.728 84.5671 129.773 84.4533 129.773H84.4209Z" fill="#B9555F"/>
<path d="M144.537 22.4059H144.953C145.339 22.8887 145.826 23.2806 146.38 23.5537C146.934 23.8268 147.541 23.9743 148.158 23.9857H148.243C149.017 25.1884 149.127 27.3013 152.508 27.7564L167.408 26.3262C169.859 26.3717 178.955 47.0715 180.118 45.5112L178.168 28.2765C177.945 26.3173 177.277 24.435 176.214 22.7739C175.152 21.1129 173.723 19.7172 172.037 18.6937C170.315 17.582 168.787 16.9449 167.734 16.8669C167.336 16.2611 166.792 15.765 166.153 15.4242C165.513 15.0834 164.798 14.9088 164.073 14.9166C164.073 14.9166 162.773 13.6163 160.049 13.7268C156.148 13.8568 149.114 14.1429 147.508 14.6435C144.583 15.5602 142.658 18.3037 141.833 19.6754C141.007 21.0472 143.055 22.4514 144.537 22.4059Z" fill="#EE8387"/>
<path d="M161.662 21.7232L154.692 26.2091C154.214 26.4509 153.719 26.6573 153.21 26.8267L146.286 29.1346C146.286 29.1346 142.002 31.8326 144.121 38.0738L161.61 45.9662L161.662 21.7232Z" fill="#07606D"/>
<path d="M106.72 57.9805C106.72 57.9805 110.673 78.0237 110.087 96.3376C109.502 114.651 107.162 116.056 107.162 116.056L106.187 107.741L104.158 115.724L94.4066 112.084C94.4066 112.084 95.6418 89.6089 90.5059 69.2471" fill="#FDC652"/>
<path d="M171.823 105.816C171.732 105.816 171.643 105.788 171.569 105.734C171.496 105.68 171.441 105.604 171.413 105.517L165.335 85.3635C165.312 85.258 165.329 85.1476 165.384 85.0544C165.439 84.9612 165.527 84.8921 165.63 84.8609C165.734 84.8297 165.845 84.8387 165.942 84.8861C166.039 84.9335 166.115 85.0157 166.154 85.1165L172.239 105.27C172.262 105.335 172.268 105.404 172.257 105.471C172.247 105.539 172.22 105.603 172.179 105.658C172.138 105.712 172.084 105.756 172.022 105.785C171.96 105.814 171.891 105.827 171.823 105.823V105.816Z" fill="#B9555F"/>
<path d="M148.393 21.7558C148.317 21.7563 148.242 21.7389 148.174 21.705C148.106 21.6711 148.048 21.6217 148.002 21.5607C147.924 21.4581 147.89 21.3286 147.907 21.2006C147.924 21.0726 147.991 20.9567 148.094 20.8781C150.19 19.3156 152.517 18.0895 154.991 17.2439C158.892 15.7552 167.383 16.3598 167.74 16.3858C167.869 16.3953 167.99 16.4557 168.074 16.5539C168.159 16.652 168.201 16.7798 168.192 16.9091C168.183 17.0385 168.122 17.1587 168.024 17.2434C167.926 17.3282 167.798 17.3704 167.669 17.361C167.584 17.361 159.035 16.7433 155.316 18.1541C152.932 18.9637 150.689 20.1441 148.672 21.6518C148.592 21.7152 148.494 21.7516 148.393 21.7558Z" fill="#B9555F"/>
<path d="M144.732 20.8391C144.618 20.8385 144.507 20.797 144.42 20.7221C144.322 20.6398 144.26 20.5219 144.248 20.3941C144.236 20.2663 144.274 20.1389 144.355 20.0395C145.734 18.3882 148.757 16.4313 150.161 15.6251C152.111 14.4939 161.675 14.3834 162.754 14.3704C162.883 14.3704 163.007 14.4218 163.099 14.5132C163.19 14.6047 163.241 14.7287 163.241 14.858C163.241 14.9873 163.19 15.1113 163.099 15.2028C163.007 15.2942 162.883 15.3456 162.754 15.3456C159.887 15.3456 152.118 15.6251 150.636 16.4703C149.543 17.1204 146.429 19.0708 145.09 20.6636C145.047 20.7173 144.993 20.7609 144.931 20.7913C144.869 20.8216 144.801 20.8379 144.732 20.8391Z" fill="#B9555F"/>
<path d="M141.306 20.579L122.888 28.5235C121.947 28.8935 121.166 29.5843 120.685 30.4739C120.101 31.727 119.959 33.1409 120.281 34.4851C120.411 35.1733 120.705 35.8201 121.137 36.3711C121.569 36.9221 122.128 37.3611 122.765 37.6512L139.987 46.3043L141.306 20.579Z" fill="#07606D"/>
<path d="M143.939 44.3865C148.578 44.3865 152.339 39.6188 152.339 33.7375C152.339 27.8562 148.578 23.0885 143.939 23.0885C139.3 23.0885 135.54 27.8562 135.54 33.7375C135.54 39.6188 139.3 44.3865 143.939 44.3865Z" fill="#EBEFFB"/>
<path d="M164.665 44.3865C169.304 44.3865 173.065 39.6188 173.065 33.7375C173.065 27.8562 169.304 23.0885 164.665 23.0885C160.026 23.0885 156.266 27.8562 156.266 33.7375C156.266 39.6188 160.026 44.3865 164.665 44.3865Z" fill="#EBEFFB"/>
<path d="M168.26 31.293C169 31.8918 169.553 32.6903 169.853 33.5937C170.152 34.4972 170.186 35.4677 169.951 36.3899C169.626 37.7292 168.247 37.4756 166.811 37.9307C165.374 38.3858 158.495 37.6772 158.495 37.6772C158.434 36.851 158.482 36.0202 158.638 35.2067C158.964 33.6204 162.052 31.6571 162.052 31.6571C163.326 30.8184 166.284 29.5182 168.26 31.293Z" fill="white"/>
<path d="M168.936 33.653C168.735 31.3971 167.149 30.5129 165.614 30.8055C164.08 31.098 163.274 33.3409 163.475 35.6034C163.523 36.4667 163.78 37.3055 164.223 38.0478C165.385 38.1809 166.561 38.1171 167.701 37.8593C167.968 37.8208 168.227 37.7396 168.468 37.6187C168.949 36.7606 169.001 34.8882 168.936 33.653Z" fill="#4152C9"/>
<path d="M160.212 34.6477C160.342 34.4266 163.865 28.8551 168.956 31.9757C170.256 32.7948 169.918 35.8764 170.256 35.4343L171.556 33.3929C172.052 32.4531 172.486 31.4824 172.857 30.4869C173.026 29.9408 173.208 29.4597 173.286 29.0631C173.325 28.9851 173.37 28.9136 173.357 28.8551C173.461 27.6394 169.925 30.721 169.925 30.721C162.013 26.1701 157.943 34.4591 158.528 36.611C158.827 36.5915 158.521 37.5472 160.212 34.6477Z" fill="#212026"/>
<path d="M149.114 31.7741C151.162 33.9 151.065 35.7919 150.727 37.0986C150.389 38.4053 148.887 37.9113 147.379 38.1778C145.87 38.4444 138.647 36.6695 138.647 36.6695C138.613 35.8485 138.701 35.0269 138.907 34.2316C139.285 32.6453 142.6 31.1955 142.6 31.1955C143.913 30.4739 147.119 29.6222 149.114 31.7741Z" fill="white"/>
<path d="M149.16 33.8805C149.01 31.6571 147.632 30.5909 145.974 30.7015C144.316 30.812 143.14 32.9964 143.289 35.2198C143.314 36.1284 143.55 37.0187 143.978 37.8203C145.188 38.1628 146.452 38.2774 147.704 38.1583L148.62 38.0933C149.16 37.3067 149.264 35.1353 149.16 33.8805Z" fill="#4152C9"/>
<path d="M148.633 32.1057C148.503 31.9497 145.552 28.4065 140.182 32.8924C138.491 34.4852 138.94 36.8386 138.602 36.494L137.458 35.0248C136.817 34.2536 136.263 33.4142 135.806 32.5218C135.559 32.0862 135.338 31.5791 135.156 31.2215L135.059 30.994C134.734 29.8108 138.114 31.5596 138.114 31.5596C144.862 24.7269 150.525 31.8587 150.7 33.8545C150.46 33.9846 150.271 33.7245 148.633 32.1057Z" fill="#212026"/>
<path d="M164.665 20.1695C159.666 20.1695 155.485 24.5188 154.302 30.3894C153.126 24.5383 148.939 20.1695 143.939 20.1695C138.023 20.1695 133.232 26.2481 133.232 33.744C133.232 41.2399 138.023 47.312 143.939 47.312C148.939 47.312 153.126 42.9627 154.302 37.0921C155.485 42.9432 159.666 47.312 164.665 47.312C170.581 47.312 175.373 41.2334 175.373 33.744C175.373 26.2546 170.614 20.1695 164.665 20.1695ZM143.959 44.393C139.317 44.393 135.553 39.6211 135.553 33.744C135.553 27.8669 139.317 23.0885 143.959 23.0885C148.601 23.0885 152.358 27.8604 152.358 33.744C152.358 39.6276 148.581 44.393 143.959 44.393ZM164.685 44.393C160.043 44.393 156.285 39.6211 156.285 33.744C156.285 27.8669 160.043 23.0885 164.685 23.0885C169.326 23.0885 173.091 27.8604 173.091 33.744C173.091 39.6276 169.313 44.393 164.665 44.393H164.685Z" fill="#52B7AD"/>
<path d="M137.74 134.026C137.74 134.026 156.267 133.764 162.469 134.908C168.67 136.051 177.364 144.088 180.39 146.591C183.416 149.093 185.355 156.523 184.945 157.614C184.535 158.705 183.071 158.653 183.071 158.653C183.071 158.653 183.195 160.496 180.468 160.77C180.468 160.77 179.661 162.73 176.564 162.469C176.564 162.469 174.82 164.985 171.208 163.567C167.597 162.149 165.5 158.946 164.414 158.535C163 158 156.807 156.059 156.807 156.059C153.58 157.598 150.067 158.442 146.495 158.537C142.924 158.631 139.372 157.974 136.068 156.608C136.068 156.608 133.621 154.7 134.051 147.715C134.597 138.057 137.74 134.026 137.74 134.026Z" fill="#EE8387"/>
<path d="M176.321 162.959C176.196 162.958 176.076 162.912 175.982 162.829C175.902 162.74 175.858 162.624 175.858 162.504C175.858 162.384 175.902 162.268 175.982 162.179C176.223 161.828 176.177 160.274 173.096 157.238C168.545 152.791 162.583 147.655 156.375 147.434C156.245 147.429 156.122 147.373 156.033 147.278C155.945 147.183 155.897 147.057 155.9 146.927C155.909 146.799 155.966 146.679 156.06 146.592C156.155 146.505 156.279 146.457 156.407 146.459C162.954 146.693 169.13 151.972 173.779 156.542C178.141 160.84 176.984 162.53 176.704 162.822C176.655 162.873 176.595 162.912 176.528 162.935C176.462 162.959 176.391 162.967 176.321 162.959Z" fill="#B9555F"/>
<path d="M180.228 161.269C180.185 161.275 180.141 161.275 180.098 161.269C179.974 161.235 179.869 161.154 179.804 161.043C179.74 160.933 179.722 160.801 179.753 160.677C179.753 160.58 180.267 158.486 178.024 155.73C175.463 152.583 166.913 144.613 165.295 144.066C163.533 143.468 160.302 142.812 160.269 142.805C160.142 142.779 160.031 142.704 159.96 142.596C159.889 142.488 159.863 142.357 159.889 142.23C159.915 142.103 159.99 141.992 160.098 141.921C160.206 141.849 160.338 141.824 160.464 141.85C160.601 141.85 163.786 142.5 165.607 143.15C167.655 143.845 176.522 152.342 178.778 155.119C181.379 158.298 180.729 160.827 180.729 160.931C180.696 161.036 180.629 161.126 180.538 161.188C180.447 161.249 180.337 161.278 180.228 161.269Z" fill="#B9555F"/>
<path d="M182.861 159.162C182.741 159.161 182.626 159.116 182.537 159.036C182.449 158.956 182.392 158.846 182.38 158.727C182.38 158.675 181.814 153.48 179.129 149.872C176.301 146.075 167.238 139.88 164.969 139.47C164.842 139.447 164.729 139.374 164.655 139.267C164.581 139.16 164.553 139.029 164.576 138.901C164.599 138.774 164.672 138.661 164.779 138.587C164.886 138.513 165.017 138.485 165.145 138.508C167.824 138.989 177.107 145.51 179.909 149.287C182.711 153.064 183.322 158.389 183.342 158.616C183.355 158.745 183.316 158.874 183.235 158.975C183.153 159.076 183.035 159.141 182.906 159.156L182.861 159.162Z" fill="#B9555F"/>
<path d="M136.19 133.381C136.19 133.381 134.753 133.245 134.356 133.746C133.186 135.234 132.14 138.641 131.918 143.27C131.554 150.954 131.431 155.837 134.239 156.324L136 156.57C136 156.57 135.598 158.093 131.756 158.093C127.914 158.093 127.907 153.886 127.543 148.575C127.179 143.263 128.635 134.305 130.475 132.465C132.647 130.274 136.053 130.657 136.19 133.381Z" fill="#FDC652"/>
</g>
<defs>
<clipPath id="clip0_865_1993">
<rect width="256" height="164" fill="white"/>
</clipPath>
</defs>
</svg>
