<svg width="256" height="164" viewBox="0 0 256 164" fill="none" xmlns="http://www.w3.org/2000/svg">
<path d="M161.687 32.0404C234.026 33.7614 254.81 113.964 255.745 153.667L256 164H-3.05176e-05C-3.05176e-05 164 1.43333 111.46 27.8067 90.363C54.1801 69.2657 78.0856 84.1984 78.0856 84.1984C78.0856 84.1984 89.3529 30.3193 161.687 32.0404Z" fill="#DDEFFD"/>
<path d="M75.7095 156.188C75.7095 156.188 82.9449 154.078 87.1639 149.558C91.3828 145.038 91.0815 125.142 91.0815 125.142L76.0108 130.882L75.7095 156.188Z" fill="#EFAD4D"/>
<path d="M118.249 47.1459C117.98 46.9995 116.203 46.0954 115.893 45.9979C115.204 45.7921 114.476 45.7491 113.768 45.8721C113.059 45.9952 112.389 46.2809 111.809 46.707C111.23 47.133 110.757 47.6876 110.428 48.3273C110.099 48.967 109.923 49.6742 109.914 50.3934C109.905 51.1126 110.062 51.8241 110.375 52.472C110.687 53.1199 111.145 53.6865 111.714 54.1273C112.282 54.568 112.945 54.8709 113.65 55.0121C114.356 55.1533 115.084 55.1289 115.778 54.941" fill="#EFAD4D"/>
<path d="M115.913 52.3177C115.826 52.3178 115.742 52.2899 115.672 52.2382C115.602 52.1866 115.551 52.1138 115.526 52.0307C114.874 49.7146 113.072 49.4678 113.055 49.4649C112.999 49.4626 112.945 49.4489 112.895 49.4245C112.845 49.4002 112.801 49.3658 112.765 49.3235C112.729 49.2811 112.702 49.2318 112.686 49.1786C112.67 49.1255 112.665 49.0696 112.672 49.0145C112.679 48.9594 112.697 48.9063 112.725 48.8585C112.754 48.8108 112.792 48.7694 112.837 48.737C112.882 48.7047 112.933 48.682 112.987 48.6704C113.042 48.6589 113.098 48.6587 113.152 48.6699C113.247 48.6699 115.503 48.9885 116.309 51.8126C116.323 51.864 116.327 51.9177 116.32 51.9706C116.313 52.0234 116.295 52.0743 116.269 52.1205C116.242 52.1666 116.207 52.207 116.164 52.2394C116.122 52.2718 116.074 52.2955 116.022 52.3091C115.986 52.316 115.95 52.3189 115.913 52.3177Z" fill="#D36E1D"/>
<path d="M132.482 22.0875C128.398 21.3671 124.489 24.1625 123.754 28.3298C123.705 28.6014 123.672 28.8754 123.654 29.1507C123.269 29.1315 122.884 29.1575 122.506 29.2282C119.113 29.8711 117.035 33.9408 117.865 38.3234C118.016 39.1235 118.262 39.9029 118.597 40.6452C117.261 41.4987 116.276 42.8034 115.821 44.3218C115.351 45.9663 114.94 48.4518 117.288 51.6203C117.288 51.6203 119.165 46.0036 120.287 43.168C121.739 44.6748 123.628 45.4468 125.508 45.091C128.573 44.5169 130.562 41.1332 130.306 37.2528C132.224 37.4398 134.14 36.8919 135.669 35.7197C137.197 34.5476 138.224 32.8388 138.541 30.9387C139.295 26.7714 136.58 22.8079 132.482 22.0875Z" fill="#212026"/>
<path d="M126.136 57.1107H132.522C135.191 57.1107 140.214 59.3723 140.214 63.3502L142.223 90.4779C142.676 93.6579 140.251 94.783 138.317 96.2927C136.382 97.8023 133.231 98.3993 128.751 98.7379H125.183C120.554 98.5112 116.771 97.7908 114.851 96.2927C112.931 94.7945 111.12 96.1549 111.568 92.9777L116.108 65.5601C116.108 61.5851 117.977 57.1107 120.646 57.1107H127.029" fill="#EFAD4D"/>
<path d="M147.36 60.7183C139.361 73.1887 125.648 80.6479 118.723 76.2482C111.798 71.8484 113.953 52.8458 121.9 40.341C129.847 27.8362 140.555 26.5647 147.495 30.9645C154.435 35.3643 156.177 46.9679 147.36 60.7183Z" fill="#EFAD4D"/>
<path d="M139.835 68.6885C140.039 69.3778 140.401 70.0104 140.891 70.5365C141.381 71.0626 141.986 71.4678 142.659 71.7204C143.332 71.973 144.055 72.0661 144.77 71.9923C145.485 71.9185 146.174 71.6798 146.781 71.295C147.388 70.9103 147.898 70.3899 148.27 69.7748C148.643 69.1597 148.867 68.4667 148.926 67.7502C148.986 67.0336 148.878 66.3131 148.612 65.6453C148.345 64.9775 147.928 64.3805 147.392 63.9013C147.154 63.6889 141.959 61.8922 141.692 61.7401L139.835 68.6885Z" fill="#EFAD4D"/>
<path d="M146.258 68.281C146.199 68.2808 146.14 68.2673 146.086 68.2415C146.033 68.2157 145.985 68.1782 145.948 68.1318C145.899 68.0744 144.76 66.7197 142.467 67.3683C142.366 67.3932 142.259 67.3779 142.169 67.3258C142.079 67.2736 142.013 67.1887 141.985 67.0887C141.956 66.9888 141.967 66.8816 142.016 66.7898C142.065 66.6979 142.147 66.6286 142.246 66.5962C145.067 65.7955 146.514 67.5549 146.574 67.6295C146.608 67.6711 146.633 67.7191 146.649 67.7706C146.664 67.8222 146.669 67.8763 146.663 67.9297C146.657 67.9832 146.64 68.0349 146.614 68.0819C146.588 68.1289 146.553 68.1703 146.511 68.2035C146.437 68.2563 146.349 68.2835 146.258 68.281Z" fill="#D36E1D"/>
<path d="M193.867 104.042C193.91 104.142 195.089 114.047 191.453 117.003C182.843 124.012 171.762 127.453 171.762 127.453L171 163.997H93.8253L88.3722 131.468L69.9867 129.057L64.2466 92.5845C64.2466 92.5845 75.1298 72.2474 91.3743 76.3085C99.2124 78.2687 111.872 89.1204 111.872 89.1204C111.872 89.1204 116.43 100.027 127.996 99.8199C139.562 99.6133 141.913 86.457 141.913 86.457L151.958 80.7456C154.515 79.2127 157.295 78.0876 160.198 77.4106C182.995 72.2961 191.915 99.5817 193.867 104.042Z" fill="#945EA3"/>
<path d="M142.022 86.058C142.022 86.058 139.496 98.2012 129.242 98.5026C115.044 98.9187 112.021 88.5205 112.021 88.5205L108.104 86.2589C108.104 86.2589 110.334 103.103 128.751 102.386C143.83 101.812 145.63 84.4508 145.63 84.4508L142.022 86.058Z" fill="#EEC8F9"/>
<path d="M125.373 58.2272C125.329 58.228 125.285 58.2201 125.244 58.2042C124.027 57.7852 123.37 57.2141 123.235 56.4621C122.985 55.1132 124.592 53.7557 125.66 52.8573C127.026 51.7093 129.006 47.0196 129.024 46.9737C129.042 46.9227 129.071 46.8759 129.108 46.8363C129.145 46.7967 129.19 46.765 129.24 46.7432C129.29 46.7214 129.344 46.71 129.398 46.7095C129.452 46.7091 129.506 46.7197 129.556 46.7407C129.606 46.7617 129.652 46.7926 129.69 46.8316C129.727 46.8707 129.757 46.917 129.776 46.9677C129.796 47.0185 129.805 47.0727 129.803 47.127C129.8 47.1813 129.787 47.2346 129.764 47.2837C129.681 47.4846 127.689 52.1944 126.177 53.4715C125.367 54.1546 123.86 55.426 124.024 56.3157C124.124 56.861 124.885 57.2313 125.511 57.4465C125.6 57.478 125.675 57.5401 125.723 57.6216C125.771 57.7032 125.789 57.7991 125.773 57.8924C125.757 57.9857 125.709 58.0704 125.637 58.1317C125.565 58.1929 125.473 58.2268 125.379 58.2272H125.373Z" fill="#D36E1D"/>
<path d="M125.634 77.336C122.886 77.329 120.225 76.3684 118.106 74.618C116.828 73.5779 115.826 72.2394 115.187 70.7205C115.146 70.6226 115.144 70.5123 115.184 70.4135C115.223 70.3147 115.299 70.2353 115.397 70.1924C115.445 70.1706 115.497 70.1587 115.55 70.1573C115.602 70.156 115.655 70.1652 115.704 70.1844C115.753 70.2037 115.798 70.2326 115.836 70.2694C115.874 70.3063 115.904 70.3504 115.925 70.399C116.506 71.7999 117.427 73.0338 118.605 73.9895C121.983 76.6873 126.053 77.247 130.372 75.6082C131.621 75.1212 132.809 74.4924 133.914 73.734L138.561 70.069C138.645 70.0069 138.75 69.98 138.853 69.994C138.957 70.0079 139.051 70.0617 139.115 70.1438C139.18 70.2259 139.21 70.33 139.199 70.4339C139.188 70.5378 139.137 70.6334 139.057 70.7004L134.385 74.3827C133.221 75.1826 131.969 75.8461 130.654 76.3601C129.054 76.9875 127.353 77.3181 125.634 77.336Z" fill="#D36E1D"/>
<path d="M160.525 41.8392C160.751 40.6017 160.504 39.3244 159.832 38.261C159.16 37.1976 158.112 36.4258 156.897 36.0991C157.075 35.6888 157.204 35.2592 157.282 34.819C157.83 31.7251 155.847 28.7919 152.845 28.261C152.733 28.2409 152.621 28.2323 152.512 28.2208C153.129 22.4807 149.504 17.2314 144.109 16.2814C138.463 15.2855 133.024 19.3753 131.957 25.4167C131.767 26.4938 131.727 27.5919 131.836 28.68C130.78 32.3192 133.309 36.9314 137.088 38.4209C139.872 39.5173 143.299 39.7297 145.595 38.4697C145.438 38.8253 145.323 39.1981 145.254 39.5804C145.047 40.7333 145.271 41.922 145.883 42.9205C146.495 43.9191 147.453 44.6578 148.574 44.9962C148.024 45.3757 147.557 45.8644 147.203 46.432C146.849 46.9995 146.615 47.6338 146.517 48.2953C146.418 48.9569 146.457 49.6317 146.63 50.2777C146.803 50.9238 147.108 51.5273 147.524 52.0508C146.733 51.9268 145.923 52.035 145.192 52.3622C144.461 52.6893 143.841 53.2215 143.407 53.8941C142.972 54.5667 142.742 55.3508 142.745 56.1515C142.747 56.9522 142.981 57.7351 143.42 58.4051C143.4 58.5257 143.385 58.6433 143.374 58.761C141.772 59.9635 140.504 61.367 140.679 64.0017C140.71 64.4408 142.401 62.7905 144.8 63.023C147.731 63.5683 148.178 64.9488 148.178 64.9488C150.532 65.0119 152.885 63.3358 153.861 60.6782C154.367 59.3321 154.435 57.8603 154.053 56.4736C156.507 56.4736 158.789 54.2636 159.331 51.1955C159.73 48.9339 159.082 46.7929 157.79 45.4813C158.5 45.1317 159.118 44.6198 159.593 43.987C160.068 43.3543 160.387 42.6184 160.525 41.8392Z" fill="#212026"/>
<path d="M139.772 42.726C140.205 43.7793 141.712 47.0311 144.499 49.2381C144.579 49.2993 144.64 49.3827 144.674 49.478C144.707 49.5733 144.712 49.6764 144.688 49.7744C144.663 49.8725 144.61 49.9612 144.536 50.0297C144.462 50.0981 144.369 50.1432 144.269 50.1594C143.731 50.222 143.186 50.1851 142.662 50.0504C140.897 49.6256 138.357 46.2475 137.737 44.3103C137.275 42.8752 138.538 42.5136 139.227 42.4275C139.338 42.4108 139.451 42.431 139.549 42.4849C139.648 42.5388 139.726 42.6235 139.772 42.726Z" fill="#212026"/>
<path d="M130.43 38.6362C129.322 38.9232 125.801 39.6292 122.394 38.685C122.297 38.6568 122.194 38.6575 122.098 38.687C122.002 38.7165 121.916 38.7734 121.852 38.8509C121.788 38.9283 121.747 39.0229 121.736 39.1229C121.725 39.223 121.743 39.3241 121.788 39.414C122.055 39.8847 122.407 40.3013 122.827 40.6424C124.213 41.8134 128.435 41.8564 130.378 41.2164C131.813 40.7342 131.354 39.4944 131.015 38.9031C130.963 38.7986 130.876 38.7152 130.77 38.6666C130.663 38.6181 130.543 38.6074 130.43 38.6362Z" fill="#212026"/>
<path d="M132.43 64.3318C132.371 64.3318 132.312 64.3191 132.258 64.2944C127.568 62.1017 123.875 63.5138 123.837 63.5281C123.741 63.5543 123.639 63.5439 123.55 63.4989C123.461 63.4539 123.392 63.3776 123.357 63.2847C123.321 63.1918 123.321 63.0889 123.357 62.996C123.392 62.9032 123.461 62.8269 123.55 62.7819C123.714 62.7159 127.608 61.2292 132.608 63.5683C132.69 63.6077 132.755 63.6734 132.795 63.7549C132.834 63.8363 132.845 63.9286 132.825 64.017C132.806 64.1053 132.757 64.1844 132.687 64.2415C132.617 64.2987 132.529 64.3305 132.439 64.3318H132.43Z" fill="#D36E1D"/>
<path d="M133.056 54.2493C133.056 54.2493 133.808 51.4223 135.18 50.5928C135.18 50.5928 139.697 52.157 140.86 55.116C140.86 55.116 140.518 56.1779 139.999 57.3145C140.024 57.3202 134.698 54.5363 133.056 54.2493Z" fill="white"/>
<path d="M125.981 50.6416C125.981 50.6416 127.261 48.4173 126.842 46.8732C126.842 46.8732 122.537 44.9388 119.65 46.2992C119.309 46.8677 119.033 47.4722 118.826 48.1016C118.826 48.1016 124.595 49.7318 125.981 50.6416Z" fill="white"/>
<path d="M134.944 54.8865C134.944 54.8865 134.873 52.6794 136.646 51.3104C136.646 51.3104 139.026 52.4182 140.091 53.7557C140.091 53.7557 139.89 55.9111 138.483 56.5052C138.483 56.5052 135.3 55.0242 134.944 54.8865Z" fill="#212026"/>
<path d="M121.134 48.7273C121.134 48.7273 120.387 46.6035 122.158 45.2344C122.158 45.2344 125.146 45.2344 126.211 46.5604C126.211 46.5604 126.423 49.4046 124.758 50.1566C124.758 50.1451 121.492 48.865 121.134 48.7273Z" fill="#212026"/>
<path d="M140.805 55.5609C140.071 52.7798 136.664 51.2701 135.065 50.6818C134.996 50.6581 134.937 50.6117 134.897 50.5501C134.858 50.4885 134.84 50.4153 134.847 50.3424C134.855 50.2696 134.886 50.2014 134.937 50.1489C134.988 50.0963 135.056 50.0626 135.128 50.0532C135.709 49.9643 136.303 50.0307 136.85 50.2455C138.524 50.8511 140.952 52.6851 141.262 54.6109C141.572 56.5367 140.805 55.5609 140.805 55.5609Z" fill="#212026"/>
<path d="M119.521 46.4715C121.989 44.9934 125.482 46.2964 127.046 46.9909C127.113 47.0232 127.188 47.0319 127.26 47.0154C127.332 46.999 127.396 46.9585 127.442 46.9006C127.488 46.8427 127.513 46.7708 127.512 46.697C127.512 46.6231 127.486 46.5517 127.439 46.4944C127.085 46.0199 126.61 45.6485 126.065 45.4181C124.443 44.6834 121.427 44.2988 119.86 45.4612C118.293 46.6236 119.521 46.4715 119.521 46.4715Z" fill="#212026"/>
<path d="M162.33 131.27C162.235 131.27 162.143 131.236 162.071 131.175C161.998 131.113 161.95 131.028 161.934 130.934L158.519 109.834C158.503 109.728 158.528 109.621 158.591 109.535C158.653 109.449 158.747 109.391 158.852 109.374C158.904 109.365 158.957 109.367 159.008 109.379C159.06 109.39 159.108 109.412 159.151 109.443C159.194 109.474 159.23 109.513 159.257 109.558C159.285 109.602 159.303 109.652 159.311 109.704L162.727 130.805C162.735 130.857 162.733 130.91 162.721 130.961C162.71 131.012 162.688 131.06 162.657 131.103C162.626 131.146 162.587 131.182 162.543 131.21C162.498 131.237 162.448 131.256 162.396 131.264L162.33 131.27Z" fill="#4B0755"/>
<path d="M80.5312 126.497L87.3132 127.645L87.9188 132.074L81.5874 131.256L80.5312 126.497Z" fill="#EEC8F9"/>
<path d="M43.7313 84.0547L55.7137 146.823C57.5793 154.13 65.9397 158.535 74.3892 156.661C82.8357 154.784 87.0891 147.293 85.2236 139.983L69.0796 79.9305C67.2112 72.6204 60.7162 68.1833 52.2697 70.0604C43.8231 71.9345 41.8658 76.7476 43.7313 84.0547Z" fill="#EFAD4D"/>
<path d="M68.6264 78.7222L65.3114 67.2707C65.3114 67.2707 63.9539 60.1874 56.4143 59.4326C56.4143 59.4326 55.5303 53.8675 45.4105 52.5014C36.3957 51.2816 33.3735 49.8724 28.6838 47.8289C26.3878 46.8244 21.5575 49.9384 25.2168 54.4588C27.7798 57.6158 33.5055 60.0353 33.5055 60.0353C30.0427 60.7919 26.4963 61.0958 22.9552 60.9393C17.3787 60.6523 13.4611 61.9955 13.1597 65.7639C12.8584 69.5323 16.1733 70.2842 16.1733 70.2842C16.1733 70.2842 14.8186 72.8472 16.1733 74.8046C17.528 76.7619 18.7363 76.914 18.7363 76.914C18.7363 76.914 17.5309 80.6824 21.7498 81.8878C21.7498 81.8878 20.9979 85.2028 25.2168 86.1068C29.4358 87.0109 43.9037 82.0399 47.3707 81.7386C50.8378 81.4372 68.6264 78.7222 68.6264 78.7222Z" fill="#EFAD4D"/>
<path d="M46.4723 63.4506C46.419 63.4514 46.3661 63.4413 46.3168 63.4211C46.2675 63.4009 46.2227 63.3709 46.1853 63.333C46.1474 63.2954 46.1174 63.2507 46.097 63.2014C46.0765 63.1522 46.0659 63.0993 46.0659 63.046C46.0659 62.9926 46.0765 62.9398 46.097 62.8905C46.1174 62.8413 46.1474 62.7966 46.1853 62.759C51.1103 57.8368 56.2907 58.9848 56.5175 59.0279C56.6152 59.0576 56.6979 59.1234 56.7489 59.2119C56.7998 59.3004 56.8152 59.405 56.7918 59.5044C56.7684 59.6038 56.708 59.6905 56.623 59.747C56.5379 59.8035 56.4345 59.8256 56.3338 59.8086C56.285 59.8086 51.3571 58.7237 46.7622 63.3186C46.7258 63.3598 46.6813 63.3928 46.6313 63.4155C46.5814 63.4383 46.5272 63.4503 46.4723 63.4506Z" fill="#D36E1D"/>
<path d="M16.1789 70.6861C16.14 70.6857 16.1013 70.68 16.0641 70.6689C15.9626 70.6377 15.8774 70.5678 15.827 70.4744C15.7765 70.381 15.7648 70.2715 15.7943 70.1695C16.0945 69.2978 16.6444 68.5336 17.3758 67.9723C18.1071 67.4109 18.9874 67.0771 19.9071 67.0124L20.1625 66.9866C23.4832 66.6565 32.2971 65.7754 35.4685 64.4781C35.5176 64.4561 35.5707 64.4442 35.6246 64.4431C35.6784 64.442 35.732 64.4518 35.782 64.4718C35.832 64.4918 35.8775 64.5217 35.9157 64.5596C35.9539 64.5976 35.9842 64.6428 36.0046 64.6927C36.025 64.7425 36.0351 64.796 36.0345 64.8499C36.0338 64.9037 36.0223 64.9569 36.0007 65.0062C35.9791 65.0555 35.9477 65.1 35.9085 65.137C35.8694 65.174 35.8232 65.2027 35.7727 65.2215C32.4923 66.5647 23.5922 67.4515 20.2429 67.7844L19.9874 67.8103C19.2271 67.8603 18.4979 68.1314 17.8896 68.5903C17.2812 69.0492 16.8203 69.6759 16.5635 70.3933C16.5398 70.4773 16.4895 70.5512 16.4201 70.604C16.3507 70.6568 16.2661 70.6856 16.1789 70.6861Z" fill="#D36E1D"/>
<path d="M18.7419 77.3159H18.6817C18.6296 77.3082 18.5795 77.2902 18.5343 77.263C18.4892 77.2359 18.4499 77.2001 18.4187 77.1576C18.3875 77.1152 18.365 77.067 18.3525 77.0159C18.34 76.9647 18.3377 76.9115 18.3459 76.8595C18.3459 76.8193 19.0318 72.6864 23.0757 72.3019C29.4616 71.6934 33.626 69.957 36.9754 68.5708C37.0718 68.5385 37.1769 68.5441 37.2694 68.5862C37.3619 68.6284 37.435 68.704 37.474 68.7979C37.5129 68.8918 37.5148 68.9971 37.4793 69.0923C37.4438 69.1876 37.3734 69.2658 37.2825 69.3113C33.8843 70.7291 29.6568 72.4884 23.1504 73.1084C19.7379 73.4327 19.161 76.8394 19.1323 76.9916C19.1145 77.0823 19.0659 77.1641 18.9948 77.2231C18.9237 77.2822 18.8344 77.315 18.7419 77.3159Z" fill="#D36E1D"/>
<path d="M21.7554 82.2897H21.6952C21.5903 82.2734 21.4961 82.2163 21.4332 82.1308C21.3702 82.0453 21.3437 81.9384 21.3594 81.8334C21.3594 81.796 21.9765 78.1023 26.5054 77.2786C27.5903 77.0806 28.6665 76.8969 29.717 76.7046C34.0881 75.9584 38.2181 75.2523 40.8442 73.6996C40.9356 73.6511 41.0422 73.6397 41.1417 73.6678C41.2413 73.6959 41.3262 73.7614 41.3787 73.8506C41.4312 73.9397 41.4474 74.0457 41.4237 74.1464C41.4 74.2471 41.3384 74.3349 41.2517 74.3913C38.4993 76.0186 34.2976 76.7361 29.8519 77.4967C28.8043 77.6747 27.7338 77.8583 26.6518 78.0707C22.6997 78.7997 22.1745 81.8305 22.1544 81.9596C22.1364 82.0523 22.0868 82.1359 22.0141 82.1961C21.9413 82.2563 21.8499 82.2894 21.7554 82.2897Z" fill="#D36E1D"/>
<path d="M42.4026 71.2888C42.332 71.289 42.2625 71.2701 42.2017 71.2342C37.4776 68.4905 35.2045 63.8726 35.1098 63.6774C35.0649 63.5817 35.0595 63.4722 35.0949 63.3725C35.1302 63.2729 35.2034 63.1912 35.2985 63.1451C35.3936 63.0991 35.5031 63.0924 35.6032 63.1264C35.7032 63.1605 35.7858 63.2327 35.8331 63.3273C35.8531 63.3732 38.1004 67.9193 42.6035 70.5397C42.6798 70.5841 42.7393 70.6523 42.7729 70.7339C42.8065 70.8155 42.8123 70.9058 42.7895 70.991C42.7666 71.0763 42.7164 71.1516 42.6464 71.2054C42.5765 71.2592 42.4908 71.2885 42.4026 71.2888Z" fill="#D36E1D"/>
<path d="M33.5112 60.4371C33.4046 60.4371 33.3024 60.3948 33.2271 60.3195C33.1517 60.2441 33.1094 60.1419 33.1094 60.0353C33.1094 59.9288 33.1517 59.8266 33.2271 59.7512C33.3024 59.6759 33.4046 59.6335 33.5112 59.6335C33.537 59.6335 36.0454 59.5991 37.558 57.5384C37.6223 57.4566 37.7158 57.4029 37.819 57.3887C37.9221 57.3744 38.0267 57.4008 38.1108 57.4622C38.1948 57.5236 38.2518 57.6152 38.2697 57.7177C38.2876 57.8203 38.2649 57.9258 38.2066 58.012C36.4472 60.4084 33.6317 60.4371 33.5112 60.4371Z" fill="#D36E1D"/>
<path d="M43.1575 83.0445C43.0615 83.0435 42.969 83.0081 42.8968 82.9448C42.8247 82.8814 42.7775 82.7944 42.764 82.6993C42.7505 82.6043 42.7715 82.5075 42.8231 82.4266C42.8747 82.3457 42.9536 82.2859 43.0455 82.2581C43.1173 82.2351 50.2666 80.1343 54.0895 77.6345C54.1335 77.6021 54.1836 77.5791 54.2368 77.5667C54.29 77.5544 54.3452 77.5531 54.399 77.5628C54.4527 77.5725 54.5039 77.5931 54.5494 77.6233C54.595 77.6535 54.6339 77.6926 54.6638 77.7383C54.6937 77.784 54.7139 77.8354 54.7233 77.8892C54.7327 77.943 54.731 77.9981 54.7183 78.0513C54.7057 78.1044 54.6823 78.1544 54.6497 78.1982C54.6171 78.242 54.5759 78.2787 54.5286 78.306C50.6052 80.8719 43.5679 82.9412 43.2694 83.0273C43.2332 83.0386 43.1954 83.0444 43.1575 83.0445Z" fill="#D36E1D"/>
<path d="M85.0543 139.711C84.9674 139.711 84.8826 139.684 84.8127 139.632C84.7429 139.58 84.6917 139.507 84.6669 139.424L81.3491 126.764C81.3357 126.713 81.3325 126.66 81.3397 126.607C81.3469 126.555 81.3643 126.505 81.3909 126.459C81.4176 126.414 81.453 126.374 81.495 126.342C81.5371 126.31 81.585 126.287 81.6361 126.273C81.6871 126.26 81.7403 126.257 81.7926 126.264C81.8449 126.271 81.8953 126.288 81.9409 126.315C81.9865 126.342 82.0264 126.377 82.0583 126.419C82.0902 126.461 82.1135 126.509 82.1269 126.56L85.4418 139.22C85.4552 139.271 85.4584 139.324 85.4512 139.377C85.444 139.429 85.4267 139.479 85.4 139.525C85.3733 139.57 85.338 139.61 85.2959 139.642C85.2538 139.674 85.2058 139.697 85.1548 139.711C85.1214 139.715 85.0877 139.715 85.0543 139.711Z" fill="#D36E1D"/>
<path d="M179.838 156.188C179.838 156.188 174.098 156.038 169.454 150.448C164.934 145.02 161.705 127.639 161.705 127.639L179.691 123.334L179.838 156.188Z" fill="#EFAD4D"/>
<path d="M162.316 133.078L161.211 126.899L178.041 123.033L177.286 129.361L162.316 133.078Z" fill="#EEC8F9"/>
<path d="M211.813 84.0547L199.831 146.823C197.965 154.13 189.605 158.535 181.158 156.661C172.709 154.784 168.455 147.293 170.324 139.983L186.468 79.9305C188.333 72.6204 194.828 68.1833 203.275 70.0604C211.721 71.9345 213.679 76.7476 211.813 84.0547Z" fill="#EFAD4D"/>
<path d="M170.654 140.615C170.624 140.619 170.594 140.619 170.565 140.615C170.461 140.592 170.37 140.528 170.313 140.438C170.256 140.348 170.237 140.239 170.26 140.136L173.991 123.558C174.001 123.505 174.021 123.454 174.051 123.408C174.081 123.363 174.119 123.324 174.164 123.294C174.209 123.264 174.26 123.243 174.314 123.233C174.367 123.224 174.422 123.225 174.475 123.236C174.528 123.248 174.578 123.271 174.622 123.302C174.666 123.334 174.703 123.374 174.731 123.421C174.759 123.467 174.777 123.519 174.785 123.572C174.792 123.626 174.789 123.681 174.775 123.733L171.044 140.311C171.022 140.398 170.972 140.475 170.901 140.53C170.83 140.585 170.743 140.615 170.654 140.615Z" fill="#D36E1D"/>
<path d="M186.918 78.7222L190.233 67.2707C190.233 67.2707 191.591 60.1874 199.13 59.4326C199.13 59.4326 200.017 53.8675 210.134 52.5014C219.149 51.2816 222.171 49.8724 226.861 47.8289C229.157 46.8244 233.99 49.9384 230.328 54.4588C227.765 57.6158 222.039 60.0353 222.039 60.0353C225.502 60.7919 229.048 61.0958 232.589 60.9393C238.166 60.6523 242.083 61.9955 242.385 65.7639C242.686 69.5323 239.371 70.2842 239.371 70.2842C239.371 70.2842 240.726 72.8472 239.371 74.8046C238.017 76.7619 236.808 76.914 236.808 76.914C236.808 76.914 238.014 80.6824 233.795 81.8878C233.795 81.8878 234.547 85.2028 230.328 86.1068C226.109 87.0109 211.641 82.0399 208.174 81.7386C204.707 81.4372 186.918 78.7222 186.918 78.7222Z" fill="#EFAD4D"/>
<path d="M209.072 63.4506C209.019 63.4514 208.966 63.4413 208.917 63.4211C208.867 63.4009 208.823 63.3709 208.785 63.333C204.193 58.7409 199.262 59.8114 199.213 59.8229C199.161 59.8389 199.106 59.8439 199.051 59.8377C198.996 59.8315 198.944 59.8141 198.896 59.7867C198.849 59.7593 198.807 59.7224 198.774 59.6783C198.741 59.6343 198.718 59.584 198.706 59.5305C198.693 59.477 198.691 59.4215 198.701 59.3675C198.711 59.3134 198.732 59.2619 198.762 59.2162C198.792 59.1704 198.832 59.1314 198.878 59.1015C198.924 59.0716 198.976 59.0514 199.03 59.0423C199.248 58.9906 204.428 57.8397 209.362 62.7733C209.401 62.8105 209.431 62.8551 209.452 62.9044C209.473 62.9537 209.484 63.0068 209.484 63.0603C209.484 63.1139 209.473 63.1669 209.452 63.2162C209.431 63.2655 209.401 63.3101 209.362 63.3473C209.323 63.3833 209.277 63.411 209.228 63.4288C209.178 63.4465 209.125 63.454 209.072 63.4506Z" fill="#D36E1D"/>
<path d="M239.366 70.686C239.279 70.6859 239.195 70.658 239.126 70.6063C239.056 70.5546 239.006 70.4819 238.981 70.399C238.725 69.6814 238.264 69.0545 237.655 68.5956C237.047 68.1366 236.318 67.8656 235.557 67.816L235.302 67.7902C231.949 67.4573 223.052 66.5676 219.772 65.2272C219.721 65.2085 219.675 65.1797 219.636 65.1427C219.597 65.1058 219.565 65.0613 219.544 65.012C219.522 64.9626 219.511 64.9094 219.51 64.8556C219.509 64.8017 219.52 64.7483 219.54 64.6984C219.56 64.6486 219.591 64.6033 219.629 64.5654C219.667 64.5274 219.712 64.4976 219.763 64.4776C219.813 64.4576 219.866 64.4478 219.92 64.4489C219.974 64.45 220.027 64.4619 220.076 64.4839C223.247 65.7811 232.061 66.6622 235.379 66.9923L235.637 67.0182C236.557 67.0828 237.437 67.4166 238.169 67.978C238.9 68.5393 239.45 69.3035 239.75 70.1752C239.765 70.2259 239.77 70.279 239.764 70.3316C239.759 70.3842 239.743 70.4351 239.717 70.4814C239.692 70.5278 239.658 70.5688 239.617 70.6019C239.576 70.6351 239.528 70.6598 239.478 70.6746C239.441 70.684 239.403 70.6878 239.366 70.686Z" fill="#D36E1D"/>
<path d="M236.803 77.3159C236.707 77.3157 236.615 77.2816 236.542 77.2195C236.47 77.1575 236.422 77.0716 236.407 76.9772C236.384 76.8309 235.807 73.4184 232.388 73.0941C225.882 72.4741 221.654 70.7148 218.256 69.297C218.163 69.2527 218.09 69.1741 218.053 69.0776C218.016 68.9812 218.018 68.8742 218.058 68.7789C218.098 68.6836 218.173 68.6073 218.268 68.5659C218.362 68.5245 218.469 68.5211 218.566 68.5565C221.913 69.9514 226.08 71.6878 232.466 72.2876C236.507 72.6722 237.187 76.8051 237.193 76.8452C237.201 76.8971 237.199 76.95 237.187 77.001C237.174 77.052 237.152 77.1001 237.121 77.1425C237.09 77.1849 237.051 77.2207 237.006 77.248C236.962 77.2753 236.912 77.2935 236.86 77.3016L236.803 77.3159Z" fill="#D36E1D"/>
<path d="M233.795 82.2896C233.699 82.29 233.607 82.2561 233.534 82.1939C233.461 82.1317 233.413 82.0455 233.399 81.9509C233.379 81.8218 232.85 78.7939 228.898 78.062C227.816 77.864 226.746 77.6803 225.698 77.488C221.253 76.7275 217.051 76.0099 214.299 74.3826C214.253 74.3557 214.213 74.3201 214.182 74.2778C214.15 74.2355 214.127 74.1874 214.114 74.1362C214.101 74.085 214.098 74.0318 214.106 73.9795C214.113 73.9273 214.131 73.877 214.158 73.8316C214.185 73.7862 214.22 73.7465 214.263 73.7148C214.305 73.6832 214.353 73.6602 214.404 73.6471C214.455 73.6341 214.509 73.6312 214.561 73.6387C214.613 73.6463 214.663 73.664 214.709 73.6909C217.332 75.2436 221.462 75.9497 225.833 76.6959C226.887 76.8767 227.96 77.0604 229.045 77.2699C233.574 78.1051 234.185 81.7873 234.191 81.8247C234.199 81.8767 234.197 81.9299 234.184 81.981C234.172 82.0322 234.149 82.0804 234.118 82.1228C234.087 82.1652 234.047 82.201 234.002 82.2282C233.957 82.2553 233.907 82.2733 233.855 82.281L233.795 82.2896Z" fill="#D36E1D"/>
<path d="M213.13 71.2888C213.042 71.2885 212.956 71.2592 212.886 71.2054C212.817 71.1516 212.766 71.0763 212.743 70.9911C212.721 70.9058 212.726 70.8155 212.76 70.7339C212.794 70.6523 212.853 70.5841 212.929 70.5397C217.433 67.9222 219.68 63.3646 219.703 63.3273C219.723 63.2755 219.754 63.2285 219.793 63.1892C219.832 63.1499 219.879 63.1192 219.931 63.0989C219.982 63.0787 220.038 63.0694 220.093 63.0715C220.148 63.0737 220.203 63.0874 220.253 63.1117C220.303 63.1359 220.347 63.1703 220.383 63.2125C220.419 63.2548 220.446 63.3041 220.462 63.3572C220.478 63.4104 220.483 63.4662 220.476 63.5214C220.469 63.5765 220.451 63.6296 220.423 63.6774C220.328 63.8726 218.055 68.4905 213.331 71.2342C213.27 71.2701 213.201 71.289 213.13 71.2888Z" fill="#D36E1D"/>
<path d="M222.028 60.4371C221.907 60.4371 219.092 60.4084 217.332 58.012C217.274 57.9258 217.251 57.8203 217.269 57.7177C217.287 57.6152 217.344 57.5236 217.428 57.4622C217.512 57.4008 217.617 57.3744 217.72 57.3887C217.823 57.4029 217.917 57.4566 217.981 57.5384C219.502 59.6106 221.999 59.6335 222.028 59.6335C222.134 59.6335 222.236 59.6759 222.312 59.7512C222.387 59.8266 222.429 59.9288 222.429 60.0353C222.429 60.1419 222.387 60.2441 222.312 60.3195C222.236 60.3948 222.134 60.4371 222.028 60.4371Z" fill="#D36E1D"/>
<path d="M212.387 83.0445C212.349 83.0444 212.311 83.0386 212.275 83.0273C211.988 82.9412 204.939 80.8719 201.016 78.306C200.969 78.2787 200.927 78.242 200.895 78.1982C200.862 78.1544 200.839 78.1044 200.826 78.0513C200.813 77.9981 200.812 77.943 200.821 77.8892C200.831 77.8354 200.851 77.784 200.881 77.7383C200.911 77.6926 200.949 77.6535 200.995 77.6233C201.041 77.5931 201.092 77.5725 201.146 77.5628C201.199 77.5531 201.254 77.5544 201.308 77.5667C201.361 77.5791 201.411 77.6021 201.455 77.6345C205.278 80.1343 212.43 82.2265 212.502 82.2581C212.594 82.286 212.673 82.346 212.725 82.4272C212.776 82.5085 212.797 82.6055 212.783 82.7007C212.769 82.796 212.722 82.883 212.649 82.9461C212.576 83.0092 212.483 83.0441 212.387 83.0445Z" fill="#D36E1D"/>
<path d="M88.3722 132.639C88.2814 132.639 88.1932 132.608 88.1219 132.552C88.0506 132.496 88.0003 132.417 87.979 132.329C85.7346 122.743 85.3587 108.315 85.3558 108.172C85.3547 108.119 85.3639 108.067 85.3831 108.017C85.4022 107.968 85.4308 107.923 85.4674 107.885C85.5039 107.847 85.5475 107.816 85.5959 107.795C85.6442 107.774 85.6962 107.762 85.749 107.761C85.8536 107.764 85.9536 107.805 86.0294 107.877C86.1053 107.95 86.1516 108.047 86.1594 108.152C86.1594 108.295 86.5354 122.64 88.7626 132.145C88.7879 132.248 88.772 132.356 88.7183 132.447C88.6647 132.537 88.5775 132.603 88.4756 132.63L88.3722 132.639Z" fill="#4B0755"/>
<path d="M76.2131 40.0117C74.8676 37.9625 70.4026 30.2152 65.3826 11.48C63.3971 4.07016 65.9721 1.79182 67.8296 1.29411C69.6871 0.796389 73.0564 1.48197 75.0418 8.89182C80.0619 27.627 80.0688 36.5689 79.9282 39.0162C79.8681 40.0621 79.6656 41.0086 78.5511 41.3072C77.4366 41.6059 76.7881 40.8874 76.2131 40.0117Z" fill="#FA427F"/>
<path d="M82.3235 55.386C84.9908 54.6713 86.5753 51.9355 85.8626 49.2755C85.1498 46.6155 82.4097 45.0385 79.7424 45.7532C77.0751 46.4679 75.4906 49.2037 76.2033 51.8637C76.9161 54.5237 79.6562 56.1007 82.3235 55.386Z" fill="#FA427F"/>
</svg>
