<svg width="256" height="164" viewBox="0 0 256 164" fill="none" xmlns="http://www.w3.org/2000/svg">
<path d="M95.9273 133.242C95.5179 129.668 93.3672 126.625 90.1716 124.505L90.08 124.444C89.9822 124.376 89.8783 124.315 89.7745 124.254C89.6706 124.193 89.5912 124.132 89.4934 124.077C85.3813 121.633 79.7173 120.619 73.8639 121.786L73.2529 121.926C71.102 122.412 69.0191 123.161 67.0512 124.156C66.8434 124.26 66.6357 124.376 66.4402 124.486L66.1836 124.621H66.1408C65.1139 125.185 64.1223 125.812 63.1713 126.496H63.1347L62.9452 126.637L62.5114 126.955C62.1815 127.205 61.8393 127.456 61.5094 127.731C61.5094 127.731 60.1652 129.808 57.6661 134.452C57.5439 134.666 57.4278 134.892 57.3056 135.124C56.5887 136.456 55.7924 137.985 54.9166 139.713L54.8372 139.871L54.6722 140.195L54.5683 140.409C54.049 141.436 53.5113 142.517 52.943 143.678C52.5948 144.387 52.2404 145.12 51.8738 145.878C50.3157 149.11 48.5744 152.837 46.6864 157.059C46.5825 157.303 46.4725 157.548 46.3625 157.792C45.499 159.723 44.6028 161.857 43.6741 164H89.4999C92.9694 155.852 92.7012 146.622 95.4079 138.222C95.8592 136.87 96.0661 135.448 96.0189 134.024C95.9762 133.822 95.9579 133.529 95.9273 133.242Z" fill="#4152C9"/>
<path d="M43.6802 85.8401L57.6661 121.48L54.4155 135.063C54.4155 135.063 68.1876 146.733 91.7846 137.122L96.0617 131.494L84.752 92.9095L43.6802 85.8401Z" fill="#E54062"/>
<path d="M61.9003 65.9397L56.0836 67.235C51.5927 68.2432 45.4215 69.7218 44.0651 70.9927C41.7983 73.119 39.7147 79.6262 42.8064 86.9155C45.8981 94.2048 74.1815 121.828 74.1815 121.828L98.2674 116.745C98.2674 116.745 89.6522 72.5569 86.5544 72.1414C83.4566 71.7259 61.9003 65.9397 61.9003 65.9397Z" fill="#E54062"/>
<path d="M76.1857 57.3306C76.1857 57.3306 73.2467 66.8745 76.9983 69.2941C77.6433 69.6959 78.3081 70.065 78.9902 70.4C81.758 71.8053 84.7825 76.5895 76.2834 81.5142C76.2834 81.5142 57.9227 78.7097 54.6172 67.5955C56.5771 67.2153 58.5022 66.6737 60.3728 65.9764C62.2914 65.1943 65.4136 56.3286 63.99 48.5383C63.99 48.5383 68.267 52.5525 70.4483 53.5118C72.6296 54.4711 76.1857 57.3306 76.1857 57.3306Z" fill="#AC7433"/>
<path d="M57.8984 66.8073C57.8984 66.8073 61.2223 82.779 74.8966 88.834L75.9659 87.7098C75.9659 87.7098 61.9127 79.339 59.9575 66.288L57.8984 66.8073Z" fill="#FDC652"/>
<path d="M74.9941 87.5143C74.9941 87.5143 80.1694 79.6995 78.8985 70.3267L80.6337 70.7605C80.6337 70.7605 81.147 82.1436 76.65 88.4797L74.9941 87.5143Z" fill="#FDC652"/>
<path d="M76.2434 91.87C77.332 91.6701 77.9814 90.2382 77.6939 88.6716C77.4064 87.105 76.2908 85.997 75.2021 86.1968C74.1135 86.3966 73.464 87.8286 73.7516 89.3951C74.0391 90.9617 75.1547 92.0698 76.2434 91.87Z" fill="#FCA200"/>
<path d="M76.1431 90.8293C76.8102 90.7068 77.1955 89.76 77.0036 88.7145C76.8117 87.669 76.1153 86.9207 75.4482 87.0432C74.7811 87.1656 74.3958 88.1124 74.5877 89.1579C74.7796 90.2034 75.4759 90.9517 76.1431 90.8293Z" fill="#FDC652"/>
<path d="M211.224 17.0165C211.224 12.66 207.888 9.12842 203.764 9.12842C160.658 9.12842 132.429 9.12842 95.127 9.12842C91.0088 9.12842 87.6666 12.66 87.6666 17.0165L87.6665 164H211.249L211.224 17.0165Z" fill="white"/>
<path d="M208.652 0H90.2816C84.5626 0 79.925 4.88803 79.925 10.9492V164H87.7031V17.0165C87.7031 12.66 91.0454 9.12842 95.1635 9.12842C137.835 9.12842 166.318 9.12842 203.764 9.12842C207.888 9.12842 211.224 12.66 211.224 17.0165V164H219.002V10.9492C219.002 4.90025 214.371 0 208.652 0Z" fill="#353535"/>
<path d="M192.265 24.4668H106.113C104.638 24.4668 103.443 25.6622 103.443 27.1369V36.082C103.443 37.5566 104.638 38.7521 106.113 38.7521H192.265C193.739 38.7521 194.935 37.5566 194.935 36.082V27.1369C194.935 25.6622 193.739 24.4668 192.265 24.4668Z" fill="#BDC7DC"/>
<path d="M197.159 141.175H101.219C99.8756 141.175 98.7869 142.264 98.7869 143.607V150.725C98.7869 152.068 99.8756 153.157 101.219 153.157H197.159C198.502 153.157 199.591 152.068 199.591 150.725V143.607C199.591 142.264 198.502 141.175 197.159 141.175Z" fill="#BDC7DC"/>
<path d="M105.563 48.5954H191.195C191.375 48.5954 191.548 48.5239 191.675 48.3967C191.802 48.2695 191.874 48.097 191.874 47.9172C191.874 47.7373 191.802 47.5648 191.675 47.4376C191.548 47.3104 191.375 47.2389 191.195 47.2389H105.563C105.383 47.2389 105.211 47.3104 105.083 47.4376C104.956 47.5648 104.885 47.7373 104.885 47.9172C104.885 48.097 104.956 48.2695 105.083 48.3967C105.211 48.5239 105.383 48.5954 105.563 48.5954Z" fill="#BDC7DC"/>
<path d="M181.511 60.7116H115.247C115.078 60.7277 114.92 60.8064 114.806 60.9324C114.691 61.0584 114.627 61.2226 114.627 61.3929C114.627 61.5632 114.691 61.7274 114.806 61.8534C114.92 61.9794 115.078 62.0581 115.247 62.0742H181.511C181.68 62.0581 181.838 61.9794 181.952 61.8534C182.067 61.7274 182.13 61.5632 182.13 61.3929C182.13 61.2226 182.067 61.0584 181.952 60.9324C181.838 60.8064 181.68 60.7277 181.511 60.7116Z" fill="#BDC7DC"/>
<path d="M199.859 53.9783H96.8989C96.719 53.9783 96.5466 54.0498 96.4194 54.177C96.2922 54.3042 96.2207 54.4767 96.2207 54.6565C96.2207 54.8364 96.2922 55.0089 96.4194 55.1361C96.5466 55.2633 96.719 55.3348 96.8989 55.3348H199.859C200.039 55.3348 200.212 55.2633 200.339 55.1361C200.466 55.0089 200.538 54.8364 200.538 54.6565C200.538 54.4767 200.466 54.3042 200.339 54.177C200.212 54.0498 200.039 53.9783 199.859 53.9783Z" fill="#BDC7DC"/>
<path d="M149.464 129.095C165.145 129.095 177.857 116.383 177.857 100.702C177.857 85.0207 165.145 72.3085 149.464 72.3085C133.782 72.3085 121.07 85.0207 121.07 100.702C121.07 116.383 133.782 129.095 149.464 129.095Z" fill="#52B7AD"/>
<path d="M177.863 100.702C177.863 99.8954 177.827 99.0889 177.759 98.3007L170.073 90.4309L143.958 117.926L155.213 128.545C161.617 127.222 167.368 123.728 171.494 118.655C175.621 113.583 177.871 107.241 177.863 100.702Z" fill="#11928E"/>
<path d="M170.073 88.9462L166.022 84.8952C165.782 84.6521 165.497 84.459 165.182 84.3272C164.868 84.1954 164.53 84.1276 164.189 84.1276C163.848 84.1276 163.51 84.1954 163.195 84.3272C162.88 84.459 162.595 84.6521 162.356 84.8952L143.983 103.836L135.636 95.49C135.065 94.9303 134.298 94.6167 133.498 94.6167C132.698 94.6167 131.93 94.9303 131.359 95.49L127.864 98.985C127.322 99.534 127.017 100.275 127.017 101.047C127.017 101.819 127.322 102.56 127.864 103.109L138.08 113.319C138.098 113.344 138.118 113.367 138.142 113.386L142.193 117.443C142.433 117.684 142.719 117.875 143.033 118.006C143.348 118.136 143.685 118.203 144.026 118.203C144.366 118.203 144.703 118.136 145.018 118.006C145.332 117.875 145.618 117.684 145.859 117.443L146.47 116.832C146.495 116.815 146.517 116.795 146.537 116.771L149.237 114.071L149.299 114.004L170.073 92.6183C170.316 92.3784 170.509 92.0926 170.641 91.7774C170.773 91.4622 170.841 91.1239 170.841 90.7822C170.841 90.4406 170.773 90.1023 170.641 89.7871C170.509 89.4719 170.316 89.1861 170.073 88.9462Z" fill="white"/>
<path d="M183.509 88.4512C183.597 88.4526 183.685 88.436 183.767 88.4024C183.849 88.3688 183.923 88.3189 183.985 88.2557L190.095 82.1457C190.158 82.0827 190.208 82.0079 190.242 81.9256C190.277 81.8433 190.294 81.7551 190.294 81.6661C190.294 81.577 190.277 81.4888 190.242 81.4065C190.208 81.3242 190.158 81.2494 190.095 81.1864C190.032 81.1234 189.958 81.0735 189.875 81.0394C189.793 81.0053 189.705 80.9877 189.616 80.9877C189.527 80.9877 189.438 81.0053 189.356 81.0394C189.274 81.0735 189.199 81.1234 189.136 81.1864L183.026 87.2964C182.9 87.4244 182.83 87.5967 182.83 87.7761C182.83 87.9555 182.9 88.1277 183.026 88.2557C183.089 88.3191 183.165 88.369 183.248 88.4026C183.33 88.4362 183.419 88.4528 183.509 88.4512Z" fill="#BDC7DC"/>
<path d="M183.985 108.113C183.923 108.05 183.848 107.999 183.766 107.964C183.683 107.93 183.595 107.912 183.506 107.912C183.416 107.912 183.328 107.93 183.246 107.964C183.163 107.999 183.089 108.05 183.026 108.113C182.9 108.241 182.83 108.414 182.83 108.593C182.83 108.772 182.9 108.945 183.026 109.073L189.136 115.183C189.199 115.246 189.275 115.296 189.358 115.33C189.441 115.363 189.529 115.38 189.619 115.378C189.707 115.38 189.795 115.363 189.877 115.329C189.959 115.296 190.033 115.246 190.095 115.183C190.159 115.12 190.21 115.046 190.244 114.963C190.279 114.881 190.297 114.792 190.297 114.703C190.297 114.614 190.279 114.525 190.244 114.443C190.21 114.361 190.159 114.286 190.095 114.223L183.985 108.113Z" fill="#BDC7DC"/>
<path d="M196.639 97.5063H183.729C183.549 97.5063 183.376 97.5778 183.249 97.705C183.122 97.8322 183.051 98.0047 183.051 98.1846C183.051 98.3644 183.122 98.537 183.249 98.6641C183.376 98.7913 183.549 98.8628 183.729 98.8628H196.639C196.819 98.8628 196.992 98.7913 197.119 98.6641C197.246 98.537 197.318 98.3644 197.318 98.1846C197.318 98.0047 197.246 97.8322 197.119 97.705C196.992 97.5778 196.819 97.5063 196.639 97.5063Z" fill="#BDC7DC"/>
<path d="M141.826 122.898C141.266 122.321 140.95 121.552 140.943 120.748C140.936 119.945 141.239 119.17 141.789 118.584C141.82 117.845 141.587 117.119 141.133 116.535C140.679 115.951 140.032 115.547 139.309 115.394C139.641 114.921 139.824 114.359 139.834 113.781C139.834 111.6 136.84 111.276 135.129 111.209L128.451 110.983C128.451 110.983 130.571 109.523 131.091 109.15C133.205 107.537 134.353 105.405 132.924 103.364C131.494 101.323 127.59 104.5 125.512 105.722C124.253 106.468 121.547 107.073 119.915 107.781L117.331 108.881L76.6378 108.099C74.3563 108.061 72.1526 108.928 70.5085 110.511C68.8644 112.093 67.9135 114.262 67.8638 116.543L67.8149 119.213C67.7772 121.496 68.6451 123.7 70.2287 125.345C71.8124 126.989 73.9827 127.939 76.2651 127.987L122.091 128.861C122.384 128.866 122.678 128.856 122.97 128.831L134.659 129.24C136.37 129.301 139.675 129.759 139.223 126.093C139.223 125.824 140.152 125.824 140.097 125.574C140.597 125.322 141.021 124.941 141.325 124.471C141.629 124 141.802 123.457 141.826 122.898Z" fill="#AC7433"/>
<path d="M136.718 117.05H136.59L126.679 116.574C126.646 116.572 126.614 116.564 126.584 116.55C126.555 116.536 126.528 116.516 126.506 116.492C126.483 116.467 126.466 116.439 126.455 116.408C126.444 116.377 126.439 116.344 126.441 116.311C126.446 116.245 126.476 116.184 126.525 116.139C126.573 116.095 126.638 116.071 126.704 116.073L136.614 116.549C137.376 116.574 138.116 116.296 138.672 115.776C139.229 115.256 139.557 114.537 139.584 113.775C139.585 113.742 139.593 113.71 139.607 113.68C139.621 113.651 139.641 113.624 139.666 113.602C139.69 113.58 139.719 113.562 139.75 113.551C139.781 113.54 139.814 113.535 139.846 113.537C139.879 113.539 139.912 113.547 139.941 113.561C139.971 113.575 139.998 113.595 140.02 113.619C140.042 113.643 140.059 113.672 140.07 113.703C140.082 113.734 140.086 113.767 140.085 113.8C140.05 114.671 139.681 115.495 139.054 116.101C138.426 116.706 137.59 117.046 136.718 117.05Z" fill="#833708"/>
<path d="M138.679 121.853H138.545L126.765 121.382C126.731 121.382 126.698 121.374 126.668 121.36C126.637 121.347 126.61 121.327 126.587 121.303C126.564 121.278 126.547 121.249 126.535 121.218C126.524 121.186 126.519 121.153 126.52 121.12C126.52 121.086 126.527 121.053 126.54 121.022C126.554 120.992 126.574 120.964 126.599 120.942C126.623 120.919 126.653 120.902 126.684 120.892C126.716 120.881 126.75 120.878 126.783 120.881L138.569 121.352C139.277 121.374 139.969 121.136 140.512 120.681C141.055 120.227 141.412 119.588 141.515 118.887C141.617 118.187 141.459 117.473 141.069 116.881C140.679 116.29 140.085 115.863 139.4 115.682C139.336 115.663 139.281 115.62 139.248 115.562C139.215 115.504 139.206 115.435 139.223 115.37C139.24 115.306 139.282 115.252 139.339 115.218C139.397 115.185 139.465 115.176 139.529 115.193C140.321 115.405 141.009 115.898 141.465 116.579C141.922 117.26 142.117 118.083 142.013 118.897C141.91 119.71 141.515 120.458 140.902 121.003C140.289 121.548 139.499 121.852 138.679 121.859V121.853Z" fill="#833708"/>
<path d="M138.71 126.167H138.582L126.789 125.714C126.756 125.713 126.724 125.705 126.694 125.691C126.665 125.677 126.638 125.657 126.616 125.632C126.594 125.608 126.577 125.58 126.565 125.548C126.554 125.517 126.549 125.485 126.551 125.452C126.551 125.419 126.558 125.386 126.571 125.356C126.584 125.326 126.603 125.299 126.627 125.276C126.651 125.254 126.68 125.237 126.711 125.226C126.742 125.215 126.775 125.211 126.808 125.213L138.6 125.659C138.977 125.673 139.354 125.613 139.707 125.481C140.061 125.349 140.385 125.149 140.662 124.892C140.938 124.635 141.161 124.326 141.318 123.983C141.475 123.64 141.562 123.269 141.576 122.892C141.621 122.534 141.567 122.171 141.42 121.841C141.274 121.512 141.04 121.228 140.745 121.022C140.716 121.002 140.692 120.976 140.673 120.946C140.655 120.916 140.643 120.883 140.639 120.848C140.634 120.813 140.637 120.778 140.647 120.744C140.657 120.711 140.674 120.68 140.697 120.653C140.719 120.626 140.748 120.605 140.779 120.59C140.811 120.575 140.845 120.566 140.88 120.565C140.915 120.564 140.95 120.571 140.983 120.584C141.015 120.598 141.044 120.618 141.069 120.643C141.424 120.897 141.704 121.24 141.882 121.639C142.059 122.038 142.126 122.476 142.077 122.91C142.044 123.782 141.675 124.608 141.048 125.215C140.42 125.821 139.583 126.162 138.71 126.167Z" fill="#833708"/>
<path d="M81.4769 16.0817C81.4769 16.0817 86.9393 14.0531 90.2204 17.1754C91.1552 17.9958 91.8516 19.053 92.2365 20.2357C92.6215 21.4184 92.6806 22.6829 92.4078 23.8964C92.4078 23.8964 95.8417 23.7376 96.7765 28.2651C97.7114 32.7927 95.9944 34.198 99.4283 34.6684C102.862 35.1389 100.834 40.1308 97.0881 40.7785C97.0881 40.7785 101.775 42.6543 99.8988 47.6462C98.023 52.6381 95.3712 50.3041 96.1533 53.5791C96.9354 56.8541 101.151 58.8887 97.0881 62.1698C93.0249 65.4509 90.9781 63.1046 90.9781 63.1046C90.9781 63.1046 94.4119 66.6974 88.1674 67.1617C81.923 67.6261 80.2244 65.1332 80.2244 65.1332C80.2244 65.1332 81.0003 68.1027 76.7844 67.6322C72.5685 67.1617 77.041 55.1921 77.041 55.1921C77.041 55.1921 66.1468 47.4751 65.5297 53.6952C64.6315 62.6647 62.383 65.457 59.9512 66.3185C57.2994 67.2534 56.4929 65.1332 56.4929 65.1332C56.4929 65.1332 48.9653 70.3267 46.6252 65.9581C44.6089 62.1881 47.5356 61.07 46.4785 59.848C46.2879 59.6324 46.0491 59.4648 45.7816 59.3586C45.5141 59.2525 45.2254 59.2108 44.9388 59.237C44.3216 59.3052 43.7215 59.4831 43.1669 59.7624C40.619 60.7767 36.0365 55.0271 41.505 52.3754C41.505 52.3754 36.5069 49.5648 37.9122 45.972C39.3175 42.3793 43.5335 42.6971 43.5335 42.6971C43.5335 42.6971 35.8837 39.2632 39.3175 33.9536C42.7514 28.6439 48.061 30.2081 48.061 30.2081C48.061 30.2081 41.8166 27.8618 45.2504 22.7111C48.6843 17.5603 53.9939 19.9005 53.9939 19.9005C53.9939 19.9005 51.2871 14.768 57.22 13.0511C63.1529 11.3341 63.9839 14.6214 67.6377 14.1326C74.0777 13.1977 75.6235 10.5399 81.4769 16.0817Z" fill="#212026"/>
<path d="M83.5056 52.3387L79.3752 62.8847C79.3656 62.9025 79.3608 62.9225 79.3614 62.9427C79.3619 62.9629 79.3677 62.9826 79.3782 62.9999C79.3887 63.0172 79.4035 63.0314 79.4212 63.0412C79.4389 63.051 79.4588 63.0561 79.4791 63.0558L88.9619 62.9702C88.9825 62.9683 89.0023 62.9615 89.0197 62.9502C89.0371 62.939 89.0515 62.9237 89.0617 62.9057C89.0719 62.8877 89.0776 62.8675 89.0783 62.8468C89.079 62.8261 89.0747 62.8056 89.0657 62.7869L83.7133 52.2959C83.7024 52.2745 83.6847 52.2572 83.663 52.2467C83.6413 52.2363 83.6167 52.2333 83.5931 52.2382C83.5695 52.243 83.5482 52.2555 83.5324 52.2736C83.5166 52.2918 83.5071 52.3147 83.5056 52.3387ZM81.7337 61.015L83.4811 56.5363C83.4894 56.5181 83.5026 56.5026 83.5194 56.4917C83.5362 56.4809 83.5558 56.4751 83.5758 56.4751C83.5958 56.4751 83.6154 56.4809 83.6322 56.4917C83.649 56.5026 83.6623 56.5181 83.6706 56.5363L85.9313 60.9783C85.9394 60.9946 85.9433 61.0126 85.9428 61.0308C85.9422 61.0489 85.9372 61.0667 85.9281 61.0824C85.919 61.0981 85.9062 61.1113 85.8907 61.1209C85.8753 61.1305 85.8577 61.1361 85.8396 61.1372L81.8253 61.1739C81.8065 61.1745 81.7878 61.17 81.7713 61.1609C81.7549 61.1517 81.7412 61.1383 81.7318 61.122C81.7224 61.1056 81.7176 61.0871 81.7179 61.0682C81.7182 61.0494 81.7237 61.031 81.7337 61.015Z" fill="#FDC652"/>
<path d="M83.7255 56.7746C83.6802 56.7739 83.636 56.7613 83.5972 56.738L81.9719 55.7848C81.9384 55.7705 81.9084 55.7492 81.8838 55.7225C81.8592 55.6957 81.8405 55.6639 81.8291 55.6294C81.8177 55.5949 81.8138 55.5583 81.8176 55.5221C81.8214 55.4859 81.8328 55.4509 81.8511 55.4195C81.8695 55.3881 81.8943 55.3609 81.9239 55.3398C81.9535 55.3187 81.9873 55.3042 82.023 55.2971C82.0587 55.29 82.0955 55.2906 82.1309 55.2989C82.1663 55.3071 82.1996 55.3228 82.2285 55.3449L83.6827 56.1942L84.9719 54.8744C84.9953 54.8502 85.0233 54.831 85.0543 54.8178C85.0852 54.8047 85.1185 54.7979 85.1522 54.7979C85.1858 54.7979 85.2191 54.8047 85.2501 54.8178C85.281 54.831 85.309 54.8502 85.3324 54.8744C85.3798 54.9224 85.4064 54.9872 85.4064 55.0547C85.4064 55.1221 85.3798 55.1869 85.3324 55.2349L83.9027 56.7013C83.855 56.7472 83.7917 56.7734 83.7255 56.7746Z" fill="#FCA200"/>
<path d="M84.9719 59.2186C84.9225 59.219 84.874 59.2046 84.8327 59.1774C84.7914 59.1503 84.759 59.1114 84.7397 59.0659C84.7128 59.0042 84.7111 58.9345 84.7351 58.8716C84.7591 58.8088 84.8068 58.7579 84.868 58.7299L86.4567 58.0333C86.5191 58.0067 86.5894 58.006 86.6524 58.0312C86.7154 58.0564 86.7658 58.1055 86.7927 58.1677C86.8176 58.2303 86.8176 58.3001 86.7926 58.3626C86.7676 58.4251 86.7195 58.4757 86.6583 58.5038L85.0758 59.2186C85.0417 59.2272 85.006 59.2272 84.9719 59.2186Z" fill="#FCA200"/>
<path d="M82.4242 59.292H82.3815L81.0617 59.0476C81.0287 59.0425 80.9972 59.0307 80.9689 59.013C80.9407 58.9953 80.9164 58.9719 80.8975 58.9445C80.8786 58.917 80.8655 58.886 80.8591 58.8533C80.8527 58.8206 80.853 58.7869 80.86 58.7543C80.872 58.6882 80.9094 58.6293 80.9643 58.5905C81.0191 58.5516 81.087 58.5359 81.1533 58.5466L82.4731 58.7909C82.5057 58.7968 82.5367 58.8091 82.5645 58.827C82.5923 58.845 82.6163 58.8683 82.6351 58.8955C82.6538 58.9228 82.667 58.9535 82.6738 58.9859C82.6806 59.0183 82.6809 59.0517 82.6747 59.0842C82.6634 59.1425 82.6323 59.195 82.5866 59.2329C82.5409 59.2708 82.4835 59.2916 82.4242 59.292Z" fill="#FCA200"/>
<path d="M79.479 63.3185C79.4426 63.3183 79.4067 63.3099 79.3739 63.2941C79.3412 63.2782 79.3124 63.2553 79.2896 63.2268C79.2673 63.2015 79.2503 63.1719 79.2397 63.1398C79.2291 63.1077 79.2251 63.0738 79.2279 63.0401C79.2308 63.0064 79.2404 62.9736 79.2563 62.9438C79.2721 62.9139 79.2939 62.8876 79.3202 62.8663L81.6176 60.9233C81.67 60.8857 81.7347 60.8693 81.7988 60.8773C81.8628 60.8853 81.9215 60.9171 81.9631 60.9664C82.0048 61.0158 82.0263 61.079 82.0234 61.1435C82.0205 61.208 81.9934 61.269 81.9475 61.3144L79.644 63.2574C79.5976 63.2961 79.5394 63.3177 79.479 63.3185Z" fill="#FCA200"/>
<path d="M88.8946 63.1169C88.8473 63.117 88.8009 63.1043 88.7602 63.0802L85.8396 61.2961C85.7833 61.2586 85.7436 61.2008 85.7288 61.1348C85.714 61.0688 85.7252 60.9996 85.7601 60.9417C85.7965 60.8858 85.8532 60.8462 85.9182 60.8314C85.9832 60.8166 86.0514 60.8276 86.1084 60.8622L89.0046 62.6464C89.0329 62.6638 89.0574 62.6868 89.0768 62.7138C89.0961 62.7408 89.1099 62.7714 89.1173 62.8039C89.1247 62.8363 89.1255 62.8699 89.1198 62.9026C89.1141 62.9354 89.1019 62.9667 89.084 62.9947C89.065 63.0291 89.0377 63.0582 89.0046 63.0796C88.9716 63.1009 88.9338 63.1137 88.8946 63.1169Z" fill="#FCA200"/>
<path d="M83.9272 63.1963C83.8937 63.1971 83.8605 63.1912 83.8294 63.179C83.7983 63.1668 83.77 63.1484 83.7461 63.1251C83.7221 63.1018 83.7031 63.0739 83.6902 63.0431C83.6772 63.0123 83.6705 62.9792 83.6705 62.9458L83.6278 61.2411C83.6269 61.2077 83.6328 61.1744 83.645 61.1433C83.6573 61.1122 83.6756 61.0839 83.699 61.06C83.7223 61.0361 83.7502 61.017 83.781 61.0041C83.8118 60.9911 83.8448 60.9844 83.8783 60.9845C83.9453 60.9828 84.0104 61.0074 84.0595 61.0531C84.1086 61.0988 84.1378 61.1618 84.141 61.2288L84.1777 62.9397C84.1793 62.9728 84.1742 63.0059 84.1627 63.0369C84.1512 63.068 84.1334 63.0964 84.1106 63.1204C84.0877 63.1444 84.0602 63.1636 84.0297 63.1766C83.9992 63.1896 83.9664 63.1963 83.9333 63.1963H83.9272Z" fill="#FCA200"/>
<path d="M88.1553 33.0371C88.1553 33.0371 87.7765 26.8048 79.0514 25.3812C70.3262 23.9575 59.542 30.703 63.1958 44.4018L88.1553 33.0371Z" fill="#E54062"/>
<path d="M82.5524 30.8008C81.1886 30.2191 79.6938 30.0137 78.2237 30.2061C76.7536 30.3985 75.362 30.9815 74.1938 31.8945C71.4443 34.0575 69.0003 37.7296 67.3994 42.2082C64.3444 50.634 66.1774 58.9926 71.4259 60.8745C76.6745 62.7564 83.3772 57.4528 86.4017 49.0271C88.2347 43.9435 88.3997 39.0005 87.0799 35.4383C86.6838 34.3961 86.0774 33.4465 85.2985 32.6486C84.5196 31.8508 83.5848 31.2218 82.5524 30.8008Z" fill="#AC7433"/>
<path d="M79.3874 51.8194C78.7036 51.7771 78.0349 51.6005 77.4195 51.2996C76.8041 50.9987 76.254 50.5794 75.8008 50.0658C75.3364 49.3692 75.2325 48.8438 75.5075 48.5627C75.6477 48.4492 75.8203 48.3833 76.0005 48.3745C76.1807 48.3657 76.3589 48.4145 76.5095 48.5138C76.563 48.5498 76.601 48.6046 76.6159 48.6674C76.6308 48.7301 76.6215 48.7961 76.59 48.8523C76.5584 48.9086 76.5068 48.9508 76.4455 48.9707C76.3842 48.9907 76.3176 48.9868 76.259 48.9599C76.2058 48.9216 76.1439 48.897 76.0788 48.8885C76.0138 48.88 75.9476 48.8877 75.8863 48.911C75.8558 48.911 75.8252 49.1859 76.2224 49.7786C76.6494 50.252 77.1704 50.6313 77.7522 50.8922C78.3339 51.1531 78.9636 51.2899 79.6012 51.2939C79.7112 51.2939 79.7784 51.2633 79.8029 51.2022C79.8029 51.1656 79.8701 51.0495 79.7601 50.7562C79.1967 49.2886 79.2318 47.6584 79.8579 46.2164C80.0704 45.741 80.3133 45.2798 80.585 44.8356C80.6224 44.779 80.6806 44.7395 80.747 44.7258C80.8134 44.712 80.8825 44.7252 80.9393 44.7622C80.9671 44.7802 80.9911 44.8035 81.0098 44.8307C81.0286 44.858 81.0418 44.8887 81.0486 44.9211C81.0554 44.9535 81.0557 44.9869 81.0496 45.0194C81.0434 45.0519 81.0308 45.0829 81.0126 45.1105C80.7548 45.5333 80.5242 45.9721 80.3222 46.4242C79.7533 47.7454 79.7248 49.237 80.2428 50.579C80.3085 50.7174 80.3426 50.8688 80.3426 51.022C80.3426 51.1752 80.3085 51.3265 80.2428 51.465C80.1799 51.5605 80.096 51.6405 79.9975 51.6987C79.899 51.757 79.7886 51.7919 79.6745 51.801C79.5793 51.8136 79.4834 51.8197 79.3874 51.8194Z" fill="#833708"/>
<path d="M66.0795 47.8845C65.4709 47.9763 64.8489 47.9046 64.2771 47.6767C63.894 47.5163 63.5462 47.2819 63.2536 46.987C62.961 46.6921 62.7294 46.3425 62.572 45.9581C62.4145 45.5737 62.3343 45.1621 62.336 44.7467C62.3376 44.3313 62.4211 43.9203 62.5815 43.5372C62.742 43.1541 62.9764 42.8063 63.2713 42.5137C63.5661 42.2211 63.9158 41.9895 64.3002 41.8321C64.6846 41.6746 65.0962 41.5944 65.5116 41.5961C65.927 41.5977 66.338 41.6812 66.7211 41.8416C66.9179 41.925 67.1062 42.0273 67.2832 42.1471L67.5032 42.306C67.0552 43.5723 66.6978 44.8689 66.4339 46.1859L66.0795 47.8845Z" fill="#AC7433"/>
<path d="M66.098 46.1676C66.0374 46.1682 65.9787 46.1469 65.9326 46.1076C65.8865 46.0683 65.8563 46.0136 65.8475 45.9537C65.8093 45.5228 65.647 45.1122 65.3803 44.7717C65.1135 44.4311 64.7536 44.1753 64.3444 44.0352C64.3116 44.028 64.2807 44.0143 64.2533 43.995C64.2259 43.9756 64.2027 43.9509 64.1851 43.9224C64.1674 43.8939 64.1556 43.8622 64.1505 43.8291C64.1453 43.796 64.1468 43.7622 64.155 43.7297C64.1613 43.6965 64.1745 43.665 64.1936 43.6372C64.2128 43.6094 64.2375 43.5858 64.2662 43.568C64.2949 43.5502 64.327 43.5385 64.3604 43.5338C64.3938 43.529 64.4279 43.5312 64.4605 43.5403C64.9691 43.6999 65.4194 44.0058 65.7552 44.4198C66.0909 44.8338 66.2973 45.3376 66.3485 45.8682C66.3546 45.9011 66.354 45.9349 66.3468 45.9677C66.3397 46.0004 66.326 46.0314 66.3066 46.0587C66.2872 46.0861 66.2626 46.1092 66.2341 46.1269C66.2056 46.1445 66.1738 46.1563 66.1407 46.1614L66.098 46.1676Z" fill="#833708"/>
<path d="M75.9658 55.5526C75.9658 55.5526 74.1694 57.0312 73.0085 56.4508C71.8476 55.8703 71.6582 55.1982 72.0859 52.3448C72.5136 49.4914 75.9658 55.5526 75.9658 55.5526Z" fill="#C50F59"/>
<path d="M72.3058 51.0006C72.3058 51.0006 72.1286 54.8011 73.7417 55.4793C75.3547 56.1575 77.811 54.3 77.3772 53.9823C77.3772 53.9823 74.3221 53.023 72.8496 51.0128C72.8496 51.0128 72.3302 50.133 72.3058 51.0006Z" fill="white"/>
<path d="M74.64 55.9131C74.2985 55.9127 73.9603 55.8463 73.6441 55.7176C71.5727 54.8622 72.0738 50.4202 72.0982 50.2186C72.1059 50.1515 72.1397 50.0901 72.1923 50.0478C72.2449 50.0055 72.3121 49.9856 72.3793 49.9925C72.4469 50.0016 72.5083 50.0367 72.5504 50.0903C72.5926 50.1439 72.6123 50.2118 72.6054 50.2796C72.4648 51.4589 72.416 54.6483 73.8274 55.2288C75.5504 55.9436 77.4384 53.964 77.4568 53.9457C77.5047 53.9046 77.5661 53.8826 77.6292 53.884C77.6924 53.8853 77.7528 53.9099 77.799 53.953C77.8451 53.9961 77.8737 54.0548 77.8794 54.1177C77.885 54.1806 77.8672 54.2433 77.8295 54.2939C77.7684 54.3856 76.3142 55.9131 74.64 55.9131Z" fill="#84052F"/>
<path d="M78.1045 54.129C78.1045 54.129 78.1044 53.298 76.528 52.4243C75.4546 51.8587 74.3128 51.4336 73.1309 51.1595C73.1309 51.1595 74.9089 53.9518 78.1045 54.129Z" fill="#C50F59"/>
<path d="M78.416 54.3917C77.4078 54.3917 74.6461 54.0312 72.141 50.4018C72.1221 50.3745 72.1088 50.3438 72.1018 50.3114C72.0949 50.279 72.0944 50.2455 72.1003 50.2129C72.1063 50.1802 72.1186 50.1491 72.1366 50.1213C72.1545 50.0934 72.1779 50.0694 72.2051 50.0505C72.2324 50.0316 72.2632 50.0184 72.2956 50.0114C72.328 50.0044 72.3615 50.0039 72.3941 50.0098C72.4267 50.0158 72.4578 50.0281 72.4857 50.0461C72.5136 50.0641 72.5376 50.0874 72.5565 50.1146C75.4404 54.2756 78.7032 53.8723 78.7337 53.8662C78.8007 53.8573 78.8686 53.8745 78.9233 53.9144C78.9779 53.9542 79.015 54.0136 79.027 54.0801C79.0357 54.1473 79.0175 54.2152 78.9762 54.269C78.935 54.3228 78.8742 54.3581 78.807 54.3673C78.6776 54.3863 78.5468 54.3945 78.416 54.3917Z" fill="#84052F"/>
<path d="M71.6641 50.5301C71.5502 50.539 71.4358 50.539 71.322 50.5301C71.256 50.521 71.1961 50.4865 71.1551 50.4341C71.1141 50.3816 71.095 50.3153 71.102 50.2491C71.1112 50.1815 71.1462 50.1201 71.1998 50.0779C71.2534 50.0357 71.3213 50.016 71.3892 50.023C72.0264 50.0699 72.6635 49.9298 73.2222 49.6197C73.2806 49.5862 73.3499 49.5771 73.4151 49.5942C73.4802 49.6114 73.5361 49.6534 73.5704 49.7114C73.604 49.7698 73.6131 49.8391 73.596 49.9043C73.5788 49.9695 73.5368 50.0253 73.4788 50.0597C72.9212 50.3618 72.2983 50.5233 71.6641 50.5301Z" fill="#833708"/>
<path d="M73.6194 61.7849C72.7372 61.7877 71.8624 61.6239 71.041 61.3022C70.986 61.3022 69.208 60.6912 67.375 58.1494L67.21 57.9294C66.4584 56.9152 65.1937 55.2104 65.4197 49.8214C65.4197 49.7533 65.4467 49.688 65.4949 49.6399C65.543 49.5918 65.6083 49.5648 65.6763 49.5648C65.7444 49.5648 65.8097 49.5918 65.8578 49.6399C65.9059 49.688 65.9329 49.7533 65.9329 49.8214C65.7069 55.0332 66.9045 56.6463 67.6193 57.6056L67.7904 57.8378C69.4829 60.2024 71.1876 60.8011 71.2059 60.8072C72.5934 61.3395 74.1201 61.3869 75.538 60.9417C75.6028 60.9221 75.6727 60.9284 75.733 60.9591C75.7934 60.9899 75.8395 61.0427 75.8618 61.1067C75.8814 61.1699 75.8758 61.2382 75.8462 61.2975C75.8166 61.3567 75.7653 61.4021 75.7029 61.4244C75.0324 61.6561 74.3288 61.7778 73.6194 61.7849Z" fill="#833708"/>
<path d="M67.5582 45.5199C67.5582 45.5199 69.3912 39.8375 72.1224 38.3161C74.8536 36.7947 73.2405 31.5156 77.8047 31.8211C81.6846 32.0777 81.3119 34.2651 84.1653 35.5727C85.0746 35.985 86.0631 36.1936 87.0615 36.1837H87.1348C87.5558 37.4864 87.8385 38.8299 87.978 40.1919C87.978 41.5117 89.976 37.3018 89.2672 34.4607C88.5584 31.6195 80.0349 24.7212 72.1224 28.5767C64.2099 32.4321 64.717 41.7622 64.717 41.7622C64.717 41.7622 67.5582 41.2551 67.5582 45.5199Z" fill="#212026"/>
<path d="M65.6765 46.7052L57.1224 55.6626C57.1002 55.6873 57.084 55.7169 57.0752 55.749C57.0664 55.7811 57.0652 55.8148 57.0718 55.8474C57.0783 55.8801 57.0924 55.9107 57.1128 55.937C57.1333 55.9632 57.1596 55.9843 57.1896 55.9986L67.1612 60.3429C67.1942 60.3575 67.2305 60.363 67.2664 60.3587C67.3022 60.3545 67.3362 60.3408 67.3649 60.319C67.3936 60.2971 67.4159 60.268 67.4296 60.2346C67.4432 60.2012 67.4476 60.1647 67.4423 60.129L66.037 46.8274C66.0366 46.7856 66.0232 46.745 65.9987 46.7111C65.9741 46.6772 65.9397 46.6518 65.9001 46.6384C65.8605 46.625 65.8177 46.6242 65.7776 46.6362C65.7376 46.6482 65.7022 46.6723 65.6765 46.7052ZM60.6479 54.7155L63.8312 51.3855C63.8524 51.3628 63.8797 51.3467 63.9099 51.3393C63.94 51.3319 63.9716 51.3336 64.0009 51.344C64.0301 51.3544 64.0557 51.3731 64.0744 51.3978C64.0931 51.4226 64.1042 51.4523 64.1062 51.4833L64.6317 56.4324C64.6348 56.4609 64.6306 56.4896 64.6193 56.5159C64.608 56.5421 64.59 56.565 64.5673 56.5823C64.5445 56.5995 64.5176 56.6105 64.4892 56.6143C64.4609 56.618 64.4321 56.6143 64.4056 56.6035L60.6968 54.9844C60.6716 54.9741 60.6495 54.9579 60.6321 54.937C60.6148 54.9161 60.6029 54.8912 60.5974 54.8647C60.592 54.8381 60.5932 54.8105 60.6009 54.7845C60.6087 54.7585 60.6227 54.7348 60.6418 54.7155H60.6479Z" fill="#FDC652"/>
<path d="M64.1855 51.5261C64.1369 51.5261 64.0893 51.5124 64.0482 51.4864C64.0071 51.4605 63.9742 51.4234 63.9534 51.3794L63.0613 49.5464C63.0385 49.4867 63.0388 49.4207 63.0622 49.3612C63.0855 49.3017 63.1302 49.2531 63.1875 49.2249C63.2448 49.1966 63.3106 49.1907 63.372 49.2084C63.4334 49.226 63.486 49.266 63.5195 49.3204L64.32 50.9823L66.2874 50.4629C66.3209 50.451 66.3566 50.4462 66.3921 50.4488C66.4276 50.4514 66.4622 50.4614 66.4936 50.4781C66.525 50.4948 66.5527 50.5178 66.5747 50.5458C66.5968 50.5737 66.6128 50.6059 66.6217 50.6404C66.6306 50.6748 66.6323 50.7107 66.6266 50.7459C66.6209 50.781 66.608 50.8146 66.5886 50.8444C66.5692 50.8743 66.5438 50.8998 66.5141 50.9193C66.4843 50.9388 66.4508 50.952 66.4157 50.9578L64.2466 51.5322L64.1855 51.5261Z" fill="#FCA200"/>
<path d="M66.7333 54.6483L64.6253 54.52C64.5583 54.5153 64.4958 54.4845 64.4513 54.4343C64.4067 54.384 64.3837 54.3183 64.387 54.2512C64.3946 54.1853 64.4262 54.1245 64.4758 54.0805C64.5254 54.0365 64.5896 54.0125 64.6559 54.0129L66.7639 54.1412C66.8244 54.1506 66.8795 54.1813 66.9193 54.2278C66.9591 54.2743 66.981 54.3335 66.981 54.3948C66.981 54.456 66.9591 54.5152 66.9193 54.5617C66.8795 54.6082 66.8244 54.6389 66.7639 54.6483H66.7333Z" fill="#FCA200"/>
<path d="M61.8454 53.463C61.791 53.4609 61.7382 53.444 61.6926 53.4141L60.3973 52.4181C60.3525 52.3741 60.3254 52.3152 60.3212 52.2525C60.3169 52.1899 60.3357 52.1279 60.3741 52.0782C60.4125 52.0285 60.4678 51.9946 60.5295 51.9829C60.5912 51.9713 60.655 51.9826 60.7089 52.0149L62.0043 53.0047C62.0573 53.0469 62.0921 53.1079 62.1012 53.1751C62.1103 53.2423 62.0931 53.3104 62.0531 53.3652C62.0273 53.3952 61.9955 53.4194 61.9597 53.4363C61.9239 53.4531 61.8849 53.4622 61.8454 53.463Z" fill="#FCA200"/>
<path d="M57.2811 56.0475C57.2155 56.0581 57.1483 56.0421 57.0945 56.0032C57.0406 55.9642 57.0044 55.9054 56.9939 55.8398C56.9834 55.7742 56.9993 55.7071 57.0383 55.6532C57.0773 55.5994 57.136 55.5632 57.2016 55.5526L60.5622 54.4711C60.6262 54.4518 60.6952 54.4583 60.7546 54.4891C60.8139 54.5199 60.8589 54.5727 60.8799 54.6361C60.8904 54.6682 60.8944 54.7021 60.8918 54.7357C60.8892 54.7694 60.8799 54.8022 60.8646 54.8323C60.8493 54.8624 60.8282 54.8891 60.8025 54.911C60.7768 54.933 60.7471 54.9496 60.7149 54.96L57.3544 56.0353C57.3313 56.0454 57.3062 56.0496 57.2811 56.0475Z" fill="#FCA200"/>
<path d="M67.1429 60.5995C67.1005 60.5988 67.0589 60.5879 67.0217 60.5677C66.9845 60.5475 66.9527 60.5186 66.929 60.4834L64.4117 56.5668C64.3935 56.5392 64.3809 56.5083 64.3748 56.4757C64.3686 56.4432 64.3689 56.4098 64.3757 56.3774C64.3825 56.3451 64.3957 56.3143 64.4145 56.2871C64.4332 56.2598 64.4572 56.2366 64.485 56.2186C64.5418 56.1815 64.6109 56.1684 64.6773 56.1821C64.7437 56.1959 64.802 56.2354 64.8394 56.2919L67.3567 60.2085C67.3749 60.2361 67.3875 60.2671 67.3936 60.2996C67.3998 60.3321 67.3995 60.3655 67.3927 60.3979C67.3859 60.4303 67.3727 60.461 67.3539 60.4882C67.3352 60.5155 67.3112 60.5388 67.2834 60.5567C67.2422 60.5854 67.1931 60.6004 67.1429 60.5995Z" fill="#FCA200"/>
<path d="M61.5707 58.0272C61.5345 58.0357 61.4968 58.0357 61.4607 58.0272C61.4304 58.0134 61.4031 57.9937 61.3805 57.9692C61.3579 57.9448 61.3404 57.9161 61.3291 57.8848C61.3177 57.8535 61.3126 57.8202 61.3143 57.787C61.3159 57.7537 61.3241 57.7211 61.3385 57.6911L62.2977 55.7115C62.332 55.6599 62.3838 55.6224 62.4434 55.606C62.5031 55.5896 62.5667 55.5953 62.6226 55.6221C62.6784 55.6489 62.7226 55.6949 62.7472 55.7518C62.7717 55.8086 62.7748 55.8724 62.756 55.9314L61.7968 57.9111C61.7733 57.9493 61.7399 57.9804 61.7 58.0008C61.6601 58.0213 61.6154 58.0304 61.5707 58.0272Z" fill="#FCA200"/>
<path d="M97.5465 108.368L96.9661 128.751L85.968 128.684C85.968 128.684 85 131.311 81.5199 131.311C78 131.311 76.5218 128.183 76.5218 128.183C76.5218 128.183 69.1898 128.586 65.3404 124.517C62.0349 121.04 45.7272 99.2334 40.6619 91.8036C37.7902 87.5938 36.8004 83.164 37.0325 80.5306C37.4602 75.7525 40.0876 72.9785 44.0652 70.8644C51.2812 67.0212 55.7477 69.288 60.6051 76.7729C65.4626 84.2577 80.915 107.225 80.915 107.225C80.915 107.225 82 105 85 105C87.2661 105 89 106 89.6279 108.001L97.5465 108.368Z" fill="#E54062"/>
<path d="M80.0351 131.281H79.9618C78.4376 130.84 77.1448 129.823 76.3568 128.446C75.2142 128.446 68.5665 128.146 64.9555 124.346C62.817 122.097 56.8169 114.27 52.326 108.246C52.2855 108.192 52.2679 108.125 52.277 108.058C52.2862 107.992 52.3214 107.932 52.3748 107.891C52.4283 107.851 52.4957 107.833 52.5622 107.842C52.6286 107.852 52.6887 107.887 52.7292 107.94C58.6377 115.883 63.5807 122.158 65.3282 123.997C69.037 127.902 76.3874 127.938 76.5157 127.938C76.5651 127.938 76.6136 127.952 76.6549 127.98C76.6962 128.007 76.7286 128.046 76.7479 128.091C77.1018 128.742 77.5817 129.316 78.1597 129.78C78.7377 130.244 79.4022 130.588 80.1145 130.792C80.1464 130.802 80.176 130.818 80.2017 130.839C80.2273 130.86 80.2484 130.886 80.2638 130.916C80.2792 130.946 80.2884 130.978 80.2911 131.011C80.2938 131.044 80.2899 131.078 80.2795 131.11C80.2617 131.16 80.2285 131.204 80.1847 131.234C80.1409 131.265 80.0886 131.281 80.0351 131.281Z" fill="#84052F"/>
<path d="M80.9089 107.488C80.8577 107.489 80.8074 107.474 80.7648 107.446C80.7222 107.418 80.6893 107.377 80.6706 107.329C80.6706 107.293 79.1492 103.663 76.919 103.663C76.8748 103.664 76.8312 103.653 76.7926 103.632C76.7539 103.61 76.7217 103.579 76.699 103.541L62.1693 79.9928C62.1347 79.9358 62.1237 79.8676 62.1385 79.8026C62.1533 79.7376 62.1929 79.6809 62.2488 79.6445C62.3067 79.6096 62.3759 79.5984 62.4419 79.6132C62.5079 79.628 62.5657 79.6677 62.6031 79.724L77.0595 103.211C79.5463 103.352 81.08 107.018 81.1411 107.176C81.1541 107.207 81.161 107.24 81.1612 107.273C81.1615 107.306 81.1552 107.339 81.1427 107.369C81.1302 107.4 81.1118 107.428 81.0884 107.452C81.065 107.475 81.0373 107.494 81.0067 107.506L80.9089 107.488Z" fill="#84052F"/>
<path d="M98.8784 108.282H95.4324V128.69H98.8784V108.282Z" fill="#84052F"/>
<path d="M80.1452 36.4526C79.5209 35.9036 78.7911 35.4878 78.0005 35.2306C76.5036 34.6868 74.6767 34.9923 73.3936 36.9169C74.2236 36.3799 75.1854 36.0819 76.1736 36.0554C77.3858 36.1374 78.5361 36.6212 79.4425 37.4302C80.2124 38.1817 80.7989 37.1308 80.1452 36.4526Z" fill="#212026"/>
<path d="M85.6684 38.5117C86.3986 38.795 87.0577 39.2351 87.5992 39.8009C87.9747 40.1596 88.265 40.5981 88.4485 41.084C88.501 41.2337 88.5211 41.3928 88.5074 41.5508C88.4937 41.7088 88.4466 41.8621 88.3691 42.0005C88.3202 42.0861 88.2774 42.1777 88.2346 42.2694C88.1934 42.0546 88.117 41.8482 88.0086 41.6584C87.3976 40.5952 86.1756 40.0575 85.1918 39.7398C84.2081 39.4221 85.1368 38.3467 85.6684 38.5117Z" fill="#212026"/>
<path d="M72.1043 42.1838C72.033 42.0751 71.9874 41.9515 71.9709 41.8226C71.9545 41.6936 71.9678 41.5626 72.0096 41.4394C72.0514 41.3163 72.1208 41.2044 72.2123 41.1121C72.3039 41.0198 72.4153 40.9496 72.5381 40.9068C72.9209 40.7775 73.3105 40.6694 73.7051 40.583C74.3857 40.4735 75.0835 40.5649 75.7129 40.846C76.3424 41.127 76.8762 41.5856 77.249 42.1655C77.6539 42.9183 77.8777 43.7551 77.9027 44.6095C77.86 45.2205 75.5992 45.361 73.754 43.9007C73.1184 43.4174 72.5619 42.8381 72.1043 42.1838Z" fill="white"/>
<path d="M78.1652 44.4323C78.1227 43.3176 77.7221 42.2463 77.0226 41.3773C76.1834 40.6174 75.0994 40.1838 73.9676 40.1553C73.9676 40.1553 73.9187 39.3365 73.4666 39.251C73.0144 39.1655 73.0878 40.137 73.0878 40.137L72.5745 40.418C72.5745 40.418 72.2934 39.807 71.9268 39.807C71.5602 39.807 71.823 40.7174 71.8535 40.9862C71.6385 41.1992 71.4498 41.4371 71.2914 41.695C71.2364 41.8783 72.4096 43.3753 73.9737 44.2918C73.9737 44.2918 75.0552 44.7684 73.9737 43.8641C72.2812 42.4649 72.3057 42.0311 72.269 41.7989C72.2323 41.5667 74.3281 40.473 76.155 42.0372C76.9303 42.6948 77.5024 43.5595 77.8047 44.5301C78.0247 45.1655 78.2324 44.7928 78.1652 44.4323Z" fill="#212026"/>
<path d="M85.7296 49.0637C84.7225 49.1428 83.711 48.9815 82.7784 48.5932C81.312 47.9517 80.2977 46.9679 81.1348 46.2286C81.9719 45.4893 83.3528 44.8539 84.6786 46.0148C85.0747 46.4093 85.3752 46.8891 85.5574 47.4175C85.7395 47.9459 85.7984 48.509 85.7296 49.0637Z" fill="white"/>
<path d="M81.1105 45.9843C81.856 45.427 82.7431 45.0903 83.6706 45.0128C84.0812 45.0544 84.4778 45.1853 84.8324 45.3964C85.1871 45.6075 85.4913 45.8937 85.7236 46.2348C85.7236 46.2348 86.2307 45.7154 86.5057 45.9965C86.7807 46.2775 86.1635 46.8702 86.1635 46.8702L86.249 47.4384C86.249 47.4384 86.7623 47.2246 86.9395 47.4996C87.1167 47.7745 86.4507 48.19 86.2735 48.3427C86.2534 48.6437 86.2063 48.9422 86.133 49.2348C86.0535 49.3998 84.581 49.5342 83.2735 48.9965C83.2735 48.9965 82.4547 48.5138 83.524 48.7154C85.1859 49.0271 85.4487 48.7154 85.5892 48.5871C85.7297 48.4588 85.3631 46.1737 83.5362 45.8743C82.7429 45.7462 81.9301 45.9066 81.2449 46.3264C80.7622 46.5525 80.86 46.1737 81.1105 45.9843Z" fill="#212026"/>
<path d="M73.9493 44.2185L74.0165 44.2857C74.1299 44.3591 74.2483 44.4244 74.3709 44.4812C74.8078 44.6642 75.2595 44.8094 75.7212 44.915C75.9717 44.97 76.2284 44.9944 76.4728 45.0433C76.69 44.8398 76.8573 44.5889 76.9616 44.3101C77.0553 44.0938 77.1049 43.861 77.1073 43.6253C77.1097 43.3896 77.0648 43.1558 76.9754 42.9377C76.886 42.7196 76.7539 42.5216 76.5867 42.3554C76.4196 42.1892 76.2209 42.0582 76.0023 41.97C75.5429 41.8273 75.0457 41.871 74.6182 42.0916C74.1907 42.3123 73.8671 42.6921 73.7171 43.1492C73.6306 43.4045 73.5974 43.6748 73.6194 43.9435C73.7447 44.0149 73.8564 44.108 73.9493 44.2185Z" fill="#212026"/>
<path d="M82.7846 48.7093C83.39 48.9578 84.0212 49.1381 84.6665 49.247C84.8963 48.9899 85.071 48.6883 85.1797 48.361C85.3527 47.9476 85.359 47.4832 85.1973 47.0652C85.0355 46.6472 84.7183 46.308 84.3121 46.1187C84.1023 46.0552 83.882 46.0342 83.664 46.0568C83.446 46.0795 83.2347 46.1453 83.0424 46.2506C82.8501 46.3558 82.6807 46.4983 82.5442 46.6697C82.4076 46.8412 82.3065 47.0381 82.2469 47.249C82.1192 47.6058 82.0959 47.9915 82.1797 48.361C82.2775 48.4221 82.6258 48.6482 82.7846 48.7093Z" fill="#212026"/>
</svg>
