<svg width="19" height="19" viewBox="0 0 19 19" fill="none" xmlns="http://www.w3.org/2000/svg">
<path d="M18.0705 16.5354L13.9318 12.3967C14.9283 11.0702 15.4662 9.45563 15.4643 7.79661C15.4643 3.55897 12.0167 0.111328 7.77903 0.111328C3.54139 0.111328 0.09375 3.55897 0.09375 7.79661C0.09375 12.0342 3.54139 15.4819 7.77903 15.4819C9.43805 15.4837 11.0527 14.9458 12.3791 13.9494L16.5178 18.0881C16.7273 18.2753 17.0005 18.3753 17.2814 18.3675C17.5623 18.3596 17.8295 18.2445 18.0282 18.0458C18.2269 17.8471 18.342 17.5799 18.3499 17.299C18.3577 17.0181 18.2578 16.7449 18.0705 16.5354ZM2.28954 7.79661C2.28954 6.71089 2.6115 5.64955 3.21469 4.74681C3.81788 3.84407 4.67522 3.14047 5.67829 2.72498C6.68137 2.3095 7.78512 2.20079 8.84997 2.4126C9.91483 2.62441 10.893 3.14724 11.6607 3.91495C12.4284 4.68267 12.9512 5.66081 13.163 6.72566C13.3748 7.79052 13.2661 8.89427 12.8507 9.89734C12.4352 10.9004 11.7316 11.7578 10.8288 12.3609C9.92608 12.9641 8.86475 13.2861 7.77903 13.2861C6.32366 13.2843 4.9284 12.7054 3.89931 11.6763C2.87021 10.6472 2.29129 9.25197 2.28954 7.79661Z" fill="#0F8143"/>
</svg>
