<svg width="256" height="164" viewBox="0 0 256 164" fill="none" xmlns="http://www.w3.org/2000/svg">
<g clip-path="url(#clip0_1246_5060)">
<path d="M128.002 164.004C173.29 164.004 210.004 127.29 210.004 82.0019C210.004 36.7135 173.29 0 128.002 0C82.7135 0 46 36.7135 46 82.0019C46 127.29 82.7135 164.004 128.002 164.004Z" fill="#DDEFFD"/>
<path d="M191.773 133.547L171.573 102.888L182.217 84.4486C183.144 82.7064 183.358 80.6723 182.814 78.7754C182.269 76.8786 181.009 75.2675 179.299 74.2822C177.589 73.2968 175.564 73.0144 173.65 73.4944C171.735 73.9744 170.083 75.1793 169.04 76.8548L169.021 76.8847L171.677 58.3106C171.934 56.4675 171.45 54.5977 170.332 53.1103C169.213 51.6229 167.551 50.639 165.709 50.3737C164.429 50.1908 163.122 50.3704 161.939 50.8922C161.907 49.2295 161.288 47.6317 160.189 46.3828C159.091 45.1339 157.586 44.3146 155.941 44.0705C154.272 43.8322 152.573 44.2072 151.16 45.126C150.388 44.0355 149.319 43.189 148.081 42.6863C146.843 42.1837 145.487 42.0461 144.174 42.2897C142.86 42.5333 141.643 43.148 140.668 44.061C139.692 44.9741 138.999 46.1474 138.669 47.4422C138.327 47.3359 137.978 47.2561 137.625 47.2035C135.781 46.9457 133.91 47.429 132.422 48.5474C130.934 49.6659 129.949 51.3284 129.684 53.171L124.612 97.4952C124.239 100.02 123.295 106.532 126.249 111.668C126.663 112.522 127.134 113.346 127.659 114.137L156.057 159.092C170.059 153.973 182.404 145.143 191.773 133.547Z" fill="#A6587A"/>
<path d="M143.577 109.479C143.404 109.479 143.239 109.411 143.116 109.289C142.993 109.168 142.923 109.003 142.921 108.83C142.846 103.448 144.379 99.1885 147.482 96.1748C152.04 91.7439 158.485 91.4194 160.182 91.4157L167.876 77.4777C167.916 77.3992 167.972 77.3296 168.039 77.2729C168.107 77.2163 168.185 77.1737 168.269 77.1479C168.353 77.122 168.442 77.1134 168.529 77.1225C168.617 77.1316 168.702 77.1582 168.779 77.2007C168.856 77.2433 168.924 77.3009 168.978 77.3702C169.032 77.4395 169.072 77.519 169.095 77.604C169.118 77.689 169.124 77.7777 169.112 77.865C169.1 77.9522 169.07 78.0361 169.025 78.1118L161.144 92.3929C161.087 92.5011 161 92.5906 160.894 92.6508C160.787 92.711 160.666 92.7393 160.544 92.7323C160.469 92.7323 153.159 92.4824 148.392 97.1222C145.565 99.8747 144.167 103.81 144.237 108.811C144.238 108.985 144.171 109.153 144.05 109.278C143.928 109.403 143.763 109.475 143.588 109.479H143.577Z" fill="#61354A"/>
<path d="M154.405 80.6293H154.311C154.226 80.617 154.144 80.5879 154.069 80.5437C153.995 80.4995 153.93 80.4411 153.879 80.3718C153.827 80.3025 153.789 80.2236 153.768 80.1398C153.747 80.056 153.743 79.9689 153.756 79.8834L157.135 56.2182C157.428 54.2058 158.505 52.3913 160.133 51.1716C161.76 49.9519 163.804 49.4263 165.818 49.7098C165.906 49.7181 165.992 49.7444 166.07 49.7869C166.148 49.8294 166.217 49.8873 166.272 49.9572C166.327 50.027 166.367 50.1073 166.39 50.1932C166.413 50.2791 166.419 50.3688 166.406 50.4568C166.393 50.5448 166.363 50.6293 166.317 50.7052C166.27 50.7812 166.209 50.8469 166.137 50.8984C166.064 50.9499 165.982 50.9862 165.895 51.005C165.808 51.0238 165.718 51.0248 165.631 51.0078C163.962 50.7713 162.267 51.2067 160.918 52.2185C159.569 53.2303 158.677 54.7358 158.436 56.4047L155.054 80.0661C155.031 80.2223 154.953 80.3652 154.834 80.4687C154.715 80.5721 154.562 80.6291 154.405 80.6293Z" fill="#61354A"/>
<path d="M144.062 78.261H143.969C143.883 78.2486 143.801 78.2195 143.727 78.1753C143.652 78.1311 143.588 78.0727 143.536 78.0034C143.484 77.9341 143.447 77.8553 143.426 77.7715C143.405 77.6876 143.4 77.6005 143.413 77.515L147.363 49.9299C147.655 47.9178 148.732 46.1033 150.358 44.8835C151.985 43.6638 154.029 43.1381 156.042 43.4215C157.772 43.6768 159.364 44.5124 160.556 45.7911C161.749 47.0699 162.472 48.716 162.606 50.4595C162.619 50.6326 162.563 50.8038 162.449 50.9353C162.336 51.0668 162.175 51.1479 162.002 51.1607C161.829 51.1736 161.658 51.1172 161.526 51.0038C161.395 50.8905 161.314 50.7296 161.301 50.5565C161.188 49.1108 160.588 47.7461 159.599 46.6857C158.61 45.6254 157.29 44.9322 155.855 44.7195C154.186 44.485 152.492 44.9213 151.144 45.9327C149.796 46.9441 148.903 48.4484 148.661 50.1164L144.719 77.6978C144.697 77.8556 144.618 78 144.497 78.1037C144.376 78.2074 144.221 78.2634 144.062 78.261Z" fill="#61354A"/>
<path d="M134.958 77.2278H134.876C134.789 77.2173 134.705 77.1895 134.629 77.1461C134.553 77.1027 134.487 77.0445 134.433 76.975C134.38 76.9055 134.342 76.8261 134.319 76.7414C134.297 76.6567 134.293 76.5685 134.305 76.4819L137.863 48.1359C138.151 46.1199 139.227 44.3005 140.855 43.0773C142.483 41.8541 144.53 41.3273 146.546 41.6126C149.101 41.9856 150.153 43.0187 151.201 44.809C151.255 44.8826 151.292 44.9665 151.312 45.0556C151.331 45.1446 151.331 45.2367 151.313 45.3259C151.295 45.4151 151.258 45.4995 151.205 45.5736C151.152 45.6477 151.084 45.7099 151.005 45.7562C150.927 45.8025 150.84 45.8318 150.749 45.8424C150.659 45.8529 150.567 45.8444 150.48 45.8173C150.393 45.7903 150.313 45.7454 150.244 45.6854C150.176 45.6254 150.12 45.5518 150.082 45.4692C149.075 43.7535 148.243 43.1791 146.371 42.9143C144.701 42.6711 143.003 43.1011 141.65 44.1097C140.298 45.1183 139.401 46.6229 139.158 48.2926L135.599 76.6385C135.583 76.7982 135.509 76.9463 135.39 77.0549C135.272 77.1635 135.118 77.225 134.958 77.2278Z" fill="#61354A"/>
<path d="M167.709 109.479C167.599 109.479 167.491 109.451 167.395 109.397C167.243 109.314 167.129 109.174 167.08 109.008C167.03 108.841 167.048 108.662 167.131 108.509L170.331 102.59C170.414 102.437 170.554 102.323 170.722 102.273C170.889 102.223 171.069 102.242 171.222 102.325C171.375 102.408 171.489 102.549 171.539 102.716C171.589 102.883 171.57 103.063 171.487 103.217L168.283 109.128C168.228 109.233 168.145 109.32 168.044 109.382C167.943 109.444 167.827 109.477 167.709 109.479Z" fill="#61354A"/>
<path d="M157.12 83.3744C157.023 83.3747 156.928 83.3544 156.84 83.3148C148.202 79.2344 133.119 78.7011 132.97 78.6973C132.796 78.6919 132.631 78.6175 132.512 78.4906C132.392 78.3636 132.328 78.1945 132.334 78.0204C132.339 77.8463 132.414 77.6815 132.541 77.5622C132.668 77.443 132.837 77.379 133.011 77.3845C133.641 77.4069 148.519 77.929 157.403 82.125C157.538 82.1888 157.647 82.2965 157.712 82.4303C157.777 82.5641 157.795 82.7161 157.762 82.8614C157.73 83.0067 157.649 83.1366 157.533 83.2298C157.417 83.3231 157.272 83.374 157.124 83.3744H157.12Z" fill="#61354A"/>
<path d="M115.567 139.455L109.693 149.484L128.468 117.684C132.392 109.087 133.966 102.392 133.843 96.9842C133.942 96.4495 133.98 95.9051 133.955 95.3618L131.773 54.193C131.67 52.3365 130.836 50.5964 129.453 49.353C128.071 48.1097 126.252 47.4642 124.395 47.5578C123.104 47.6274 121.858 48.0548 120.796 48.7923C120.436 47.1712 119.515 45.7295 118.195 44.7221C116.875 43.7147 115.241 43.2065 113.583 43.2873C111.904 43.3824 110.315 44.0788 109.107 45.2491C107.998 44.1913 106.57 43.5292 105.046 43.3653C103.522 43.2015 101.987 43.545 100.678 44.3428C99.6356 43.4527 98.3549 42.8882 96.9947 42.7193C95.6345 42.5504 94.2546 42.7844 93.0263 43.3925C91.7979 44.0005 90.775 44.9558 90.0845 46.1398C89.394 47.3238 89.0662 48.6844 89.1419 50.053L90.4398 74.5573L87.456 68.2168C87.0297 67.3131 86.4295 66.5023 85.6897 65.8305C84.95 65.1588 84.0852 64.6394 83.1447 64.3019C82.2042 63.9644 81.2065 63.8154 80.2085 63.8635C79.2104 63.9116 78.2316 64.1558 77.3279 64.5822C76.4243 65.0085 75.6134 65.6087 74.9417 66.3484C74.27 67.0882 73.7505 67.953 73.413 68.8934C73.0755 69.8339 72.9266 70.8317 72.9746 71.8297C73.0227 72.8278 73.2669 73.8066 73.6933 74.7102L84.0769 96.7157L67.0171 123.159L75.3568 110.676L115.567 139.455Z" fill="#F4AACC"/>
<path d="M67.0058 123.174L62.0043 130.66L62.0975 130.783L67.0058 123.174Z" fill="#E54062"/>
<path d="M103.401 160.233L109.693 149.484L103.352 160.218L103.401 160.233Z" fill="#E54062"/>
<path d="M103.352 160.218L109.693 149.484L115.563 139.455L75.3455 110.691L67.0059 123.174L62.0975 130.783C72.4019 144.699 86.8412 155.001 103.352 160.218Z" fill="#E54062"/>
<path d="M118.95 79.4358C118.782 79.4351 118.621 79.3701 118.499 79.2543C118.378 79.1385 118.306 78.9805 118.297 78.813L117.107 54.9651C117.006 52.9352 117.712 50.9476 119.071 49.4366C120.43 47.9256 122.332 47.0142 124.362 46.9014C124.535 46.8942 124.704 46.9549 124.833 47.0706C124.961 47.1862 125.04 47.3477 125.052 47.5205C125.061 47.6941 125.001 47.8642 124.885 47.9935C124.769 48.1229 124.606 48.2009 124.432 48.2105C122.75 48.305 121.173 49.0612 120.046 50.314C118.919 51.5669 118.333 53.2148 118.416 54.8979L119.606 78.7458C119.611 78.8321 119.598 78.9183 119.569 78.9997C119.54 79.0811 119.496 79.156 119.438 79.2201C119.38 79.2842 119.31 79.3362 119.232 79.3732C119.154 79.4103 119.07 79.4315 118.983 79.4358H118.95Z" fill="#D8699C"/>
<path d="M108.115 77.7127C107.947 77.7119 107.785 77.6464 107.663 77.5298C107.542 77.4132 107.47 77.2543 107.462 77.0861L106.291 50.6871C106.191 48.6574 106.899 46.6708 108.259 45.1608C109.618 43.6507 111.52 42.7399 113.549 42.6271C115.296 42.5466 117.018 43.0599 118.435 44.0832C119.853 45.1066 120.882 46.5797 121.356 48.2627C121.402 48.4309 121.379 48.6104 121.292 48.7619C121.206 48.9133 121.063 49.0242 120.895 49.0702C120.727 49.1162 120.547 49.0935 120.396 49.0071C120.244 48.9208 120.133 48.7778 120.087 48.6096C119.698 47.2127 118.845 45.9896 117.67 45.1405C116.494 44.2915 115.065 43.8669 113.616 43.9362C111.934 44.0307 110.357 44.787 109.231 46.04C108.104 47.293 107.52 48.9408 107.604 50.6236L108.771 77.0264C108.775 77.1126 108.762 77.1988 108.733 77.28C108.704 77.3612 108.659 77.4358 108.6 77.4995C108.542 77.5633 108.472 77.6149 108.394 77.6515C108.316 77.6881 108.231 77.7089 108.145 77.7127H108.115Z" fill="#D8699C"/>
<path d="M98.5034 75.7359C98.3353 75.7352 98.1737 75.6704 98.0517 75.5546C97.9297 75.4389 97.8565 75.2809 97.847 75.113L96.6386 50.7467C96.5368 48.7164 97.2427 46.7284 98.6019 45.2169C99.9611 43.7053 101.863 42.793 103.893 42.6793C106.463 42.545 107.705 43.3581 109.081 44.9171C109.196 45.0477 109.255 45.2187 109.244 45.3925C109.233 45.5663 109.154 45.7287 109.023 45.844C108.893 45.9592 108.722 46.0179 108.548 46.007C108.374 45.9962 108.212 45.9167 108.096 45.7862C106.78 44.2943 105.858 43.8952 103.96 43.9959C102.278 44.0913 100.702 44.8479 99.5758 46.1007C98.4495 47.3534 97.8643 49.0007 97.9477 50.6833L99.1748 75.0645C99.1793 75.1503 99.1669 75.2361 99.1382 75.317C99.1095 75.3979 99.0651 75.4724 99.0076 75.5362C98.9501 75.5999 98.8806 75.6517 98.803 75.6885C98.7254 75.7254 98.6414 75.7465 98.5556 75.7508L98.5034 75.7359Z" fill="#D8699C"/>
<path d="M107.6 153.326L66.5695 123.305L75.8341 109.714L116.298 138.97L107.6 153.326Z" fill="#ED6C77"/>
<path d="M104.781 146.157C107.203 146.157 109.167 144.193 109.167 141.771C109.167 139.348 107.203 137.385 104.781 137.385C102.358 137.385 100.394 139.348 100.394 141.771C100.394 144.193 102.358 146.157 104.781 146.157Z" fill="#F8C9CD"/>
<path d="M89.8952 90.5168C89.7224 90.5169 89.5565 90.4487 89.4336 90.3272C89.3107 90.2057 89.2407 90.0407 89.2388 89.8679L88.9926 72.1405C88.9916 72.0542 89.0076 71.9687 89.0397 71.8887C89.0718 71.8087 89.1193 71.7357 89.1796 71.6741C89.2398 71.6124 89.3117 71.5633 89.3909 71.5294C89.4702 71.4955 89.5554 71.4775 89.6416 71.4766C89.8133 71.4801 89.9774 71.5487 90.1006 71.6684C90.2238 71.7882 90.297 71.9502 90.3055 72.1218L90.5516 89.853C90.5526 89.9392 90.5366 90.0247 90.5045 90.1047C90.4724 90.1847 90.4249 90.2577 90.3646 90.3193C90.3044 90.381 90.2326 90.4301 90.1533 90.464C90.074 90.4979 89.9889 90.5159 89.9027 90.5168H89.8952Z" fill="#D8699C"/>
<path d="M188.864 122.566C188.42 121.815 187.697 121.269 186.852 121.051C186.008 120.832 185.11 120.957 184.358 121.399L144.267 145.008C143.95 145.194 143.673 145.441 143.451 145.734C143.23 146.028 143.069 146.362 142.977 146.718C142.885 147.074 142.864 147.445 142.916 147.808C142.968 148.172 143.091 148.523 143.279 148.839L143.536 149.275C143.755 149.648 144.046 149.974 144.391 150.234C144.736 150.494 145.129 150.684 145.547 150.792C145.966 150.9 146.402 150.924 146.83 150.864C147.258 150.803 147.67 150.659 148.042 150.439L187.696 127.087C188.07 126.867 188.398 126.576 188.659 126.23C188.92 125.884 189.111 125.489 189.219 125.069C189.328 124.649 189.352 124.212 189.291 123.782C189.23 123.353 189.085 122.94 188.864 122.566Z" fill="#FCA200"/>
<path d="M184.049 113.977C183.605 113.225 182.882 112.68 182.037 112.461C181.193 112.242 180.295 112.367 179.543 112.809L139.903 136.158C139.152 136.601 138.606 137.324 138.388 138.169C138.169 139.014 138.294 139.911 138.736 140.663L138.993 141.099C139.179 141.415 139.425 141.69 139.718 141.91C140.01 142.13 140.343 142.291 140.697 142.382C141.052 142.474 141.42 142.494 141.783 142.443C142.145 142.392 142.494 142.27 142.809 142.084L182.9 118.475C183.648 118.03 184.189 117.307 184.404 116.463C184.62 115.62 184.492 114.726 184.049 113.977Z" fill="#FCA200"/>
<path d="M119.632 33.2394C119.452 33.2394 119.274 33.2038 119.107 33.1347C118.941 33.0655 118.79 32.9642 118.663 32.8366L109.294 23.4712C109.158 23.3454 109.049 23.1936 108.974 23.0248C108.898 22.856 108.857 22.6737 108.854 22.4887C108.85 22.3038 108.884 22.1201 108.953 21.9485C109.022 21.777 109.125 21.6211 109.256 21.4902C109.386 21.3593 109.542 21.2561 109.713 21.1867C109.885 21.1173 110.069 21.0832 110.253 21.0864C110.438 21.0895 110.621 21.13 110.79 21.2052C110.959 21.2804 111.111 21.389 111.237 21.5243L120.606 30.8934C120.797 31.086 120.927 31.331 120.98 31.5974C121.032 31.8638 121.005 32.1398 120.9 32.3906C120.796 32.6414 120.62 32.8558 120.395 33.0068C120.169 33.1578 119.904 33.2387 119.632 33.2394Z" fill="#FCA200"/>
<path d="M141.302 33.2394C141.031 33.238 140.766 33.1566 140.541 33.0053C140.316 32.8539 140.141 32.6395 140.037 32.3889C139.933 32.1382 139.906 31.8626 139.959 31.5965C140.011 31.3304 140.141 31.0858 140.332 30.8934L149.698 21.5243C149.959 21.2819 150.304 21.1502 150.66 21.1571C151.016 21.1639 151.356 21.3086 151.608 21.5608C151.86 21.8131 152.004 22.1531 152.01 22.5094C152.016 22.8657 151.884 23.2105 151.641 23.4712L142.275 32.844C142.016 33.0994 141.666 33.2415 141.302 33.2394Z" fill="#FCA200"/>
<path d="M130.467 30.7927C130.286 30.7936 130.107 30.7589 129.94 30.6903C129.772 30.6218 129.62 30.5209 129.492 30.3933C129.364 30.2658 129.262 30.1141 129.192 29.9471C129.123 29.7801 129.087 29.601 129.087 29.4201V11.7934C129.077 11.6069 129.106 11.4204 129.17 11.2452C129.235 11.0699 129.335 10.9097 129.463 10.7743C129.592 10.6388 129.747 10.531 129.918 10.4572C130.09 10.3835 130.275 10.3455 130.462 10.3455C130.648 10.3455 130.833 10.3835 131.005 10.4572C131.176 10.531 131.331 10.6388 131.46 10.7743C131.588 10.9097 131.688 11.0699 131.753 11.2452C131.817 11.4204 131.846 11.6069 131.836 11.7934V29.4201C131.835 29.7832 131.691 30.1312 131.434 30.3883C131.178 30.6453 130.83 30.7907 130.467 30.7927Z" fill="#FCA200"/>
</g>
<defs>
<clipPath id="clip0_1246_5060">
<rect width="256" height="164" fill="white"/>
</clipPath>
</defs>
</svg>
