<svg width="51" height="52" viewBox="0 0 51 52" fill="none" xmlns="http://www.w3.org/2000/svg">
<path fill-rule="evenodd" clip-rule="evenodd" d="M25.6862 3.45647C23.0287 3.45647 20.4801 4.51216 18.6009 6.39129C16.7218 8.27042 15.6661 10.8191 15.6661 13.4766C15.6661 16.1341 16.7218 18.6827 18.6009 20.5618C20.4801 22.441 23.0287 23.4967 25.6862 23.4967C28.3437 23.4967 30.8924 22.441 32.7715 20.5618C34.6506 18.6827 35.7063 16.1341 35.7063 13.4766C35.7063 10.8191 34.6506 8.27042 32.7715 6.39129C30.8924 4.51216 28.3437 3.45647 25.6862 3.45647ZM18.8304 13.4766C18.8304 11.6583 19.5527 9.91447 20.8384 8.62875C22.1241 7.34303 23.8679 6.62071 25.6862 6.62071C27.5045 6.62071 29.2483 7.34303 30.534 8.62875C31.8198 9.91447 32.5421 11.6583 32.5421 13.4766C32.5421 15.2949 31.8198 17.0387 30.534 18.3244C29.2483 19.6101 27.5045 20.3324 25.6862 20.3324C23.8679 20.3324 22.1241 19.6101 20.8384 18.3244C19.5527 17.0387 18.8304 15.2949 18.8304 13.4766ZM25.6862 26.6609C20.807 26.6609 16.3095 27.7705 12.9786 29.6437C9.69625 31.4916 7.22815 34.2888 7.22815 37.7357V37.9509C7.22604 40.4021 7.22393 43.4778 9.92197 45.6759C11.2488 46.7559 13.1073 47.5259 15.6176 48.0322C18.1321 48.5427 21.4124 48.8106 25.6862 48.8106C29.9601 48.8106 33.2382 48.5427 35.7569 48.0322C38.2672 47.5259 40.1236 46.7559 41.4526 45.6759C44.1506 43.4778 44.1464 40.4021 44.1443 37.9509V37.7357C44.1443 34.2888 41.6762 31.4916 38.3959 29.6437C35.0629 27.7705 30.5676 26.6609 25.6862 26.6609ZM10.3924 37.7357C10.3924 35.9406 11.7045 33.9914 14.5291 32.4029C17.3052 30.8419 21.2457 29.8251 25.6883 29.8251C30.1267 29.8251 34.0672 30.8419 36.8433 32.4029C39.67 33.9914 40.98 35.9406 40.98 37.7357C40.98 40.495 40.8957 42.0476 39.4528 43.2204C38.6723 43.8575 37.3644 44.4798 35.1283 44.9312C32.8986 45.3827 29.8504 45.6463 25.6862 45.6463C21.5221 45.6463 18.4717 45.3827 16.2441 44.9312C14.0081 44.4798 12.7002 43.8575 11.9197 43.2225C10.4768 42.0475 10.3924 40.495 10.3924 37.7357Z" fill="#004E16"/>
</svg>
