<?xml version="1.0" encoding="utf-8"?>
<!-- Generator: Adobe Illustrator 26.0.2, SVG Export Plug-In . SVG Version: 6.00 Build 0)  -->
<svg version="1.1" id="Layer_1" xmlns="http://www.w3.org/2000/svg" xmlns:xlink="http://www.w3.org/1999/xlink" x="0px" y="0px"
	 viewBox="0 0 256 164" style="enable-background:new 0 0 256 164;" xml:space="preserve">
<style type="text/css">
	.st0{fill:#ECEFF5;}
	.st1{fill:#BDC7DC;}
	.st2{fill:#E54062;}
	.st3{fill:#4152C9;}
	.st4{fill:#F8BEAD;}
	.st5{fill:none;}
	.st6{fill:#52BAF9;}
	.st7{fill:#262C56;}
	.st8{fill:#EF6C76;}
	.st9{fill:#FCA200;}
	.st10{fill:#F68DB7;}
	.st11{fill:#FFFFFF;}
	.st12{fill:#212026;}
	.st13{fill:#48142E;}
	.st14{fill:#ED6C77;}
	.st15{fill:#DDEFFD;}
</style>
<g>
	<g>
		<g>
			<path class="st0" d="M230.5,70.8L195,69.9c-6.8-0.2-13.2,4.5-14.3,10.5l-13.8,76l60.2,1.5l13.8-76.1
				C242,75.9,237.3,70.9,230.5,70.8z"/>
		</g>
		<g>
			<path class="st1" d="M220.2,70.8l-35.5-0.9c-6.8-0.2-13.2,4.5-14.3,10.5l-13.8,76l60.2,1.5l13.8-76.1
				C231.7,75.9,227,70.9,220.2,70.8z"/>
		</g>
	</g>
	<g>
		<g>
			<path class="st2" d="M147.3,54.6c0,0,16.3-2.7,22.2,3.2l1.5-10.4l-24.7-3.9L147.3,54.6z"/>
		</g>
		<g>
			<path class="st3" d="M137.1,85c0,0-4.5,10.8-2.3,17.9c9.2,28.8,5.3,43,6,52.8h54.6c0,0,1.7-49.2,1.7-63S137.1,85,137.1,85z"/>
		</g>
		<g>
			<path class="st4" d="M151.9,54.5c0,0,5.5,12.8,1.9,15.8c0,0-3.1,9.6,13.4,15.3c0,0,12-7,13.5-22.3c0,0-1.5-1.2-5.9-2.5
				c-2.7-0.8-9.1-10.3-9.2-20.9c0,0-4.5,6.3-7.2,8.1C155.8,49.9,151.9,54.5,151.9,54.5z"/>
		</g>
		<g>
			<path class="st4" d="M200.7,73.2L200.7,73.2c-7.4-0.3-13.7,5.4-14,12.8l-2.1,47.8c-0.3,7.4,5.4,13.7,12.8,14l0,0
				c7.4,0.3,13.7-5.4,14-12.8l2.1-47.8C213.8,79.9,208.1,73.5,200.7,73.2z"/>
		</g>
		<g>
			<path class="st4" d="M135.9,80.5c-4.8-4.5-12.5-4.3-17,0.6l-26.5,28.3c-4.5,4.8-4.3,12.5,0.6,17l0,0c4.8,4.5,12.5,4.3,17-0.6
				l26.5-28.3C141,92.7,140.7,85,135.9,80.5z"/>
		</g>
		<g>
			<path class="st3" d="M154.6,62.8c0,0,12.2-0.8,17.1-4.8c0,0,3.5,4.2,11.2,5c13.6,1.4,28,8.1,30.4,20.9c0,0,0.9,2.1-0.3,16.7
				l-27.1-0.1l-51.7-0.6l-17.3-16.7c0,0,8.7-10.3,20.7-13.7C149.6,66.1,152.7,70.7,154.6,62.8z"/>
		</g>
		<g>
			<path class="st5" d="M148.5,147.7c-0.1,0-0.1,0-0.1,0c0,0.1-0.1,0.1-0.1,0.1c-0.3,0.1-0.3,0.5-0.2,0.7c0.1,0.4,0.6,0.3,0.9,0.3
				c0.4-0.1,0.6-0.5,0.4-0.8C149.2,147.7,148.8,147.6,148.5,147.7z"/>
			<path class="st5" d="M182.5,77l0.4-0.8c-0.2-0.3-0.5-0.4-0.9-0.3c-0.1,0-0.1,0-0.1,0c0,0.1-0.1,0.1-0.1,0.1
				c-0.3,0.1-0.3,0.5-0.2,0.7C181.7,77.1,182.2,77.1,182.5,77z"/>
			<path class="st5" d="M165.3,99.8c-0.1,0-0.1,0-0.1,0c0,0.1-0.1,0.1-0.1,0.1c-0.3,0.1-0.3,0.5-0.2,0.7c0.1,0.4,0.6,0.3,0.9,0.3
				c0.4-0.1,0.6-0.5,0.4-0.8C166,99.8,165.6,99.7,165.3,99.8z"/>
			<path class="st5" d="M157.7,93.4c0.4-0.1,0.6-0.5,0.4-0.8c-0.2-0.3-0.5-0.4-0.9-0.3c-0.1,0-0.1,0-0.1,0c0,0.1-0.1,0.1-0.1,0.1
				c-0.3,0.1-0.3,0.5-0.2,0.7C156.9,93.6,157.3,93.5,157.7,93.4z"/>
			<path class="st5" d="M157.3,106.7c0.4-0.1,0.6-0.5,0.4-0.8c-0.2-0.3-0.5-0.4-0.9-0.3c-0.1,0-0.1,0-0.1,0c0,0.1-0.1,0.1-0.1,0.1
				c-0.3,0.1-0.3,0.5-0.2,0.7C156.5,106.8,157,106.8,157.3,106.7z"/>
			<path class="st5" d="M165.7,88.9c0.4-0.1,0.6-0.5,0.4-0.8c-0.2-0.3-0.5-0.4-0.9-0.3c-0.1,0-0.1,0-0.1,0c0,0.1-0.1,0.1-0.1,0.1
				c-0.3,0.1-0.3,0.5-0.2,0.7C164.9,89,165.4,89,165.7,88.9z"/>
			<path class="st5" d="M140.1,81.6c-0.1,0-0.1,0-0.1,0c0,0.1-0.1,0.1-0.1,0.1c-0.3,0.1-0.3,0.5-0.2,0.7c0.1,0.4,0.6,0.3,0.9,0.3
				c0.4-0.1,0.6-0.5,0.4-0.8C140.8,81.6,140.4,81.5,140.1,81.6z"/>
			<path class="st5" d="M148.5,87.8c-0.1,0-0.1,0-0.1,0c0,0.1-0.1,0.1-0.1,0.1c-0.3,0.1-0.3,0.5-0.2,0.7c0.1,0.4,0.6,0.3,0.9,0.3
				c0.4-0.1,0.6-0.5,0.4-0.8C149.2,87.8,148.8,87.7,148.5,87.8z"/>
			<path class="st5" d="M140.9,93.4c0.4-0.1,0.6-0.5,0.4-0.8c-0.2-0.3-0.5-0.4-0.9-0.3c-0.1,0-0.1,0-0.1,0c0,0.1-0.1,0.1-0.1,0.1
				c-0.3,0.1-0.3,0.5-0.2,0.7C140.1,93.6,140.6,93.5,140.9,93.4z"/>
			<path class="st5" d="M174,68.4c-0.1,0-0.1,0-0.1,0c0,0.1-0.1,0.1-0.1,0.1c-0.3,0.1-0.3,0.5-0.2,0.7c0.1,0.4,0.6,0.3,0.9,0.3
				c0.4-0.1,0.6-0.5,0.4-0.8C174.7,68.4,174.3,68.2,174,68.4z"/>
			<path class="st5" d="M165.2,111.7c-0.1,0-0.1,0-0.1,0c0,0.1-0.1,0.1-0.1,0.1c-0.3,0.1-0.3,0.5-0.2,0.7c0.1,0.4,0.6,0.3,0.9,0.3
				c0.4-0.1,0.6-0.5,0.4-0.8C166,111.7,165.6,111.6,165.2,111.7z"/>
			<path class="st5" d="M174.1,106.7c0.4-0.1,0.6-0.5,0.4-0.8c-0.2-0.3-0.5-0.4-0.9-0.3c-0.1,0-0.1,0-0.1,0c0,0.1-0.1,0.1-0.1,0.1
				c-0.3,0.1-0.3,0.5-0.2,0.7C173.3,106.8,173.7,106.8,174.1,106.7z"/>
			<path class="st5" d="M174,92.3c-0.1,0-0.1,0-0.1,0c0,0.1-0.1,0.1-0.1,0.1c-0.3,0.1-0.3,0.5-0.2,0.7c0.1,0.4,0.6,0.3,0.9,0.3
				c0.4-0.1,0.6-0.5,0.4-0.8C174.7,92.3,174.3,92.2,174,92.3z"/>
			<path class="st5" d="M174.1,82.7c0.4-0.1,0.6-0.5,0.4-0.8c-0.2-0.3-0.5-0.4-0.9-0.3c-0.1,0-0.1,0-0.1,0c0,0.1-0.1,0.1-0.1,0.1
				c-0.3,0.1-0.3,0.5-0.2,0.7C173.3,82.8,173.7,82.8,174.1,82.7z"/>
			<path class="st5" d="M148.5,123.8c-0.1,0-0.1,0-0.1,0c0,0.1-0.1,0.1-0.1,0.1c-0.3,0.1-0.3,0.5-0.2,0.7c0.1,0.4,0.6,0.3,0.9,0.3
				c0.4-0.1,0.6-0.5,0.4-0.8C149.2,123.8,148.8,123.7,148.5,123.8z"/>
			<path class="st5" d="M182,135.7c-0.1,0-0.1,0-0.1,0c0,0.1-0.1,0.1-0.1,0.1c-0.3,0.1-0.3,0.5-0.2,0.7c0.1,0.4,0.6,0.3,0.9,0.3
				c0.4-0.1,0.6-0.5,0.4-0.8C182.7,135.7,182.4,135.6,182,135.7z"/>
			<path class="st5" d="M198.8,75.8c-0.1,0-0.1,0-0.1,0c0,0.1-0.1,0.1-0.1,0.1c-0.3,0.1-0.3,0.5-0.2,0.7c0.1,0.4,0.6,0.3,0.9,0.3
				c0.4-0.1,0.6-0.5,0.4-0.8C199.5,75.8,199.1,75.7,198.8,75.8z"/>
			<path class="st5" d="M165.2,135.7c-0.1,0-0.1,0-0.1,0c0,0.1-0.1,0.1-0.1,0.1c-0.3,0.1-0.3,0.5-0.2,0.7c0.1,0.4,0.6,0.3,0.9,0.3
				c0.4-0.1,0.6-0.5,0.4-0.8C166,135.7,165.6,135.6,165.2,135.7z"/>
			<path class="st5" d="M165.3,123.8c-0.1,0-0.1,0-0.1,0c0,0.1-0.1,0.1-0.1,0.1c-0.3,0.1-0.3,0.5-0.2,0.7c0.1,0.4,0.6,0.3,0.9,0.3
				c0.4-0.1,0.6-0.5,0.4-0.8C166,123.8,165.6,123.7,165.3,123.8z"/>
			<path class="st5" d="M207.1,81.6c-0.1,0-0.1,0-0.1,0c0,0.1-0.1,0.1-0.1,0.1c-0.3,0.1-0.3,0.5-0.2,0.7c0.1,0.4,0.6,0.3,0.9,0.3
				c0.4-0.1,0.6-0.5,0.4-0.8C207.8,81.6,207.5,81.5,207.1,81.6z"/>
			<path class="st5" d="M199.2,88.9c0.4-0.1,0.6-0.5,0.4-0.8c-0.2-0.3-0.5-0.4-0.9-0.3c-0.1,0-0.1,0-0.1,0c0,0.1-0.1,0.1-0.1,0.1
				c-0.3,0.1-0.3,0.5-0.2,0.7C198.4,89,198.9,89,199.2,88.9z"/>
			<path class="st5" d="M182,123.8c-0.1,0-0.1,0-0.1,0c0,0.1-0.1,0.1-0.1,0.1c-0.3,0.1-0.3,0.5-0.2,0.7c0.1,0.4,0.6,0.3,0.9,0.3
				c0.4-0.1,0.6-0.5,0.4-0.8C182.7,123.8,182.4,123.7,182,123.8z"/>
			<path class="st5" d="M132.2,88.9c0.4-0.1,0.6-0.5,0.4-0.8c-0.2-0.3-0.5-0.4-0.9-0.3c-0.1,0-0.1,0-0.1,0c0,0.1-0.1,0.1-0.1,0.1
				c-0.3,0.1-0.3,0.5-0.2,0.7C131.4,89,131.9,89,132.2,88.9z"/>
			<path class="st5" d="M157.2,68.4c-0.1,0-0.1,0-0.1,0c0,0.1-0.1,0.1-0.1,0.1c-0.3,0.1-0.3,0.5-0.2,0.7c0.1,0.4,0.6,0.3,0.9,0.3
				c0.4-0.1,0.6-0.5,0.4-0.8C157.9,68.4,157.5,68.2,157.2,68.4z"/>
			<path class="st5" d="M165.7,77c0.4-0.1,0.6-0.5,0.4-0.8c-0.2-0.3-0.5-0.4-0.9-0.3c-0.1,0-0.1,0-0.1,0c0,0.1-0.1,0.1-0.1,0.1
				c-0.3,0.1-0.3,0.5-0.2,0.7C165,77.1,165.4,77.1,165.7,77z"/>
			<path class="st5" d="M190.8,82.7c0.4-0.1,0.6-0.5,0.4-0.8c-0.2-0.3-0.5-0.4-0.9-0.3c-0.1,0-0.1,0-0.1,0c0,0.1-0.1,0.1-0.1,0.1
				c-0.3,0.1-0.3,0.5-0.2,0.7C190.1,82.8,190.5,82.8,190.8,82.7z"/>
			<path class="st5" d="M149,77c0.4-0.1,0.6-0.5,0.4-0.8c-0.2-0.3-0.5-0.4-0.9-0.3c-0.1,0-0.1,0-0.1,0c0,0.1-0.1,0.1-0.1,0.1
				c-0.3,0.1-0.3,0.5-0.2,0.7C148.2,77.1,148.6,77.1,149,77z"/>
			<path class="st5" d="M132.2,77c0.4-0.1,0.6-0.5,0.4-0.8c-0.2-0.3-0.5-0.4-0.9-0.3c-0.1,0-0.1,0-0.1,0c0,0.1-0.1,0.1-0.1,0.1
				c-0.3,0.1-0.3,0.5-0.2,0.7C131.4,77.1,131.9,77.1,132.2,77z"/>
			<path class="st5" d="M148.5,135.7c-0.1,0-0.1,0-0.1,0c0,0.1-0.1,0.1-0.1,0.1c-0.3,0.1-0.3,0.5-0.2,0.7c0.1,0.4,0.6,0.3,0.9,0.3
				c0.4-0.1,0.6-0.5,0.4-0.8C149.2,135.7,148.8,135.6,148.5,135.7z"/>
			<path class="st5" d="M165.7,65c0.4-0.1,0.6-0.5,0.4-0.8c-0.2-0.3-0.5-0.4-0.9-0.3c-0.1,0-0.1,0-0.1,0c0,0.1-0.1,0.1-0.1,0.1
				c-0.3,0.1-0.3,0.5-0.2,0.7C164.9,65.1,165.4,65,165.7,65z"/>
			<path class="st5" d="M182.5,88.9c0.4-0.1,0.6-0.5,0.4-0.8c-0.2-0.3-0.5-0.4-0.9-0.3c-0.1,0-0.1,0-0.1,0c0,0.1-0.1,0.1-0.1,0.1
				c-0.3,0.1-0.3,0.5-0.2,0.7C181.7,89,182.2,89,182.5,88.9z"/>
			<path class="st5" d="M182.5,65c0.4-0.1,0.6-0.5,0.4-0.8c-0.2-0.3-0.5-0.4-0.9-0.3c-0.1,0-0.1,0-0.1,0c0,0.1-0.1,0.1-0.1,0.1
				c-0.3,0.1-0.3,0.5-0.2,0.7C181.7,65.1,182.2,65,182.5,65z"/>
			<path class="st5" d="M208,93.4c0.4-0.1,0.6-0.5,0.4-0.8c-0.2-0.3-0.5-0.4-0.9-0.3c-0.1,0-0.1,0-0.1,0c0,0.1-0.1,0.1-0.1,0.1
				c-0.3,0.1-0.3,0.5-0.2,0.7C207.2,93.6,207.6,93.5,208,93.4z"/>
			<path class="st5" d="M157.7,141.4c0.4-0.1,0.6-0.5,0.4-0.8c-0.2-0.3-0.5-0.4-0.9-0.3c-0.1,0-0.1,0-0.1,0c0,0.1-0.1,0.1-0.1,0.1
				c-0.3,0.1-0.3,0.5-0.2,0.7C156.9,141.5,157.3,141.4,157.7,141.4z"/>
			<path class="st5" d="M174,116.3c-0.1,0-0.1,0-0.1,0c0,0.1-0.1,0.1-0.1,0.1c-0.3,0.1-0.3,0.5-0.2,0.7c0.1,0.4,0.6,0.3,0.9,0.3
				c0.4-0.1,0.6-0.5,0.4-0.8C174.7,116.3,174.3,116.2,174,116.3z"/>
			<path class="st5" d="M190.7,68.4c-0.1,0-0.1,0-0.1,0c0,0.1-0.1,0.1-0.1,0.1c-0.3,0.1-0.3,0.5-0.2,0.7c0.1,0.4,0.6,0.3,0.9,0.3
				c0.4-0.1,0.6-0.5,0.4-0.8C191.4,68.4,191.1,68.2,190.7,68.4z"/>
			<path class="st5" d="M174.1,130.6c0.4-0.1,0.6-0.5,0.4-0.8c-0.2-0.3-0.5-0.4-0.9-0.3c-0.1,0-0.1,0-0.1,0c0,0.1-0.1,0.1-0.1,0.1
				c-0.3,0.1-0.3,0.5-0.2,0.7C173.3,130.7,173.7,130.7,174.1,130.6z"/>
			<path class="st5" d="M182,111.7c-0.1,0-0.1,0-0.1,0c0,0.1-0.1,0.1-0.1,0.1c-0.3,0.1-0.3,0.5-0.2,0.7c0.1,0.4,0.6,0.3,0.9,0.3
				c0.4-0.1,0.6-0.5,0.4-0.8C182.7,111.7,182.4,111.6,182,111.7z"/>
			<path class="st5" d="M157.3,82.7c0.4-0.1,0.6-0.5,0.4-0.8c-0.2-0.3-0.5-0.4-0.9-0.3c-0.1,0-0.1,0-0.1,0c0,0.1-0.1,0.1-0.1,0.1
				c-0.3,0.1-0.3,0.5-0.2,0.7C156.5,82.8,157,82.8,157.3,82.7z"/>
			<path class="st5" d="M124.2,81.9c-0.2-0.3-0.5-0.4-0.9-0.3c-0.1,0-0.1,0-0.1,0c0,0.1-0.1,0.1-0.1,0.1c-0.3,0.1-0.3,0.5-0.2,0.7
				c0.1,0.4,0.6,0.3,0.9,0.3C124.2,82.7,124.4,82.3,124.2,81.9z"/>
			<path class="st5" d="M140.6,106.7c0.4-0.1,0.6-0.5,0.4-0.8c-0.2-0.3-0.5-0.4-0.9-0.3c-0.1,0-0.1,0-0.1,0c0,0.1-0.1,0.1-0.1,0.1
				c-0.3,0.1-0.3,0.5-0.2,0.7C139.8,106.8,140.2,106.8,140.6,106.7z"/>
			<path class="st5" d="M191.2,93.4c0.4-0.1,0.6-0.5,0.4-0.8c-0.2-0.3-0.5-0.4-0.9-0.3c-0.1,0-0.1,0-0.1,0c0,0.1-0.1,0.1-0.1,0.1
				c-0.3,0.1-0.3,0.5-0.2,0.7C190.4,93.6,190.9,93.5,191.2,93.4z"/>
			<path class="st5" d="M148.1,100.7c0.1,0.4,0.6,0.3,0.9,0.3c0.4-0.1,0.6-0.5,0.4-0.8c-0.2-0.3-0.5-0.4-0.9-0.3c-0.1,0-0.1,0-0.1,0
				c0,0.1-0.1,0.1-0.1,0.1C148,100.1,148,100.4,148.1,100.7z"/>
			<path class="st5" d="M157.3,130.6c0.4-0.1,0.6-0.5,0.4-0.8c-0.2-0.3-0.5-0.4-0.9-0.3c-0.1,0-0.1,0-0.1,0c0,0.1-0.1,0.1-0.1,0.1
				c-0.3,0.1-0.3,0.5-0.2,0.7C156.5,130.7,157,130.7,157.3,130.6z"/>
			<path class="st5" d="M165.3,147.7c-0.1,0-0.1,0-0.1,0c0,0.1-0.1,0.1-0.1,0.1c-0.3,0.1-0.3,0.5-0.2,0.7c0.1,0.4,0.6,0.3,0.9,0.3
				c0.4-0.1,0.6-0.5,0.4-0.8C166,147.7,165.6,147.6,165.3,147.7z"/>
			<path class="st5" d="M149,112.9c0.4-0.1,0.6-0.5,0.4-0.8c-0.2-0.3-0.5-0.4-0.9-0.3c-0.1,0-0.1,0-0.1,0c0,0.1-0.1,0.1-0.1,0.1
				c-0.3,0.1-0.3,0.5-0.2,0.7C148.2,113,148.6,112.9,149,112.9z"/>
			<path class="st5" d="M140.9,117.4c0.4-0.1,0.6-0.5,0.4-0.8c-0.2-0.3-0.5-0.4-0.9-0.3c-0.1,0-0.1,0-0.1,0c0,0.1-0.1,0.1-0.1,0.1
				c-0.3,0.1-0.3,0.5-0.2,0.7C140.1,117.5,140.6,117.5,140.9,117.4z"/>
			<path class="st5" d="M157.2,116.3c-0.1,0-0.1,0-0.1,0c0,0.1-0.1,0.1-0.1,0.1c-0.3,0.1-0.3,0.5-0.2,0.7c0.1,0.4,0.6,0.3,0.9,0.3
				c0.4-0.1,0.6-0.5,0.4-0.8C157.9,116.3,157.5,116.2,157.2,116.3z"/>
			<path class="st5" d="M174.4,141.4c0.4-0.1,0.6-0.5,0.4-0.8c-0.2-0.3-0.5-0.4-0.9-0.3c-0.1,0-0.1,0-0.1,0c0,0.1-0.1,0.1-0.1,0.1
				c-0.3,0.1-0.3,0.5-0.2,0.7C173.7,141.5,174.1,141.4,174.4,141.4z"/>
			<path class="st5" d="M182.9,100.1c-0.2-0.3-0.5-0.4-0.9-0.3c-0.1,0-0.1,0-0.1,0c0,0.1-0.1,0.1-0.1,0.1c-0.3,0.1-0.3,0.5-0.2,0.7
				c0.1,0.4,0.6,0.3,0.9,0.3C182.9,100.9,183.1,100.5,182.9,100.1z"/>
			<path class="st5" d="M182,147.7c-0.1,0-0.1,0-0.1,0c0,0.1-0.1,0.1-0.1,0.1c-0.3,0.1-0.3,0.5-0.2,0.7c0.1,0.4,0.6,0.3,0.9,0.3
				c0.4-0.1,0.6-0.5,0.4-0.8C182.7,147.7,182.4,147.6,182,147.7z"/>
			<path class="st6" d="M181.9,111.3c-0.1,0-0.1,0.1-0.2,0.2c-0.1,0-0.1,0-0.2,0c-0.5,0.2-0.5,0.9-0.4,1.3c0.2,0.6,1.1,0.7,1.6,0.5
				c0.6-0.2,0.8-0.8,0.6-1.4C183.1,111.4,182.5,111.1,181.9,111.3z M182.5,112.9c-0.3,0.1-0.8,0.1-0.9-0.3c-0.1-0.2-0.1-0.6,0.2-0.7
				c0.1,0,0.1-0.1,0.1-0.1c0,0,0.1,0,0.1,0c0.3-0.1,0.7,0,0.9,0.3C183.1,112.4,182.9,112.8,182.5,112.9z"/>
			<path class="st6" d="M183.4,124c-0.2-0.6-0.9-0.8-1.4-0.7c-0.1,0-0.1,0.1-0.2,0.2c-0.1,0-0.1,0-0.2,0c-0.5,0.2-0.5,0.9-0.4,1.3
				c0.2,0.6,1.1,0.7,1.6,0.5C183.4,125.2,183.6,124.5,183.4,124z M182.5,124.9c-0.3,0.1-0.8,0.1-0.9-0.3c-0.1-0.2-0.1-0.6,0.2-0.7
				c0.1,0,0.1-0.1,0.1-0.1c0,0,0.1,0,0.1,0c0.3-0.1,0.7,0,0.9,0.3C183.1,124.5,182.9,124.8,182.5,124.9z"/>
			<path class="st6" d="M181.9,135.3c-0.1,0-0.1,0.1-0.2,0.2c-0.1,0-0.1,0-0.2,0c-0.5,0.2-0.5,0.9-0.4,1.3c0.2,0.6,1.1,0.7,1.6,0.5
				c0.6-0.2,0.8-0.8,0.6-1.4C183.1,135.3,182.5,135.1,181.9,135.3z M182.5,136.9c-0.3,0.1-0.8,0.1-0.9-0.3c-0.1-0.2-0.1-0.6,0.2-0.7
				c0.1,0,0.1-0.1,0.1-0.1c0,0,0.1,0,0.1,0c0.3-0.1,0.7,0,0.9,0.3C183.1,136.4,182.9,136.8,182.5,136.9z"/>
			<path class="st6" d="M175.3,116.5c-0.2-0.6-0.9-0.8-1.4-0.7c-0.1,0-0.1,0.1-0.2,0.2c-0.1,0-0.1,0-0.2,0c-0.5,0.2-0.5,0.9-0.4,1.3
				c0.2,0.6,1.1,0.7,1.6,0.5C175.3,117.7,175.5,117,175.3,116.5z M174.4,117.4c-0.3,0.1-0.8,0.1-0.9-0.3c-0.1-0.2-0.1-0.6,0.2-0.7
				c0.1,0,0.1-0.1,0.1-0.1c0,0,0.1,0,0.1,0c0.3-0.1,0.7,0,0.9,0.3C175,117,174.9,117.3,174.4,117.4z"/>
			<path class="st6" d="M181.9,147.3c-0.1,0-0.1,0.1-0.2,0.2c-0.1,0-0.1,0-0.2,0c-0.5,0.2-0.5,0.9-0.4,1.3c0.2,0.6,1.1,0.7,1.6,0.5
				c0.6-0.2,0.8-0.8,0.6-1.4C183.1,147.3,182.5,147.1,181.9,147.3z M182.5,148.8c-0.3,0.1-0.8,0.1-0.9-0.3c-0.1-0.2-0.1-0.6,0.2-0.7
				c0.1,0,0.1-0.1,0.1-0.1c0,0,0.1,0,0.1,0c0.3-0.1,0.7,0,0.9,0.3C183.1,148.4,182.9,148.8,182.5,148.8z"/>
			<path class="st6" d="M174.3,107.1c0.6-0.2,0.8-0.8,0.6-1.4c-0.2-0.6-0.9-0.8-1.4-0.7c-0.1,0-0.1,0.1-0.2,0.2c-0.1,0-0.1,0-0.2,0
				c-0.5,0.2-0.5,0.9-0.4,1.3C173,107.3,173.8,107.3,174.3,107.1z M173.4,105.7c0.1,0,0.1-0.1,0.1-0.1c0,0,0.1,0,0.1,0
				c0.3-0.1,0.7,0,0.9,0.3c0.2,0.4,0,0.7-0.4,0.8c-0.3,0.1-0.8,0.1-0.9-0.3C173.1,106.2,173.1,105.8,173.4,105.7z"/>
			<path class="st6" d="M165.1,111.3c-0.1,0-0.1,0.1-0.2,0.2c-0.1,0-0.1,0-0.2,0c-0.5,0.2-0.5,0.9-0.4,1.3c0.2,0.6,1.1,0.7,1.6,0.5
				c0.6-0.2,0.8-0.8,0.6-1.4C166.4,111.4,165.7,111.1,165.1,111.3z M165.7,112.9c-0.3,0.1-0.8,0.1-0.9-0.3c-0.1-0.2-0.1-0.6,0.2-0.7
				c0.1,0,0.1-0.1,0.1-0.1c0,0,0.1,0,0.1,0c0.3-0.1,0.7,0,0.9,0.3C166.3,112.4,166.1,112.8,165.7,112.9z"/>
			<path class="st6" d="M174.3,131.1c0.6-0.2,0.8-0.8,0.6-1.4c-0.2-0.6-0.9-0.8-1.4-0.7c-0.1,0-0.1,0.1-0.2,0.2c-0.1,0-0.1,0-0.2,0
				c-0.5,0.2-0.5,0.9-0.4,1.3C173,131.2,173.8,131.2,174.3,131.1z M173.4,129.6c0.1,0,0.1-0.1,0.1-0.1c0,0,0.1,0,0.1,0
				c0.3-0.1,0.7,0,0.9,0.3c0.2,0.4,0,0.7-0.4,0.8c-0.3,0.1-0.8,0.1-0.9-0.3C173.1,130.1,173.1,129.8,173.4,129.6z"/>
			<path class="st6" d="M166.6,124c-0.2-0.6-0.9-0.8-1.4-0.7c-0.1,0-0.1,0.1-0.2,0.2c-0.1,0-0.1,0-0.2,0c-0.5,0.2-0.5,0.9-0.4,1.3
				c0.2,0.6,1.1,0.7,1.6,0.5C166.6,125.2,166.8,124.5,166.6,124z M165.7,124.9c-0.3,0.1-0.8,0.1-0.9-0.3c-0.1-0.2-0.1-0.6,0.2-0.7
				c0.1,0,0.1-0.1,0.1-0.1c0,0,0.1,0,0.1,0c0.3-0.1,0.7,0,0.9,0.3C166.3,124.5,166.2,124.8,165.7,124.9z"/>
			<path class="st6" d="M165.1,135.3c-0.1,0-0.1,0.1-0.2,0.2c-0.1,0-0.1,0-0.2,0c-0.5,0.2-0.5,0.9-0.4,1.3c0.2,0.6,1.1,0.7,1.6,0.5
				c0.6-0.2,0.8-0.8,0.6-1.4C166.4,135.3,165.7,135.1,165.1,135.3z M165.7,136.9c-0.3,0.1-0.8,0.1-0.9-0.3c-0.1-0.2-0.1-0.6,0.2-0.7
				c0.1,0,0.1-0.1,0.1-0.1c0,0,0.1,0,0.1,0c0.3-0.1,0.7,0,0.9,0.3C166.3,136.4,166.1,136.8,165.7,136.9z"/>
			<path class="st6" d="M158.5,116.5c-0.2-0.6-0.9-0.8-1.4-0.7c-0.1,0-0.1,0.1-0.2,0.2c-0.1,0-0.1,0-0.2,0c-0.5,0.2-0.5,0.9-0.4,1.3
				c0.2,0.6,1.1,0.7,1.6,0.5C158.5,117.7,158.8,117,158.5,116.5z M157.7,117.4c-0.3,0.1-0.8,0.1-0.9-0.3c-0.1-0.2-0.1-0.6,0.2-0.7
				c0.1,0,0.1-0.1,0.1-0.1c0,0,0.1,0,0.1,0c0.3-0.1,0.7,0,0.9,0.3C158.3,117,158.1,117.3,157.7,117.4z"/>
			<path class="st6" d="M165.2,147.3c-0.1,0-0.1,0.1-0.2,0.2c-0.1,0-0.1,0-0.2,0c-0.5,0.2-0.5,0.9-0.4,1.3c0.2,0.6,1.1,0.7,1.6,0.5
				c0.6-0.2,0.8-0.8,0.6-1.4C166.4,147.3,165.7,147.1,165.2,147.3z M165.7,148.8c-0.3,0.1-0.8,0.1-0.9-0.3c-0.1-0.2-0.1-0.6,0.2-0.7
				c0.1,0,0.1-0.1,0.1-0.1c0,0,0.1,0,0.1,0c0.3-0.1,0.7,0,0.9,0.3C166.3,148.4,166.2,148.8,165.7,148.8z"/>
			<path class="st6" d="M174.7,141.8c0.6-0.2,0.8-0.8,0.6-1.4c-0.2-0.6-0.9-0.8-1.4-0.7c-0.1,0-0.1,0.1-0.2,0.2c-0.1,0-0.1,0-0.2,0
				c-0.5,0.2-0.5,0.9-0.4,1.3C173.3,142,174.1,142,174.7,141.8z M173.7,140.3c0.1,0,0.1-0.1,0.1-0.1c0,0,0.1,0,0.1,0
				c0.3-0.1,0.7,0,0.9,0.3c0.2,0.4,0,0.7-0.4,0.8c-0.3,0.1-0.8,0.1-0.9-0.3C173.5,140.9,173.5,140.5,173.7,140.3z"/>
			<path class="st6" d="M157.6,107.1c0.6-0.2,0.8-0.8,0.6-1.4c-0.2-0.6-0.9-0.8-1.4-0.7c-0.1,0-0.1,0.1-0.2,0.2c-0.1,0-0.1,0-0.2,0
				c-0.5,0.2-0.5,0.9-0.4,1.3C156.2,107.3,157,107.3,157.6,107.1z M156.6,105.7c0.1,0,0.1-0.1,0.1-0.1c0,0,0.1,0,0.1,0
				c0.3-0.1,0.7,0,0.9,0.3c0.2,0.4,0,0.7-0.4,0.8c-0.3,0.1-0.8,0.1-0.9-0.3C156.3,106.2,156.4,105.8,156.6,105.7z"/>
			<path class="st6" d="M147.6,100.9c0.2,0.6,1.1,0.7,1.6,0.5c0.6-0.2,0.8-0.8,0.6-1.4c-0.2-0.6-0.9-0.8-1.4-0.7
				c-0.1,0-0.1,0.1-0.2,0.2c-0.1,0-0.1,0-0.2,0C147.6,99.7,147.5,100.4,147.6,100.9z M148.3,99.9c0.1,0,0.1-0.1,0.1-0.1
				c0,0,0.1,0,0.1,0c0.3-0.1,0.7,0,0.9,0.3c0.2,0.4,0,0.7-0.4,0.8c-0.3,0.1-0.8,0.1-0.9-0.3C148,100.4,148,100.1,148.3,99.9z"/>
			<path class="st6" d="M149.2,113.3c0.6-0.2,0.8-0.8,0.6-1.4c-0.2-0.6-0.9-0.8-1.4-0.7c-0.1,0-0.1,0.1-0.2,0.2c-0.1,0-0.1,0-0.2,0
				c-0.5,0.2-0.5,0.9-0.4,1.3C147.8,113.4,148.7,113.5,149.2,113.3z M148.2,111.9c0.1,0,0.1-0.1,0.1-0.1c0,0,0.1,0,0.1,0
				c0.3-0.1,0.7,0,0.9,0.3c0.2,0.4,0,0.7-0.4,0.8c-0.3,0.1-0.8,0.1-0.9-0.3C148,112.4,148,112,148.2,111.9z"/>
			<path class="st6" d="M157.6,131.1c0.6-0.2,0.8-0.8,0.6-1.4c-0.2-0.6-0.9-0.8-1.4-0.7c-0.1,0-0.1,0.1-0.2,0.2c-0.1,0-0.1,0-0.2,0
				c-0.5,0.2-0.5,0.9-0.4,1.3C156.2,131.2,157,131.2,157.6,131.1z M156.6,129.6c0.1,0,0.1-0.1,0.1-0.1c0,0,0.1,0,0.1,0
				c0.3-0.1,0.7,0,0.9,0.3c0.2,0.4,0,0.7-0.4,0.8c-0.3,0.1-0.8,0.1-0.9-0.3C156.3,130.1,156.4,129.8,156.6,129.6z"/>
			<path class="st6" d="M149.8,124c-0.2-0.6-0.9-0.8-1.4-0.7c-0.1,0-0.1,0.1-0.2,0.2c-0.1,0-0.1,0-0.2,0c-0.5,0.2-0.5,0.9-0.4,1.3
				c0.2,0.6,1.1,0.7,1.6,0.5C149.9,125.2,150.1,124.5,149.8,124z M149,124.9c-0.3,0.1-0.8,0.1-0.9-0.3c-0.1-0.2-0.1-0.6,0.2-0.7
				c0.1,0,0.1-0.1,0.1-0.1c0,0,0.1,0,0.1,0c0.3-0.1,0.7,0,0.9,0.3C149.6,124.5,149.4,124.8,149,124.9z"/>
			<path class="st6" d="M148.4,135.3c-0.1,0-0.1,0.1-0.2,0.2c-0.1,0-0.1,0-0.2,0c-0.5,0.2-0.5,0.9-0.4,1.3c0.2,0.6,1.1,0.7,1.6,0.5
				c0.6-0.2,0.8-0.8,0.6-1.4C149.6,135.3,149,135.1,148.4,135.3z M149,136.9c-0.3,0.1-0.8,0.1-0.9-0.3c-0.1-0.2-0.1-0.6,0.2-0.7
				c0.1,0,0.1-0.1,0.1-0.1c0,0,0.1,0,0.1,0c0.3-0.1,0.7,0,0.9,0.3C149.5,136.4,149.4,136.8,149,136.9z"/>
			<path class="st6" d="M140.9,129.1c0,0.2,0.1,0.5,0.1,0.7l0,0c0.1,0.2,0.1,0.3,0.1,0.5c0,0.2,0.1,0.5,0.1,0.7
				c0.4-0.3,0.5-0.8,0.3-1.3C141.3,129.4,141.1,129.2,140.9,129.1z"/>
			<path class="st6" d="M148.4,147.3c-0.1,0-0.1,0.1-0.2,0.2c-0.1,0-0.1,0-0.2,0c-0.5,0.2-0.5,0.9-0.4,1.3c0.2,0.6,1.1,0.7,1.6,0.5
				c0.6-0.2,0.8-0.8,0.6-1.4C149.6,147.3,149,147.1,148.4,147.3z M149,148.8c-0.3,0.1-0.8,0.1-0.9-0.3c-0.1-0.2-0.1-0.6,0.2-0.7
				c0.1,0,0.1-0.1,0.1-0.1c0,0,0.1,0,0.1,0c0.3-0.1,0.7,0,0.9,0.3C149.6,148.4,149.4,148.8,149,148.8z"/>
			<path class="st6" d="M157.9,141.8c0.6-0.2,0.8-0.8,0.6-1.4c-0.2-0.6-0.9-0.8-1.4-0.7c-0.1,0-0.1,0.1-0.2,0.2c-0.1,0-0.1,0-0.2,0
				c-0.5,0.2-0.5,0.9-0.4,1.3C156.6,142,157.4,142,157.9,141.8z M157,140.3c0.1,0,0.1-0.1,0.1-0.1c0,0,0.1,0,0.1,0
				c0.3-0.1,0.7,0,0.9,0.3c0.2,0.4,0,0.7-0.4,0.8c-0.3,0.1-0.8,0.1-0.9-0.3C156.7,140.9,156.7,140.5,157,140.3z"/>
			<path class="st6" d="M141.8,140.4c-0.1-0.1-0.1-0.3-0.2-0.3c0,0.5,0,1,0,1.5C141.8,141.3,141.9,140.8,141.8,140.4z"/>
			<path class="st6" d="M140.8,107.1c0.6-0.2,0.8-0.8,0.6-1.4c-0.2-0.6-0.9-0.8-1.4-0.7c-0.1,0-0.1,0.1-0.2,0.2c-0.1,0-0.1,0-0.2,0
				c-0.5,0.2-0.5,0.9-0.4,1.3C139.4,107.3,140.3,107.3,140.8,107.1z M139.9,105.7c0.1,0,0.1-0.1,0.1-0.1c0,0,0.1,0,0.1,0
				c0.3-0.1,0.7,0,0.9,0.3c0.2,0.4,0,0.7-0.4,0.8c-0.3,0.1-0.8,0.1-0.9-0.3C139.6,106.2,139.6,105.8,139.9,105.7z"/>
			<path class="st6" d="M141.2,117.8c0.6-0.2,0.8-0.8,0.6-1.4c-0.2-0.6-0.9-0.8-1.4-0.7c-0.1,0-0.1,0.1-0.2,0.2c-0.1,0-0.1,0-0.2,0
				c-0.5,0.2-0.5,0.9-0.4,1.3C139.8,118,140.6,118,141.2,117.8z M140.2,116.4c0.1,0,0.1-0.1,0.1-0.1c0,0,0.1,0,0.1,0
				c0.3-0.1,0.7,0,0.9,0.3c0.2,0.4,0,0.7-0.4,0.8c-0.3,0.1-0.8,0.1-0.9-0.3C140,116.9,140,116.5,140.2,116.4z"/>
			<path class="st6" d="M207,81.1c-0.1,0-0.1,0.1-0.2,0.2c-0.1,0-0.1,0-0.2,0c-0.5,0.2-0.5,0.9-0.4,1.3c0.2,0.6,1.1,0.7,1.6,0.5
				c0.6-0.2,0.8-0.8,0.6-1.4C208.2,81.2,207.6,81,207,81.1z M207.6,82.7c-0.3,0.1-0.8,0.1-0.9-0.3c-0.1-0.2-0.1-0.6,0.2-0.7
				c0.1,0,0.1-0.1,0.1-0.1c0,0,0.1,0,0.1,0c0.3-0.1,0.7,0,0.9,0.3C208.2,82.3,208,82.7,207.6,82.7z"/>
			<path class="st6" d="M208.2,93.9c0.6-0.2,0.8-0.8,0.6-1.4c-0.2-0.6-0.9-0.8-1.4-0.7c-0.1,0-0.1,0.1-0.2,0.2c-0.1,0-0.1,0-0.2,0
				c-0.5,0.2-0.5,0.9-0.4,1.3C206.9,94,207.7,94,208.2,93.9z M207.1,93.2c-0.1-0.2-0.1-0.6,0.2-0.7c0.1,0,0.1-0.1,0.1-0.1
				c0,0,0.1,0,0.1,0c0.3-0.1,0.7,0,0.9,0.3c0.2,0.4,0,0.7-0.4,0.8C207.6,93.5,207.2,93.6,207.1,93.2z"/>
			<path class="st6" d="M198.7,75.4c-0.1,0-0.1,0.1-0.2,0.2c-0.1,0-0.1,0-0.2,0c-0.5,0.2-0.5,0.9-0.4,1.3c0.2,0.6,1.1,0.7,1.6,0.5
				c0.6-0.2,0.8-0.8,0.6-1.4C199.9,75.5,199.2,75.2,198.7,75.4z M199.3,77c-0.3,0.1-0.8,0.1-0.9-0.3c-0.1-0.2-0.1-0.6,0.2-0.7
				c0.1,0,0.1-0.1,0.1-0.1c0,0,0.1,0,0.1,0c0.3-0.1,0.7,0,0.9,0.3C199.8,76.5,199.7,76.9,199.3,77z"/>
			<path class="st6" d="M199.5,89.4c0.6-0.2,0.8-0.8,0.6-1.4c-0.2-0.6-0.9-0.8-1.4-0.7c-0.1,0-0.1,0.1-0.2,0.2c-0.1,0-0.1,0-0.2,0
				c-0.5,0.2-0.5,0.9-0.4,1.3C198.1,89.5,199,89.5,199.5,89.4z M198.5,87.9c0.1,0,0.1-0.1,0.1-0.1c0,0,0.1,0,0.1,0
				c0.3-0.1,0.7,0,0.9,0.3c0.2,0.4,0,0.7-0.4,0.8c-0.3,0.1-0.8,0.1-0.9-0.3C198.3,88.4,198.3,88,198.5,87.9z"/>
			<path class="st6" d="M190.6,67.9c-0.1,0-0.1,0.1-0.2,0.2c-0.1,0-0.1,0-0.2,0c-0.5,0.2-0.5,0.9-0.4,1.3c0.2,0.6,1.1,0.7,1.6,0.5
				c0.6-0.2,0.8-0.8,0.6-1.4C191.8,68,191.2,67.7,190.6,67.9z M191.2,69.5c-0.3,0.1-0.8,0.1-0.9-0.3c-0.1-0.2-0.1-0.6,0.2-0.7
				c0.1,0,0.1-0.1,0.1-0.1c0,0,0.1,0,0.1,0c0.3-0.1,0.7,0,0.9,0.3C191.8,69,191.6,69.4,191.2,69.5z"/>
			<path class="st6" d="M200.1,100c-0.2-0.6-0.9-0.8-1.4-0.7c-0.1,0-0.1,0.1-0.2,0.2c-0.1,0-0.1,0-0.2,0c-0.4,0.2-0.5,0.6-0.5,1h0.5
				c0-0.2,0-0.5,0.2-0.6c0.1,0,0.1-0.1,0.1-0.1c0,0,0.1,0,0.1,0c0.3-0.1,0.7,0,0.9,0.3c0.1,0.1,0.1,0.3,0.1,0.4h0.5
				C200.2,100.4,200.2,100.2,200.1,100z"/>
			<path class="st6" d="M191.5,93.9c0.6-0.2,0.8-0.8,0.6-1.4c-0.2-0.6-0.9-0.8-1.4-0.7c-0.1,0-0.1,0.1-0.2,0.2c-0.1,0-0.1,0-0.2,0
				c-0.5,0.2-0.5,0.9-0.4,1.3C190.1,94,190.9,94,191.5,93.9z M190.3,93.2c-0.1-0.2-0.1-0.6,0.2-0.7c0.1,0,0.1-0.1,0.1-0.1
				c0,0,0.1,0,0.1,0c0.3-0.1,0.7,0,0.9,0.3c0.2,0.4,0,0.7-0.4,0.8C190.9,93.5,190.4,93.6,190.3,93.2z"/>
			<path class="st6" d="M182.8,65.4c0.6-0.2,0.8-0.8,0.6-1.4c-0.2-0.6-0.9-0.8-1.4-0.7c-0.1,0-0.1,0.1-0.2,0.2c-0.1,0-0.1,0-0.2,0
				c-0.5,0.2-0.5,0.9-0.4,1.3C181.4,65.5,182.2,65.5,182.8,65.4z M181.8,63.9c0.1,0,0.1-0.1,0.1-0.1c0,0,0.1,0,0.1,0
				c0.3-0.1,0.7,0,0.9,0.3c0.2,0.4,0,0.7-0.4,0.8c-0.3,0.1-0.8,0.1-0.9-0.3C181.5,64.4,181.5,64.1,181.8,63.9z"/>
			<path class="st6" d="M191.1,83.1c0.6-0.2,0.8-0.8,0.6-1.4c-0.2-0.6-0.9-0.8-1.4-0.7c-0.1,0-0.1,0.1-0.2,0.2c-0.1,0-0.1,0-0.2,0
				c-0.5,0.2-0.5,0.9-0.4,1.3C189.7,83.3,190.5,83.3,191.1,83.1z M190.1,81.7c0.1,0,0.1-0.1,0.1-0.1c0,0,0.1,0,0.1,0
				c0.3-0.1,0.7,0,0.9,0.3c0.2,0.4,0,0.7-0.4,0.8c-0.3,0.1-0.8,0.1-0.9-0.3C189.9,82.2,189.9,81.8,190.1,81.7z"/>
			<path class="st6" d="M182.8,77.4c0.6-0.2,0.8-0.8,0.6-1.4c-0.2-0.6-0.9-0.8-1.4-0.7c-0.1,0-0.1,0.1-0.2,0.2c-0.1,0-0.1,0-0.2,0
				c-0.5,0.2-0.5,0.9-0.4,1.3C181.4,77.5,182.2,77.6,182.8,77.4z M181.8,76c0.1,0,0.1-0.1,0.1-0.1c0,0,0.1,0,0.1,0
				c0.3-0.1,0.7,0,0.9,0.3l-0.4,0.8c-0.3,0.1-0.8,0.1-0.9-0.3C181.5,76.4,181.6,76.1,181.8,76z"/>
			<path class="st6" d="M181.2,88.8c0.2,0.6,1.1,0.7,1.6,0.5c0.6-0.2,0.8-0.8,0.6-1.4c-0.2-0.6-0.9-0.8-1.4-0.7
				c-0.1,0-0.1,0.1-0.2,0.2c-0.1,0-0.1,0-0.2,0C181.1,87.7,181,88.4,181.2,88.8z M181.8,87.9c0.1,0,0.1-0.1,0.1-0.1c0,0,0.1,0,0.1,0
				c0.3-0.1,0.7,0,0.9,0.3c0.2,0.4,0,0.7-0.4,0.8c-0.3,0.1-0.8,0.1-0.9-0.3C181.5,88.4,181.5,88,181.8,87.9z"/>
			<path class="st6" d="M173.9,67.9c-0.1,0-0.1,0.1-0.2,0.2c-0.1,0-0.1,0-0.2,0c-0.5,0.2-0.5,0.9-0.4,1.3c0.2,0.6,1.1,0.7,1.6,0.5
				c0.6-0.2,0.8-0.8,0.6-1.4C175.1,68,174.4,67.7,173.9,67.9z M174.4,69.5c-0.3,0.1-0.8,0.1-0.9-0.3c-0.1-0.2-0.1-0.6,0.2-0.7
				c0.1,0,0.1-0.1,0.1-0.1c0,0,0.1,0,0.1,0c0.3-0.1,0.7,0,0.9,0.3C175,69,174.9,69.4,174.4,69.5z"/>
			<path class="st6" d="M183.4,100c-0.2-0.6-0.9-0.8-1.4-0.7c-0.1,0-0.1,0.1-0.2,0.2c-0.1,0-0.1,0-0.2,0c-0.5,0.2-0.5,0.9-0.4,1.3
				c0.2,0.6,1.1,0.7,1.6,0.5C183.4,101.2,183.6,100.5,183.4,100z M182.5,100.9c-0.3,0.1-0.8,0.1-0.9-0.3c-0.1-0.2-0.1-0.6,0.2-0.7
				c0.1,0,0.1-0.1,0.1-0.1c0,0,0.1,0,0.1,0c0.3-0.1,0.7,0,0.9,0.3C183.1,100.5,182.9,100.9,182.5,100.9z"/>
			<path class="st6" d="M173.9,91.8c-0.1,0-0.1,0.1-0.2,0.2c-0.1,0-0.1,0-0.2,0c-0.5,0.2-0.5,0.9-0.4,1.3c0.2,0.6,1.1,0.7,1.6,0.5
				c0.6-0.2,0.8-0.8,0.6-1.4C175.1,91.9,174.4,91.7,173.9,91.8z M174.4,93.4c-0.3,0.1-0.8,0.1-0.9-0.3c-0.1-0.2-0.1-0.6,0.2-0.7
				c0.1,0,0.1-0.1,0.1-0.1c0,0,0.1,0,0.1,0c0.3-0.1,0.7,0,0.9,0.3C175,93,174.9,93.4,174.4,93.4z"/>
			<path class="st6" d="M166,65.4c0.6-0.2,0.8-0.8,0.6-1.4c-0.2-0.6-0.9-0.8-1.4-0.7c-0.1,0-0.1,0.1-0.2,0.2c-0.1,0-0.1,0-0.2,0
				c-0.5,0.2-0.5,0.9-0.4,1.3C164.6,65.5,165.4,65.5,166,65.4z M165,63.9c0.1,0,0.1-0.1,0.1-0.1c0,0,0.1,0,0.1,0
				c0.3-0.1,0.7,0,0.9,0.3c0.2,0.4,0,0.7-0.4,0.8c-0.3,0.1-0.8,0.1-0.9-0.3C164.7,64.4,164.8,64.1,165,63.9z"/>
			<path class="st6" d="M172.7,82.7c0.2,0.6,1.1,0.7,1.6,0.5c0.6-0.2,0.8-0.8,0.6-1.4c-0.2-0.6-0.9-0.8-1.4-0.7
				c-0.1,0-0.1,0.1-0.2,0.2c-0.1,0-0.1,0-0.2,0C172.7,81.5,172.6,82.2,172.7,82.7z M173.4,81.7c0.1,0,0.1-0.1,0.1-0.1
				c0,0,0.1,0,0.1,0c0.3-0.1,0.7,0,0.9,0.3c0.2,0.4,0,0.7-0.4,0.8c-0.3,0.1-0.8,0.1-0.9-0.3C173.1,82.2,173.1,81.8,173.4,81.7z"/>
			<path class="st6" d="M166,77.4c0.6-0.2,0.8-0.8,0.6-1.4c-0.2-0.6-0.9-0.8-1.4-0.7c-0.1,0-0.1,0.1-0.2,0.2c-0.1,0-0.1,0-0.2,0
				c-0.5,0.2-0.5,0.9-0.4,1.3C164.6,77.5,165.4,77.6,166,77.4z M165,76c0.1,0,0.1-0.1,0.1-0.1c0,0,0.1,0,0.1,0
				c0.3-0.1,0.7,0,0.9,0.3c0.2,0.4,0,0.7-0.4,0.8c-0.3,0.1-0.8,0.1-0.9-0.3C164.8,76.4,164.8,76.1,165,76z"/>
			<path class="st6" d="M166,89.4c0.6-0.2,0.8-0.8,0.6-1.4c-0.2-0.6-0.9-0.8-1.4-0.7c-0.1,0-0.1,0.1-0.2,0.2c-0.1,0-0.1,0-0.2,0
				c-0.5,0.2-0.5,0.9-0.4,1.3C164.6,89.5,165.4,89.5,166,89.4z M165,87.9c0.1,0,0.1-0.1,0.1-0.1c0,0,0.1,0,0.1,0
				c0.3-0.1,0.7,0,0.9,0.3c0.2,0.4,0,0.7-0.4,0.8c-0.3,0.1-0.8,0.1-0.9-0.3C164.7,88.4,164.8,88,165,87.9z"/>
			<path class="st6" d="M157.1,67.9c-0.1,0-0.1,0.1-0.2,0.2c-0.1,0-0.1,0-0.2,0c-0.5,0.2-0.5,0.9-0.4,1.3c0.2,0.6,1.1,0.7,1.6,0.5
				c0.6-0.2,0.8-0.8,0.6-1.4C158.3,68,157.7,67.7,157.1,67.9z M157.7,69.5c-0.3,0.1-0.8,0.1-0.9-0.3c-0.1-0.2-0.1-0.6,0.2-0.7
				c0.1,0,0.1-0.1,0.1-0.1c0,0,0.1,0,0.1,0c0.3-0.1,0.7,0,0.9,0.3C158.3,69,158.1,69.4,157.7,69.5z"/>
			<path class="st6" d="M165.2,99.3c-0.1,0-0.1,0.1-0.2,0.2c-0.1,0-0.1,0-0.2,0c-0.5,0.2-0.5,0.9-0.4,1.3c0.2,0.6,1.1,0.7,1.6,0.5
				c0.6-0.2,0.8-0.8,0.6-1.4C166.4,99.4,165.7,99.2,165.2,99.3z M165.7,100.9c-0.3,0.1-0.8,0.1-0.9-0.3c-0.1-0.2-0.1-0.6,0.2-0.7
				c0.1,0,0.1-0.1,0.1-0.1c0,0,0.1,0,0.1,0c0.3-0.1,0.7,0,0.9,0.3C166.3,100.5,166.2,100.9,165.7,100.9z"/>
			<path class="st6" d="M157.6,83.1c0.6-0.2,0.8-0.8,0.6-1.4c-0.2-0.6-0.9-0.8-1.4-0.7c-0.1,0-0.1,0.1-0.2,0.2c-0.1,0-0.1,0-0.2,0
				c-0.5,0.2-0.5,0.9-0.4,1.3C156.2,83.3,157,83.3,157.6,83.1z M156.6,81.7c0.1,0,0.1-0.1,0.1-0.1c0,0,0.1,0,0.1,0
				c0.3-0.1,0.7,0,0.9,0.3c0.2,0.4,0,0.7-0.4,0.8c-0.3,0.1-0.8,0.1-0.9-0.3C156.3,82.2,156.4,81.8,156.6,81.7z"/>
			<path class="st6" d="M149.3,77.4c0.6-0.2,0.8-0.8,0.6-1.4c-0.2-0.6-0.9-0.8-1.4-0.7c-0.1,0-0.1,0.1-0.2,0.2c-0.1,0-0.1,0-0.2,0
				c-0.5,0.2-0.5,0.9-0.4,1.3C147.9,77.5,148.7,77.6,149.3,77.4z M148.3,76c0.1,0,0.1-0.1,0.1-0.1c0,0,0.1,0,0.1,0
				c0.3-0.1,0.7,0,0.9,0.3c0.2,0.4,0,0.7-0.4,0.8c-0.3,0.1-0.8,0.1-0.9-0.3C148,76.4,148,76.1,148.3,76z"/>
			<path class="st6" d="M148.4,87.3c-0.1,0-0.1,0.1-0.2,0.2c-0.1,0-0.1,0-0.2,0c-0.5,0.2-0.5,0.9-0.4,1.3c0.2,0.6,1.1,0.7,1.6,0.5
				c0.6-0.2,0.8-0.8,0.6-1.4C149.6,87.4,149,87.2,148.4,87.3z M149,88.9c-0.3,0.1-0.8,0.1-0.9-0.3c-0.1-0.2-0.1-0.6,0.2-0.7
				c0.1,0,0.1-0.1,0.1-0.1c0,0,0.1,0,0.1,0c0.3-0.1,0.7,0,0.9,0.3C149.5,88.5,149.4,88.8,149,88.9z"/>
			<path class="st6" d="M140,81.1c-0.1,0-0.1,0.1-0.2,0.2c-0.1,0-0.1,0-0.2,0c-0.5,0.2-0.5,0.9-0.4,1.3c0.2,0.6,1.1,0.7,1.6,0.5
				c0.6-0.2,0.8-0.8,0.6-1.4C141.2,81.2,140.6,81,140,81.1z M140.6,82.7c-0.3,0.1-0.8,0.1-0.9-0.3c-0.1-0.2-0.1-0.6,0.2-0.7
				c0.1,0,0.1-0.1,0.1-0.1c0,0,0.1,0,0.1,0c0.3-0.1,0.7,0,0.9,0.3C141.2,82.3,141,82.7,140.6,82.7z"/>
			<path class="st6" d="M157.9,93.9c0.6-0.2,0.8-0.8,0.6-1.4c-0.2-0.6-0.9-0.8-1.4-0.7c-0.1,0-0.1,0.1-0.2,0.2c-0.1,0-0.1,0-0.2,0
				c-0.5,0.2-0.5,0.9-0.4,1.3C156.6,94,157.4,94,157.9,93.9z M157,92.4c0.1,0,0.1-0.1,0.1-0.1c0,0,0.1,0,0.1,0
				c0.3-0.1,0.7,0,0.9,0.3c0.2,0.4,0,0.7-0.4,0.8c-0.3,0.1-0.8,0.1-0.9-0.3C156.7,92.9,156.7,92.6,157,92.4z"/>
			<path class="st6" d="M132.5,77.4c0.6-0.2,0.8-0.8,0.6-1.4c-0.2-0.6-0.9-0.8-1.4-0.7c-0.1,0-0.1,0.1-0.2,0.2c-0.1,0-0.1,0-0.2,0
				c-0.5,0.2-0.5,0.9-0.4,1.3C131.1,77.5,131.9,77.6,132.5,77.4z M131.5,76c0.1,0,0.1-0.1,0.1-0.1c0,0,0.1,0,0.1,0
				c0.3-0.1,0.7,0,0.9,0.3c0.2,0.4,0,0.7-0.4,0.8c-0.3,0.1-0.8,0.1-0.9-0.3C131.3,76.4,131.3,76.1,131.5,76z"/>
			<path class="st6" d="M141.2,69.9c0.6-0.2,0.8-0.8,0.6-1.4c0,0,0,0,0,0c-0.2,0-0.3,0.1-0.5,0.1c0,0,0,0.1,0.1,0.1
				c0.2,0.4,0,0.7-0.4,0.8c-0.3,0.1-0.8,0.1-0.9-0.3c0-0.1,0-0.2,0-0.3c-0.1,0-0.3,0.1-0.5,0.1c0,0.2,0,0.3,0.1,0.5
				C139.8,70.1,140.6,70.1,141.2,69.9z"/>
			<path class="st6" d="M130.9,88.8c0.2,0.6,1.1,0.7,1.6,0.5c0.6-0.2,0.8-0.8,0.6-1.4c-0.2-0.6-0.9-0.8-1.4-0.7
				c-0.1,0-0.1,0.1-0.2,0.2c-0.1,0-0.1,0-0.2,0C130.8,87.7,130.7,88.4,130.9,88.8z M131.5,87.9c0.1,0,0.1-0.1,0.1-0.1
				c0,0,0.1,0,0.1,0c0.3-0.1,0.7,0,0.9,0.3c0.2,0.4,0,0.7-0.4,0.8c-0.3,0.1-0.8,0.1-0.9-0.3C131.2,88.4,131.3,88,131.5,87.9z"/>
			<path class="st6" d="M141.2,93.9c0.6-0.2,0.8-0.8,0.6-1.4c-0.2-0.6-0.9-0.8-1.4-0.7c-0.1,0-0.1,0.1-0.2,0.2c-0.1,0-0.1,0-0.2,0
				c-0.5,0.2-0.5,0.9-0.4,1.3C139.8,94,140.6,94,141.2,93.9z M140.2,92.4c0.1,0,0.1-0.1,0.1-0.1c0,0,0.1,0,0.1,0
				c0.3-0.1,0.7,0,0.9,0.3c0.2,0.4,0,0.7-0.4,0.8c-0.3,0.1-0.8,0.1-0.9-0.3C140,92.9,140,92.6,140.2,92.4z"/>
			<path class="st6" d="M124.1,83.1c0.6-0.2,0.8-0.8,0.6-1.4c-0.2-0.6-0.9-0.8-1.4-0.7c-0.1,0-0.1,0.1-0.2,0.2c-0.1,0-0.1,0-0.2,0
				c-0.5,0.2-0.5,0.9-0.4,1.3C122.7,83.3,123.5,83.3,124.1,83.1z M122.9,82.4c-0.1-0.2-0.1-0.6,0.2-0.7c0.1,0,0.1-0.1,0.1-0.1
				c0,0,0.1,0,0.1,0c0.3-0.1,0.7,0,0.9,0.3c0.2,0.4,0,0.7-0.4,0.8C123.5,82.8,123,82.8,122.9,82.4z"/>
		</g>
		<g>
			<path class="st7" d="M154.7,66.3c-0.7,0-1,0-1,0c-0.2,0-0.3-0.2-0.3-0.4c0-0.2,0.2-0.3,0.4-0.3c0.1,0,8.9,0.7,20.7-5.3
				c0.2-0.1,0.4,0,0.5,0.1c0.1,0.2,0,0.4-0.1,0.5c-6.3,3.2-11.7,4.5-15.1,5C157.4,66.3,155.7,66.3,154.7,66.3z"/>
		</g>
		<g>
			<g>
				<path class="st4" d="M197.2,122.1l-69.9,0.6c-7.3,0.1-9.9,5.4-9.8,12.8l14.5,1.3c0.1,7.4,12.1,11.7,19.4,11.6l46.2,0.6
					c7.3-0.1,13.2-6.2,13.1-13.6l0,0C210.6,128,204.5,122,197.2,122.1z"/>
			</g>
			<g>
				<g>
					<path class="st4" d="M135.3,130.6L135.3,130.6c-1.1-0.3-2.2-0.1-3.1,0.5c-0.5-1.1-1.4-2-2.7-2.4l0,0c-1.1-0.3-2.2-0.1-3.1,0.4
						c-0.5-0.9-1.4-1.6-2.5-1.9c-0.9-0.3-1.9-0.2-2.7,0.2c-0.5-0.8-1.3-1.5-2.4-1.8c-2.2-0.6-4.4,0.7-5,2.9l-3.7,13.7
						c-0.6,2.2,0.7,4.4,2.9,5c0.9,0.3,1.9,0.2,2.7-0.2c0.5,0.8,1.3,1.5,2.4,1.8c1.1,0.3,2.2,0.1,3.1-0.4c0.5,0.9,1.4,1.6,2.5,1.9
						l0,0c1.4,0.4,2.9,0,3.9-1c0.5,0.8,1.3,1.4,2.3,1.7c2.1,0.6,4.1-0.7,4.7-2.7l3.5-13C138.6,133.3,137.4,131.2,135.3,130.6z"/>
				</g>
				<g>
					<path class="st4" d="M113.4,130.4c0,0,0.1-5.5,7.3-7.8c6.5-2,23.8,0.4,23.8,0.4l-6.4,12.3L113.4,130.4z"/>
				</g>
				<g>
					<path class="st8" d="M129.8,151.4C129.8,151.4,129.7,151.4,129.8,151.4c-2.3-0.6-3.6-2.9-3-5.2l3.5-13c0.1-0.2,0.2-0.3,0.4-0.3
						c0.2,0.1,0.3,0.3,0.3,0.4l-3.5,13c-0.5,1.9,0.6,3.8,2.5,4.3c0.2,0.1,0.3,0.3,0.3,0.4C130.1,151.3,130,151.4,129.8,151.4z"/>
				</g>
				<g>
					<path class="st8" d="M134.8,148.2C134.8,148.2,134.7,148.2,134.8,148.2c-0.3-0.1-0.4-0.3-0.3-0.4l2-7.7
						c0.1-0.2,0.3-0.3,0.4-0.3c0.2,0.1,0.3,0.3,0.3,0.4l-2,7.7C135.1,148.2,135,148.2,134.8,148.2z"/>
				</g>
				<g>
					<path class="st8" d="M123.6,150.7C123.6,150.7,123.6,150.7,123.6,150.7c-1.2-0.3-2.2-1.1-2.8-2.1c-0.6-1-0.7-2.2-0.4-3.4
						l3.7-13.7c0.1-0.2,0.2-0.3,0.4-0.3c0.2,0.1,0.3,0.3,0.3,0.4l-3.7,13.7c-0.5,2,0.6,4,2.6,4.6c0.2,0.1,0.3,0.3,0.3,0.4
						C124,150.6,123.8,150.7,123.6,150.7z"/>
				</g>
				<g>
					<path class="st8" d="M118,149.2C118,149.2,118,149.2,118,149.2c-2.5-0.7-3.9-3.1-3.2-5.5l3.7-13.7c0.1-0.2,0.3-0.3,0.4-0.3
						c0.2,0.1,0.3,0.3,0.3,0.4l-3.7,13.7c-0.5,2,0.6,4,2.6,4.6c0.2,0.1,0.3,0.3,0.3,0.4C118.3,149.1,118.2,149.2,118,149.2z"/>
				</g>
			</g>
			<g>
				<path class="st8" d="M191.1,122.5h-5.9c-0.2,0-0.3-0.2-0.3-0.3c0-0.2,0.2-0.3,0.3-0.3h5.9c0.2,0,0.3,0.2,0.3,0.3
					C191.5,122.3,191.3,122.5,191.1,122.5z"/>
			</g>
		</g>
		<g>
			<path class="st9" d="M147.2,149.2h-1.3c-0.5,0-0.8-0.4-0.8-0.8v-26.9c0-0.5,0.4-0.8,0.8-0.8h1.3c0.5,0,0.8,0.4,0.8,0.8v26.9
				C148,148.8,147.6,149.2,147.2,149.2z"/>
		</g>
		<g>
			<path class="st9" d="M151.4,149.2H150c-0.5,0-0.8-0.4-0.8-0.8v-26.9c0-0.5,0.4-0.8,0.8-0.8h1.3c0.5,0,0.8,0.4,0.8,0.8v26.9
				C152.2,148.8,151.8,149.2,151.4,149.2z"/>
		</g>
		<g>
			<polygon class="st6" points="212.8,103.3 185.7,103.3 185.7,98.9 213.3,98.9 			"/>
		</g>
		<g>
			<path class="st7" d="M134.2,100.2c-0.2,0-0.3-0.1-0.3-0.3c-1.3-13.1,4.9-18.4,5.1-18.6c0.1-0.1,0.4-0.1,0.5,0.1
				c0.1,0.1,0.1,0.4-0.1,0.5c-0.1,0.1-6.1,5.3-4.9,18C134.5,100.1,134.4,100.2,134.2,100.2C134.2,100.2,134.2,100.2,134.2,100.2z"/>
		</g>
		<g>
			<path class="st7" d="M185.3,103.3L185.3,103.3c-0.2,0-0.4-0.2-0.3-0.4l0.3-12.6c0-0.2,0.2-0.3,0.3-0.3l0,0c0.2,0,0.3,0.2,0.3,0.4
				l-0.3,12.6C185.6,103.2,185.5,103.3,185.3,103.3z"/>
		</g>
		<g>
			<polygon class="st6" points="116.8,83.1 133.7,99.1 134.1,100.1 131.8,102.6 114.3,86.1 			"/>
		</g>
		<g>
			<path class="st10" d="M161.9,4.6c0,0-12.2-5.2-19.6,12.2c-6.2,14.7-4.1,35.3-4.1,35.3l7.4,4.4c0,0-1.3-27.8,4.3-36.2
				s13.6-9.9,13.6-9.9L161.9,4.6z"/>
		</g>
		<g>
			<path class="st4" d="M147.6,41.7c-0.7,0.4-1.7,0.7-2.5,0.6c-2.5-0.1-4.5-2.2-4.4-4.8c0.1-2.5,2.2-4.5,4.8-4.4
				c0.3,0,0.6,0.1,0.9,0.1l0.4,0.1c0,0-0.1,2,0.5,5.8L147.6,41.7z"/>
		</g>
		<g>
			<path class="st4" d="M163.4,10.4c4.3,0.5,8.8,3.3,10.5,7.3c2,4.7,3.6,12.8,2.6,19.6c-1.7,12-9.9,20.5-17.9,19.3
				c-8-1.3-14-8.3-13.4-21.3c0.4-8.4,4.2-18.3,8.2-22.1C157.5,9.3,163.4,10.4,163.4,10.4z"/>
		</g>
		<g>
			<path class="st11" d="M169.3,29.6c0,0-3.4,0.4-4.5,2.1c-1.1,1.7-0.4,2.8-0.2,2.8c0.2,0,7.8-1.3,8.1-1.3c0.3,0.1,0.7-2.5-0.2-3
				C171.5,29.7,169.3,29.6,169.3,29.6z"/>
			<path class="st12" d="M170.2,33.6c0,0,1.1-1.8-0.3-3.4c0,0-1.4,0-3.3,0.4c0,0-1.1,1.6,0.5,3.4L170.2,33.6z"/>
			<g>
				<path class="st12" d="M164,32.7c0,0,0-1.8,2.4-2.9c2.4-1.1,5.4-0.5,6.5-1c1.1-0.5,1.5-0.9,2.2-0.7c0.8,0.4-0.7,3.1-1.7,3.8
					c0,0-0.5,1.5-0.7,1.2c-0.2-0.2,0.6-2.3-0.6-2.7c-1.2-0.4-5-0.2-6.2,0.7c-1.2,0.9-1.4,2.3-1.5,2.5C164.1,34,164,32.7,164,32.7z"
					/>
				<path class="st12" d="M171.9,29.6c0,0,0.9-1.1,0.7-1.8c-0.3-0.7-1,1.1-1.9,1.5C169.7,29.5,171.9,29.6,171.9,29.6z"/>
				<path class="st12" d="M170.5,29.5c0,0,0.9-1.2,0.5-1.9s-0.9,1.2-1.9,1.6C168.3,29.7,170.5,29.5,170.5,29.5z"/>
			</g>
		</g>
		<g>
			<path class="st4" d="M173,43.7c0.7,0.5,1.5,0.9,2.4,1c2.5,0.3,4.8-1.5,5-4.1c0.3-2.5-1.5-4.8-4.1-5c-0.3,0-0.6,0-0.9,0l-0.4,0.1
				c0,0-0.3,2-1.3,5.7L173,43.7z"/>
		</g>
		<g>
			<path class="st13" d="M174.3,41.5c-0.1,0-0.1,0-0.2-0.1c-0.1-0.1-0.2-0.3-0.1-0.5c1.8-2.2,3.9-1.7,4-1.6c0.2,0.1,0.3,0.3,0.3,0.4
				c-0.1,0.2-0.3,0.3-0.4,0.3l0,0c-0.1,0-1.8-0.5-3.3,1.4C174.6,41.5,174.5,41.5,174.3,41.5z"/>
		</g>
		<g>
			<path class="st8" d="M146.6,39.4c-0.1,0-0.2-0.1-0.3-0.2c-1.2-2.1-3-1.9-3-1.9c-0.2,0-0.4-0.1-0.4-0.3c0-0.2,0.1-0.4,0.3-0.4
				c0.1,0,2.3-0.3,3.7,2.2c0.1,0.2,0,0.4-0.1,0.5C146.8,39.4,146.7,39.4,146.6,39.4z"/>
		</g>
		<g>
			<g>
				<path class="st14" d="M155.7,42.7c0,0,1.3-0.7,4.4-0.5c3.1,0.1,5.1,1.3,5.1,1.3s-1,2.9-3.5,4.7
					C158.7,50.4,155.8,45.9,155.7,42.7z"/>
			</g>
			<g>
				<path class="st12" d="M155.1,42.4c0,0,1.5,4.5,4.8,4.8s5.8-4.1,5.8-4.1S160.4,44.6,155.1,42.4z"/>
			</g>
			<g>
				<g>
					<path class="st2" d="M159.9,47.3c1.2,0.1,2.3-0.5,3.3-1.2c-0.7-0.8-1.7-1.3-3-1.4c-1.2-0.1-2.3,0.3-3,0.9
						C157.8,46.5,158.7,47.2,159.9,47.3z"/>
				</g>
			</g>
			<g>
				<path class="st2" d="M161.6,44c-4.6,0-7.6-1.9-7.8-2c-0.2-0.1-0.2-0.3-0.1-0.5c0.1-0.2,0.3-0.2,0.5-0.1c0.1,0,5.5,3.4,12.6,1
					c0.2-0.1,0.4,0,0.5,0.2c0.1,0.2,0,0.4-0.2,0.5C165,43.8,163.2,44,161.6,44z"/>
			</g>
			<g>
				<path class="st8" d="M153.4,43C153.4,43,153.4,43,153.4,43c-0.2,0-0.4-0.2-0.3-0.4c0.1-1.5,1.6-2,1.7-2c0.2-0.1,0.4,0.1,0.5,0.2
					c0.1,0.2-0.1,0.4-0.2,0.5c-0.1,0-1.1,0.4-1.2,1.4C153.7,42.9,153.6,43,153.4,43z"/>
			</g>
			<g>
				<path class="st8" d="M167.5,44c-0.2,0-0.3-0.1-0.3-0.3c-0.1-1.1-0.9-1.4-0.9-1.4c-0.2-0.1-0.3-0.3-0.2-0.5s0.3-0.3,0.5-0.2
					c0.1,0,1.1,0.5,1.3,2C167.9,43.8,167.7,44,167.5,44C167.5,44,167.5,44,167.5,44z"/>
			</g>
		</g>
		<g>
			<path class="st8" d="M160.1,56.9c-0.4,0-0.8,0-1.2-0.1c-6-0.6-9.6-5.1-10.8-6.6c-0.1-0.1-0.1-0.4,0.1-0.5
				c0.1-0.1,0.4-0.1,0.5,0.1c1.2,1.4,4.7,5.7,10.4,6.3c3.5,0.4,6.7-0.9,10-4.2c0.1-0.1,0.4-0.1,0.5,0c0.1,0.1,0.1,0.4,0,0.5
				C166.3,55.5,163.3,56.9,160.1,56.9z"/>
		</g>
		<g>
			<g>
				<path class="st8" d="M160.9,39.6c-2,0-2.9-1.1-3.1-2.2c0-0.2,0.1-0.4,0.3-0.4c0.2,0,0.4,0.1,0.4,0.3c0.1,0.4,0.5,1.7,2.5,1.6
					c1.3,0,1.6-1.3,1.6-1.3c0.1-0.2,0.2-0.3,0.4-0.3c0.2,0.1,0.3,0.2,0.3,0.4c-0.2,0.6-0.9,1.8-2.3,1.9
					C161,39.6,161,39.6,160.9,39.6z"/>
			</g>
		</g>
		<g>
			<path class="st10" d="M161.1,4.8c9.6-2.5,17.9,1.5,22.7,10.6c7,13.3,1.5,41,1.5,41l-10,5l0.3-7.4l-1.7,9l-3.4,1.6
				c0,0,4.3-21,3.2-36.2c-1.1-15.3-14.3-15.3-14.3-15.3L161.1,4.8z"/>
		</g>
		<g>
			<path class="st4" d="M110.3,65.3c-0.1-6.8-5-9.2-11.9-9.1l-6.9-3.6c-6.9,0.1-4.2,15.2-4.1,22L87,117.7
				c0.1,6.8,5.9,12.3,12.8,12.2l0,0c6.9-0.1,12.4-5.8,12.3-12.6L110.3,65.3z"/>
		</g>
		<g>
			<g>
				<g>
					<path class="st4" d="M108,53.7l-9.7-20.3c-0.9-1.8-3.1-2.6-4.9-1.7l-0.4,0.2c-1,0.5-1.7,1.4-2,2.4c-1.1-1.2-2.9-1.6-4.4-0.9
						l-0.4,0.2c-1.4,0.7-2.2,2.3-2,3.8c-1.1-0.7-2.6-0.8-3.8-0.1L80,37.4c-1.8,1-2.4,3.3-1.4,5l1.1,2c-1.1-0.7-2.5-0.7-3.6,0
						l-0.3,0.2c-1.6,1-2.1,3.1-1.1,4.7l8.8,14.1c1,1.6,3.1,2.1,4.7,1.1l0.3-0.2c0.7-0.4,1.2-1.1,1.4-1.9l1.3,2.3
						c1,1.8,3.3,2.4,5,1.4l0.3-0.2c1.1-0.6,1.7-1.7,1.8-2.8c0.7,0.1,1.5,0,2.3-0.3l0.4-0.2c1.4-0.7,2.2-2.2,2-3.7
						c0.9,0.3,1.9,0.3,2.7-0.2l0.4-0.2C108.1,57.7,108.8,55.5,108,53.7z"/>
				</g>
				<g>
					<path class="st8" d="M87.4,56.5c-0.1,0-0.2-0.1-0.3-0.2l-6.5-10.9c-0.1-0.1-0.2-0.3-0.3-0.5c-0.3-0.4-0.6-0.8-0.9-1.4
						c-0.1-0.2,0-0.4,0.1-0.5c0.2-0.1,0.4,0,0.5,0.1c0.3,0.6,0.6,1,0.9,1.3c0.1,0.2,0.3,0.3,0.4,0.5L87.7,56
						c0.1,0.2,0.1,0.4-0.1,0.5C87.5,56.5,87.5,56.5,87.4,56.5z"/>
				</g>
				<g>
					<path class="st8" d="M93.5,53.1c-0.1,0-0.3-0.1-0.3-0.2l-7.8-14.1c-0.5-0.8-1.3-1.3-2.2-1.6c-0.9-0.2-1.9-0.1-2.7,0.4
						c-0.6,0.4-1.1,0.9-1.4,1.6c-0.4,1-0.3,2.2,0.3,3.2l0.9,1.5c0.1,0.2,0.1,0.4-0.1,0.5c-0.2,0.1-0.4,0.1-0.5-0.1l-0.9-1.5
						c-0.7-1.2-0.8-2.7-0.3-3.9c0.3-0.8,0.9-1.5,1.7-1.9c1-0.6,2.1-0.8,3.2-0.5c1.1,0.3,2.1,0.9,2.6,1.9l7.8,14.1
						c0.1,0.2,0,0.4-0.1,0.5C93.6,53.1,93.6,53.1,93.5,53.1z"/>
				</g>
				<g>
					<path class="st8" d="M98.9,49.9c-0.1,0-0.3-0.1-0.3-0.2l-7.3-14.3c-0.9-1.7-3-2.5-4.8-1.6c-1.4,0.7-2,1.8-1.9,3.3
						c0,0.2-0.1,0.4-0.3,0.4c-0.2,0-0.4-0.1-0.4-0.3c-0.2-1.8,0.6-3.1,2.3-3.9c2.1-1.1,4.7-0.2,5.7,1.9l7.3,14.3
						c0.1,0.2,0,0.4-0.1,0.5C99,49.8,98.9,49.9,98.9,49.9z"/>
				</g>
			</g>
			<g>
				<path class="st4" d="M113.5,41.7l-0.4-0.2c-2-0.9-4.4-0.1-5.3,1.9L102.8,54l-21.6,5.3c0,0,5,10.6,12.5,12.4
					c5.5,1.3,9.9-0.6,13.9-3.8c4.3-3.4,4.2-12,4.9-14.6l2.9-6.3C116.3,45,115.5,42.6,113.5,41.7z"/>
			</g>
			<g>
				<path class="st8" d="M86.9,58.5c-0.1,0-0.2-0.1-0.3-0.1c-0.1-0.1-0.1-0.4,0.1-0.5c0.4-0.3,9-6.7,15.7-8c0.2,0,0.4,0.1,0.4,0.3
					c0,0.2-0.1,0.4-0.3,0.4c-6.5,1.2-15.3,7.8-15.4,7.9C87,58.5,86.9,58.5,86.9,58.5z"/>
			</g>
			<g>
				<path class="st8" d="M101.5,66.4c-0.2,0-0.3-0.1-0.3-0.3c-0.6-4-4-7.7-4.1-7.7c-0.1-0.1-0.1-0.4,0-0.5s0.4-0.1,0.5,0
					c0.1,0.1,3.6,3.9,4.2,8.1C101.9,66.1,101.7,66.3,101.5,66.4C101.5,66.4,101.5,66.4,101.5,66.4z"/>
			</g>
		</g>
		<g>
			<path class="st9" d="M85.7,78.3l-0.1-1.3c-0.1-0.5,0.3-0.9,0.7-0.9l26.8-2.7c0.5-0.1,0.9,0.3,0.9,0.7l0.1,1.3
				c0.1,0.5-0.3,0.9-0.7,0.9L86.6,79C86.2,79,85.8,78.7,85.7,78.3z"/>
		</g>
		<g>
			<path class="st8" d="M112.1,111.4c-0.2,0-0.3-0.1-0.3-0.3L111,89.7c0-0.2,0.1-0.4,0.3-0.4s0.4,0.1,0.4,0.3l0.7,21.4
				C112.5,111.3,112.3,111.4,112.1,111.4L112.1,111.4z"/>
		</g>
		<path class="st14" d="M157.5,23.3c0,0-0.1-1.6-1.4-2.5c-1.3-0.9-1.2,0-1.2,0s-0.2-0.5-1.2-0.6c-1-0.1-2.5,0-3.6,0.4
			c-1.1,0.5-1.3,1.8-1.3,1.8s1.9-0.9,4-0.5c2.1,0.5,2.9,1.1,3.6,1.6C157.3,24.1,157.5,23.3,157.5,23.3z"/>
		<path class="st14" d="M164.3,23.4c0,0,0.3-1.6,1.7-2.3c1.4-0.7,1.1,0.1,1.1,0.1s0.3-0.4,1.3-0.4s2.5,0.3,3.5,0.9
			c1,0.6,1.1,1.9,1.1,1.9s-1.8-1.1-3.9-0.9c-2.1,0.2-3,0.7-3.8,1.1C164.5,24.3,164.3,23.4,164.3,23.4z"/>
		<g>
			<path class="st10" d="M159.4,13.2c0,0,10.6,3,11.9,17.8c1.2,14.8-5,35.1-5,35.1l7.2-2.1c0,0,2.9-18.5,3.5-28.3
				s-2.3-24.1-16.6-26.1L159.4,13.2z"/>
		</g>
		<g>
			<path class="st10" d="M159.4,13.2c0,0-10.2,0.8-11,19.7s0.2,25.4,0.2,25.4l-4.6-2.9c0,0-0.4-23.3,2.3-31.2
				c2.6-8,6.6-15.3,14.1-13.8L159.4,13.2z"/>
		</g>
		<g>
			<path class="st11" d="M152.7,28.4c0,0,3.3,0.7,4.3,2.5c1,1.8,0.1,2.8-0.1,2.8c-0.2,0-7.6-2.1-7.9-2c-0.3,0-0.5-2.6,0.5-3
				C150.4,28.3,152.7,28.4,152.7,28.4z"/>
			<path class="st12" d="M151.6,32.3c0,0-1.1-1.8,0.6-3.4c0,0,1.3,0.1,3.1,0.8c0,0,1.1,1.8-0.5,3.5L151.6,32.3z"/>
			<g>
				<path class="st12" d="M157.6,32c0,0,0.2-1.8-2.1-3.2c-2.3-1.4-5.3-1-6.3-1.6c-1-0.6-1.4-1.1-2.1-0.9c-0.9,0.3,0.4,3.2,1.3,3.9
					c0,0,0.4,1.5,0.6,1.3c0.2-0.2-0.4-2.4,0.9-2.7c1.2-0.3,5,0.3,6.1,1.3c1.1,1,1.1,2.4,1.3,2.7C157.4,33.2,157.6,32,157.6,32z"/>
				<path class="st12" d="M150.1,28.1c0,0-0.8-1.2-0.5-1.9c0.3-0.7,0.9,1.2,1.8,1.6S150.1,28.1,150.1,28.1z"/>
				<path class="st12" d="M151.4,28.2c0,0-0.7-1.3-0.3-1.9c0.4-0.7,0.8,1.3,1.7,1.7C153.7,28.6,151.4,28.2,151.4,28.2z"/>
			</g>
		</g>
	</g>
	<g>
		<g>
			<path class="st1" d="M160.6,143.5h-66c-1.5,0-2.7,1.2-2.7,2.7v4.2c0,1.5,1.2,2.7,2.7,2.7h66c1.5,0,2.7-1.2,2.7-2.7v-4.2
				C163.3,144.7,162.1,143.5,160.6,143.5z"/>
		</g>
		<g>
			<g>
				<path class="st1" d="M106.4,145.9l-18.3-40.6c-1.8-3.9-6.3-7.2-10-7.2l-61.9,0.1c-3.7,0-5.4,3.2-3.6,7.2L31,146
					c1.8,3.9,3.3,7.1,10,7.2l61.9-0.1C106.6,153.1,108.2,149.9,106.4,145.9z"/>
			</g>
			<g>
				<path class="st0" d="M106.4,145.9l-18.3-40.6c-1.8-3.9-4.2-7.1-8-7.1l-63.9,0c-0.1,0-0.2,0-0.3,0l54.9,0.1
					c7.2,0.9,8.6,3,10.4,6.9l18.3,40.6l3.2,7.2h6.9L106.4,145.9z"/>
			</g>
			<g>
				<path class="st0" d="M57.2,124.7c-2.3-3.6-6.1-5.4-8.6-3.9c-2.5,1.4-2.7,5.4-0.4,9c2.3,3.6,6.1,5.4,8.6,3.9
					C59.3,132.2,59.5,128.2,57.2,124.7z"/>
			</g>
		</g>
	</g>
	<g>
		<path class="st15" d="M231.7,152.7H26.2c-2.7,0-4.9,2.2-4.9,4.9v1.1c0,2.7,2.2,4.9,4.9,4.9h205.5c2.7,0,4.9-2.2,4.9-4.9v-1.1
			C236.6,154.9,234.4,152.7,231.7,152.7z"/>
	</g>
</g>
</svg>
